<svg width="50" height="100" viewBox="0 0 50 100" fill="none" xmlns="http://www.w3.org/2000/svg">
<g clip-path="url(#clip0)">
<path d="M36.1771 0.6372C36.6087 -0.196744 37.2967 -0.172702 37.7137 0.690583C38.1204 1.53288 38.1204 2.86805 37.7137 3.71014L14.5764 49.9889L37.7158 96.2633C38.1475 97.0973 38.1594 98.473 37.7425 99.3365C37.3255 100.2 36.6377 100.224 36.2059 99.3898C36.1969 99.3723 36.188 99.3546 36.1792 99.3365L12.2727 51.5233C11.8485 50.6747 11.8485 49.299 12.2727 48.4502L36.1771 0.6372Z" fill="#F44336"/>
<path d="M36.9466 99.9753C37.5467 99.9776 38.0341 99.0061 38.0352 97.8058C38.0357 97.2272 37.9208 96.672 37.7159 96.2632L14.5765 49.9888L37.7159 3.71456C38.1408 2.86472 38.1408 1.48697 37.7159 0.637134C37.291 -0.212703 36.6021 -0.212703 36.1772 0.637134L12.2706 48.4503C11.8464 49.2989 11.8464 50.6746 12.2706 51.5234L36.1772 99.3364C36.3809 99.7453 36.6578 99.9753 36.9466 99.9753Z" fill="black"/>
</g>
<defs>
<clipPath id="clip0">
<rect width="50" height="100" fill="white" transform="matrix(-1 0 0 1 50 0)"/>
</clipPath>
</defs>
</svg>
