<svg width="50" height="100" viewBox="0 0 50 100" fill="none" xmlns="http://www.w3.org/2000/svg">
<g clip-path="url(#clip0)">
<path d="M13.8229 0.6372C13.3913 -0.196744 12.7033 -0.172702 12.2864 0.690583C11.8797 1.53288 11.8797 2.86805 12.2864 3.71014L35.4236 49.9889L12.2842 96.2633C11.8526 97.0973 11.8407 98.473 12.2575 99.3365C12.6745 100.2 13.3624 100.224 13.7941 99.3898C13.8032 99.3723 13.812 99.3546 13.8208 99.3365L37.7274 51.5233C38.1516 50.6747 38.1516 49.299 37.7274 48.4502L13.8229 0.6372Z" fill="#F44336"/>
<path d="M13.0535 99.9753C12.4533 99.9776 11.966 99.0061 11.9648 97.8058C11.9643 97.2272 12.0793 96.672 12.2841 96.2632L35.4235 49.9888L12.2841 3.71456C11.8592 2.86472 11.8592 1.48697 12.2841 0.637134C12.709 -0.212703 13.3979 -0.212703 13.8228 0.637134L37.7294 48.4503C38.1536 49.2989 38.1536 50.6746 37.7294 51.5234L13.8228 99.3364C13.6191 99.7453 13.3422 99.9753 13.0535 99.9753Z" fill="black"/>
</g>
<defs>
<clipPath id="clip0">
<rect width="50" height="100" fill="white"/>
</clipPath>
</defs>
</svg>
