<svg width="51" height="51" fill="none" xmlns="http://www.w3.org/2000/svg"><g clip-path="url(#clip0)"><path d="M25.84.471A1.041 1.041 0 0024.366.47l-.002.001L5.62 19.216a1.042 1.042 0 001.473 1.472L24.06 3.72v45.39a1.041 1.041 0 002.082 0V3.72L43.11 20.686a1.041 1.041 0 101.473-1.472L25.839.47z" fill="#4CAF50"/><path d="M43.846 20.992a1.04 1.04 0 01-.737-.304L25.102 2.68 7.095 20.69a1.041 1.041 0 01-1.473-1.473L24.367.472a1.041 1.041 0 011.472 0l18.745 18.744a1.041 1.041 0 01-.738 1.776z" fill="#000"/><path d="M25.102 50.15a1.041 1.041 0 01-1.041-1.041V1.207a1.041 1.041 0 012.083 0v47.902c0 .575-.467 1.041-1.042 1.041z" fill="#000"/></g><defs><clipPath id="clip0"><path fill="#fff" transform="translate(.121 .165)" d="M0 0h49.985v49.985H0z"/></clipPath></defs></svg>