<svg width="50" height="50" fill="none" xmlns="http://www.w3.org/2000/svg"><g clip-path="url(#clip0)"><path d="M3.125 3.402C-.805 7.483 0 11.819 0 24.989c0 10.938-1.908 21.902 8.08 24.484 3.118.802 30.751.802 33.866-.004 4.158-1.073 7.541-4.446 8.004-10.328.065-.82.065-27.468-.002-28.306C49.456 4.571 45.6.96 40.518.23c-1.163-.17-1.396-.22-7.371-.231C11.952.01 7.306-.932 3.125 3.403z" fill="url(#paint0_linear)"/><path d="M24.996 6.54c-7.565 0-14.748-.673-17.492 6.368-1.133 2.909-.969 6.686-.969 12.094 0 4.746-.152 9.206.97 12.092 2.737 7.045 9.978 6.37 17.487 6.37 7.243 0 14.712.755 17.49-6.37 1.135-2.938.968-6.659.968-12.092 0-7.212.398-11.869-3.1-15.365-3.542-3.541-8.331-3.097-15.363-3.097h.009zm-1.654 3.327c15.779-.025 17.787-1.78 16.679 22.59-.394 8.618-6.956 7.672-15.023 7.672-14.708 0-15.131-.42-15.131-15.135 0-14.886 1.166-15.119 13.475-15.132v.005zM34.85 12.93a2.215 2.215 0 100 4.43 2.215 2.215 0 000-4.43zm-9.854 2.59c-5.236 0-9.48 4.246-9.48 9.481a9.479 9.479 0 009.48 9.48c5.235 0 9.477-4.244 9.477-9.48 0-5.235-4.242-9.481-9.477-9.481zm0 3.327c8.135 0 8.146 12.308 0 12.308-8.133 0-8.146-12.308 0-12.308z" fill="#fff"/></g><defs><linearGradient id="paint0_linear" x1="3.221" y1="46.806" x2="49.691" y2="6.587" gradientUnits="userSpaceOnUse"><stop stop-color="#FD5"/><stop offset=".5" stop-color="#FF543E"/><stop offset="1" stop-color="#C837AB"/></linearGradient><clipPath id="clip0"><path fill="#fff" d="M0 0h50v50H0z"/></clipPath></defs></svg>