<svg width="50" height="50" fill="none" xmlns="http://www.w3.org/2000/svg"><path d="M50 0H0v50h50V0z" fill="#44678D"/><path d="M12.953 15.216c1.198 2.96 2.717 5.75 4.717 8.254.265.333.6.63.952.871.515.353 1 .23 1.21-.36.22-.617.424-1.869.436-2.518.033-1.694-.005-2.805-.096-4.498-.06-1.084-.445-2.036-2.04-2.323-.492-.09-.538-.495-.222-.9.66-.841 1.577-.976 2.572-1.029 1.613-.087 3.232-.016 4.846 0a9.79 9.79 0 011.967.2c.845.185 1.298.777 1.437 1.602.072.426.11.863.1 1.294-.043 1.85-.132 3.699-.153 5.548a9.66 9.66 0 00.2 2.176c.216.985.887 1.232 1.573.52.87-.903 1.639-1.92 2.36-2.953 1.309-1.88 2.287-3.942 3.129-6.068.435-1.097.769-1.335 1.949-1.338 2.218-.005 4.437-.007 6.655 0 .393.002.805.039 1.176.157.603.192.842.684.701 1.307-.33 1.462-1.12 2.704-1.965 3.899-1.358 1.916-2.78 3.786-4.17 5.68a7.155 7.155 0 00-.478.76c-.52.939-.483 1.465.274 2.247 1.207 1.244 2.498 2.408 3.666 3.687a21.73 21.73 0 012.308 3.001c.85 1.343.325 2.609-1.265 2.834-1 .141-5.885.001-6.137 0-1.314-.006-2.465-.461-3.392-1.353-1.031-.993-1.968-2.083-2.958-3.119a8.265 8.265 0 00-.96-.873c-.81-.617-1.605-.48-1.983.47-.324.818-.603 2.963-.616 3.146-.068.958-.678 1.569-1.75 1.628-3.1.168-6.102-.177-8.898-1.676-2.371-1.27-4.264-3.064-5.904-5.157-2.605-3.325-4.662-6.98-6.54-10.742-.097-.192-2-4.24-2.05-4.432-.17-.64-.012-1.252.53-1.462.337-.131 6.61 0 6.714.005 1 .054 1.683.476 2.105 1.515z" fill="#fff"/></svg>