<svg width="50" height="50" fill="none" xmlns="http://www.w3.org/2000/svg"><g clip-path="url(#clip0)"><path d="M24.274 49.694a1.042 1.042 0 001.475 0l18.75-18.75a1.042 1.042 0 00-1.473-1.473L26.053 46.444V1.042a1.042 1.042 0 00-2.083 0v45.402L7 29.473a1.042 1.042 0 10-1.474 1.473l18.748 18.748z" fill="#4CAF50"/><path d="M6.262 29.167c.276 0 .541.109.737.304l18.013 18.014 18.012-18.014a1.042 1.042 0 011.473 1.473l-18.75 18.75a1.042 1.042 0 01-1.473 0l-18.75-18.75a1.042 1.042 0 01.738-1.777z" fill="#000"/><path d="M25.012 0c.575 0 1.041.466 1.041 1.042v47.916a1.042 1.042 0 01-2.083 0V1.042C23.97.466 24.436 0 25.012 0z" fill="#000"/></g><defs><clipPath id="clip0"><path fill="#fff" transform="rotate(-180 25 25)" d="M0 0h50v50H0z"/></clipPath></defs></svg>