<svg width="52" height="53" viewBox="0 0 52 53" fill="none" xmlns="http://www.w3.org/2000/svg">
<path d="M26 52.9527C40.336 52.9527 52 41.2932 52 26.9605C52 12.6278 40.336 0.968286 26 0.968287C11.664 0.968288 -3.52532e-06 12.6278 -2.27231e-06 26.9605C-1.01931e-06 41.2932 11.664 52.9527 26 52.9527ZM26 2.96769C39.233 2.96769 50 13.7315 50 26.9605C50 40.1895 39.233 50.9533 26 50.9533C12.767 50.9533 2 40.1896 2 26.9605C2 13.7315 12.767 2.96769 26 2.96769Z" fill="black"/>
<path d="M26 42.9557C26.552 42.9557 27 42.5089 27 41.956L27 19.9626C27 19.4098 26.552 18.9629 26 18.9629C25.448 18.9629 25 19.4098 25 19.9626L25 41.956C25 42.5089 25.448 42.9557 26 42.9557Z" fill="black"/>
<path d="M26 15.9638C26.552 15.9638 27 15.5169 27 14.9641L27 12.9647C27 12.4119 26.552 11.965 26 11.965C25.448 11.965 25 12.4119 25 12.9647L25 14.9641C25 15.5169 25.448 15.9638 26 15.9638Z" fill="black"/>
</svg>
