<svg width="135" height="137" viewBox="0 0 135 137" fill="none" xmlns="http://www.w3.org/2000/svg">
<g clip-path="url(#clip0)">
<path d="M21.441 114.035L19.7241 112.468C19.4529 112.206 19.1307 111.932 18.8043 111.602L17.736 110.508C17.3503 110.111 16.9264 109.693 16.4983 109.241L15.1757 107.721L14.4593 106.876C14.2177 106.589 13.9888 106.281 13.7429 105.972C13.2639 105.347 12.7425 104.705 12.2296 104.017C11.7166 103.328 11.2207 102.577 10.6908 101.812C10.4153 101.436 10.1821 101.022 9.92354 100.617L9.14356 99.3499C6.83178 95.5009 4.93082 91.4214 3.47175 87.178C1.74815 82.1156 0.653394 76.8619 0.211951 71.5343C0.1738 71.1796 0.139887 70.8206 0.12717 70.4616L0.0763024 69.3846L0.0254331 68.295L0 67.7501C0 67.5685 0 67.3827 0 67.2011C0 66.4704 0 65.7313 0 64.988V64.4305L0.029673 63.873L0.0847807 62.7538C0.127171 61.2503 0.309448 59.7425 0.462053 58.2136C0.555311 57.4534 0.68672 56.6932 0.796934 55.9245L0.974974 54.7715L1.20388 53.6227C1.79938 50.4998 2.63118 47.4262 3.69218 44.4283L4.53999 42.1476L5.48105 39.8923C5.64637 39.5164 5.7905 39.1363 5.97278 38.7689L6.51113 37.6624L7.05373 36.5558L7.32502 35.9983L7.62175 35.4577L8.81715 33.2826C9.24106 32.5647 9.66496 31.8678 10.1101 31.1709L10.7671 30.1108L11.475 29.0803L12.1702 28.0329C12.4118 27.6908 12.6408 27.3403 12.9036 27.0151L14.4381 25.03C14.5653 24.8653 14.6882 24.6964 14.8238 24.5359L15.2477 24.0586L16.0659 23.1042L16.884 22.1497C17.1553 21.8287 17.4563 21.5373 17.7318 21.2289L19.5164 19.358L21.2714 17.6981L21.6953 17.2758C21.8394 17.1364 21.9835 16.9971 22.1531 16.8535L23.1323 16.0088L24.1073 15.1641L24.5948 14.7417C24.7601 14.6024 24.9254 14.4841 25.0907 14.3532L27.0831 12.8243C27.4095 12.5624 27.7613 12.3344 28.1047 12.0936L29.1348 11.3799L30.1945 10.7168L31.2458 10.0748C31.958 9.6525 32.6574 9.19214 33.3653 8.78246L35.5484 7.59145C41.2776 4.58483 47.4191 2.43324 53.7762 1.20561L54.9843 1.00289L56.1416 0.825503C56.9131 0.715694 57.6761 0.584767 58.4391 0.491851C59.9736 0.339807 61.4869 0.153975 62.996 0.111741L64.1236 0.056837L64.6832 0.0314941H68.0108L68.5619 0.056837L69.6513 0.103295L70.7365 0.158199C71.0968 0.158199 71.4529 0.200434 71.809 0.238445C77.1601 0.679759 82.4372 1.77044 87.523 3.48627C91.7815 4.94309 95.8759 6.8384 99.7398 9.14146L101.012 9.91857C101.435 10.1762 101.834 10.4085 102.211 10.683C102.983 11.2124 103.72 11.7248 104.424 12.2203C105.119 12.7314 105.763 13.2509 106.387 13.7281C106.696 13.9731 107.006 14.2011 107.294 14.4377L108.142 15.1556L109.668 16.4734C110.134 16.8957 110.554 17.318 110.939 17.7024L112.033 18.7667C112.368 19.0961 112.648 19.4171 112.906 19.6916L114.479 21.381L112.635 19.8986C112.342 19.6578 112.029 19.3791 111.66 19.0961L110.448 18.1881C110.024 17.8586 109.545 17.5039 109.04 17.1364L107.4 16.0088L106.514 15.3964C106.204 15.1936 105.878 15.0036 105.552 14.7966C104.89 14.3743 104.212 13.952 103.483 13.5296L101.19 12.2626C100.8 12.0303 100.38 11.8402 99.9603 11.6333L98.6886 10.9998C94.7982 9.13413 90.7388 7.64078 86.565 6.53982C86.2852 6.45535 85.9927 6.38777 85.7172 6.32442L84.8397 6.11747C84.2505 5.98655 83.6613 5.83873 83.0636 5.69513L81.2365 5.36148L80.3124 5.19254C80.003 5.13341 79.6893 5.10385 79.3756 5.05739L77.4511 4.80398C76.8152 4.71107 76.1794 4.67728 75.5139 4.60971L74.5346 4.52101L74.0429 4.47878L73.547 4.45766L71.5546 4.38164C70.8848 4.33941 70.2066 4.38164 69.5241 4.38164H67.9896L67.4725 4.40276L65.3996 4.4999L64.8782 4.52524L64.3568 4.57592L63.3097 4.67728C61.9066 4.78287 60.5035 5.01516 59.0707 5.20099C58.3628 5.3108 57.6591 5.45862 56.9512 5.58532L55.883 5.78805L54.8232 6.03723C51.9421 6.68672 49.1094 7.53342 46.3452 8.57129L44.2511 9.39064L42.1952 10.2945C41.8518 10.4507 41.5 10.5859 41.1651 10.7633L40.1477 11.2701L39.1346 11.7811L38.6217 12.0387L38.1257 12.3175L36.1376 13.4451C35.4763 13.8337 34.8659 14.2603 34.1919 14.6615L33.2254 15.2781L32.2844 15.9412L31.3391 16.6296C31.0254 16.8535 30.7032 17.052 30.4022 17.3054L28.5795 18.7202C28.4269 18.8427 28.27 18.9567 28.1259 19.0792L27.702 19.4467L26.8542 20.1858L26.0064 20.9206C25.8622 21.0389 25.7181 21.1783 25.5825 21.3176L25.1586 21.74L23.357 23.3871L21.8055 25.0089C21.5427 25.2919 21.2587 25.558 21.0128 25.8536L20.254 26.7279L19.4995 27.6106L19.118 28.0329C18.995 28.1807 18.8806 28.337 18.7619 28.4848L17.3376 30.3051C15.506 32.7536 13.8433 35.3231 12.361 37.996L12.0812 38.4901L11.8226 39.0139L11.3224 40.0148L10.8095 41.0242C10.6357 41.3579 10.5 41.7084 10.339 42.0505L9.41062 44.1073C9.13932 44.8042 8.86378 45.5011 8.59249 46.1937C8.32119 46.8863 8.08381 47.5917 7.84218 48.3054C7.60056 49.0192 7.34622 49.6992 7.1597 50.4171L6.54928 52.5289C6.36277 53.2342 6.20592 53.9479 6.03636 54.6406L5.78202 55.6964L5.57007 56.7523C5.4429 57.4618 5.29453 58.1629 5.18432 58.864C4.9978 60.2789 4.76042 61.6768 4.65444 63.0875L4.53999 64.1307L4.48912 64.6501L4.46369 65.1696L4.36619 67.2391C4.36619 67.4081 4.34499 67.5812 4.34075 67.7501V69.2833C4.34075 69.959 4.31108 70.6348 4.34075 71.3021C4.37043 71.9694 4.4001 72.6367 4.42553 73.2955V73.7897L4.47216 74.2838L4.56118 75.2594C4.62901 75.9056 4.66292 76.556 4.75618 77.1895L5.01476 79.0816C5.06139 79.3942 5.09106 79.7109 5.14617 80.0192L5.31573 80.9399L5.65485 82.7602C5.78202 83.3558 5.93039 83.9428 6.07875 84.5299L6.28222 85.4041C6.35005 85.6913 6.41363 85.9827 6.49841 86.2488C7.62039 90.4157 9.13626 94.4672 11.0257 98.349L11.6615 99.616C11.8735 100.038 12.0854 100.461 12.2932 100.841C12.7171 101.635 13.141 102.395 13.5649 103.13C13.9888 103.865 14.4127 104.528 14.8366 105.187C15.04 105.512 15.235 105.837 15.4385 106.145L16.0532 107.028L17.185 108.663C17.5495 109.165 17.9098 109.626 18.2363 110.061L19.1519 111.264C19.4317 111.636 19.7157 111.948 19.9573 112.24L21.441 114.035Z" fill="url(#paint0_linear)"/>
<path d="M62.8307 25.1591L62.0676 26.1389C61.5674 26.7724 60.8638 27.7227 59.9481 28.9221C59.0325 30.1216 57.9939 31.6125 56.7943 33.3188C55.5947 35.025 54.3017 36.9889 52.9283 39.1471C51.5549 41.3053 50.1348 43.6746 48.7317 46.2256C47.3286 48.7765 45.9509 51.5133 44.6961 54.4022C44.0772 55.8466 43.4795 57.329 42.9412 58.8452C42.4028 60.3615 41.9153 61.9115 41.4957 63.491C40.6358 66.6334 40.1632 69.8685 40.0883 73.1247C40.0568 74.7302 40.1646 76.3355 40.4105 77.9225L40.6224 79.0924C40.7157 79.4767 40.792 79.8653 40.8895 80.2496L41.0463 80.8198L41.1226 81.1028V81.1746V81.2126C41.1438 81.2802 41.1226 81.1577 41.1226 81.183L41.1735 81.3351L41.5974 82.5345L41.8009 83.1342C41.8348 83.2356 41.8645 83.3412 41.9026 83.4299L42.0171 83.6917C42.1654 84.0465 42.3138 84.3971 42.4664 84.7476L42.6826 85.2755L42.9497 85.795L43.4753 86.8382C43.5605 87.013 43.6568 87.1823 43.7635 87.345L44.0645 87.8349C44.268 88.1644 44.4545 88.498 44.6665 88.8148L45.332 89.7439L45.6584 90.2085C45.7771 90.3605 45.9 90.4999 46.0187 90.6309C47.8555 92.905 50.0656 94.8528 52.5553 96.3916L53.4497 96.9407C53.7507 97.1181 54.0601 97.2701 54.3611 97.4348C54.963 97.7769 55.5819 98.0514 56.1881 98.3386C56.4848 98.4907 56.7943 98.6174 57.0995 98.7399L58.0067 99.12C58.6171 99.3396 59.219 99.5677 59.8125 99.7662C61.9994 100.485 64.2366 101.041 66.5059 101.43C68.5491 101.768 70.3549 101.971 71.8513 102.076C73.3477 102.182 74.5303 102.212 75.3358 102.212C76.1412 102.212 76.5778 102.212 76.5778 102.212C76.5778 102.212 76.1539 102.317 75.3527 102.444C74.5515 102.571 73.3689 102.748 71.8513 102.845C70.0173 102.979 68.1764 102.993 66.3406 102.887C63.9435 102.765 61.5618 102.433 59.2232 101.895C56.4033 101.246 53.6811 100.231 51.1267 98.875C48.2213 97.3279 45.6194 95.2721 43.4456 92.8059C43.3057 92.6497 43.1574 92.4934 43.0217 92.3287L42.6232 91.8176C42.3562 91.4755 42.0891 91.1334 41.8263 90.7871C41.5635 90.4408 41.3388 90.0607 41.0972 89.6975L40.7369 89.1442C40.611 88.9627 40.4964 88.7737 40.3935 88.5783C40.1816 88.1939 39.9696 87.8054 39.7534 87.421L39.4355 86.834L39.1515 86.2131L38.5919 84.9461L38.4521 84.6251C38.4097 84.5238 38.38 84.4266 38.3418 84.3253L38.1256 83.7298L37.7017 82.5387L37.6466 82.3867L37.6127 82.2853V82.2431L37.5873 82.1586L37.4898 81.8334L37.2948 81.1788C37.1804 80.7353 37.0744 80.2919 36.9684 79.8484C36.8624 79.4049 36.7904 78.953 36.7141 78.5011C36.4144 76.7007 36.2726 74.8778 36.2902 73.0529C36.3747 69.4761 36.932 65.926 37.9476 62.4943C38.4266 60.8049 38.9946 59.1747 39.622 57.5909C40.2494 56.0071 40.9192 54.4655 41.644 52.9873C43.0267 50.1553 44.5752 47.4068 46.2815 44.7558C47.9008 42.2218 49.5456 39.9369 51.1352 37.8758C52.7248 35.8148 54.2636 33.9945 55.6582 32.4107C57.0529 30.8269 58.3246 29.5008 59.3801 28.4196C60.4356 27.3384 61.3088 26.5275 61.8981 25.9742C62.4873 25.4209 62.8307 25.1591 62.8307 25.1591Z" fill="url(#paint1_linear)"/>
<path d="M58.3119 6.49146L59.1173 7.3826C59.6345 7.97388 60.389 8.83124 61.347 9.95468C62.305 11.0781 63.4326 12.4381 64.6958 14.0345C65.3345 14.8342 66.0029 15.6873 66.7009 16.5939C67.4003 17.4977 68.1295 18.4565 68.8755 19.4659C69.6216 20.4753 70.4016 21.5311 71.1858 22.6334C71.97 23.7358 72.7839 24.8761 73.5935 26.0671C75.2256 28.4407 76.8915 30.9874 78.5532 33.6693C79.3812 35.0067 80.2064 36.3765 81.0288 37.7787C81.8511 39.1809 82.6537 40.614 83.4365 42.0782C84.2335 43.5353 84.9923 45.0346 85.7341 46.5424C86.4759 48.0501 87.1965 49.5917 87.8536 51.1544C88.5106 52.717 89.1634 54.3008 89.7442 55.9057C90.3249 57.5106 90.8336 59.1451 91.2702 60.8007C91.7177 62.465 92.0478 64.1586 92.2579 65.8688L92.3342 66.5066L92.3893 67.157C92.4317 67.5793 92.436 68.0228 92.4572 68.4536V69.6868C92.4572 70.0838 92.4572 70.4597 92.436 70.8736C92.3978 71.6887 92.3851 72.5123 92.3173 73.2936L92.2282 74.472C92.1901 74.8648 92.1435 75.2491 92.1011 75.6334C91.9315 77.175 91.6772 78.6743 91.4101 80.1229C91.1431 81.5716 90.7955 82.9653 90.4012 84.2957C90.219 84.963 90.0028 85.6092 89.8078 86.2469C89.6128 86.8847 89.3839 87.514 89.155 88.101C88.7311 89.3047 88.2351 90.4366 87.7476 91.4798C87.2601 92.523 86.7642 93.5281 86.264 94.4362C85.7638 95.3442 85.2593 96.1762 84.7888 96.9322C84.3183 97.6882 83.835 98.3598 83.3984 98.9595C82.7307 99.888 82.0103 100.778 81.2407 101.624C80.9737 101.916 80.7617 102.131 80.6176 102.275L80.3929 102.49C80.3929 102.49 80.6176 102.136 81.0076 101.456C81.3976 100.776 81.9232 99.7662 82.5421 98.4569C83.161 97.1476 83.8435 95.5301 84.526 93.6548C84.8736 92.7172 85.2 91.7078 85.5349 90.6435C85.6959 90.1114 85.8613 89.5623 86.0096 88.9964C86.158 88.4304 86.3148 87.8561 86.4674 87.2648C87.0852 84.7239 87.5509 82.1487 87.8621 79.5528C88.0062 78.1717 88.1588 76.7569 88.2181 75.304C88.2181 74.9408 88.2605 74.5776 88.269 74.2101C88.2775 73.8427 88.269 73.4752 88.2987 73.1036C88.3284 72.356 88.2987 71.6338 88.2987 70.8905C88.2987 70.523 88.2987 70.1134 88.2648 69.7248V69.1335V68.8379V68.7281V68.5929C88.2393 68.2339 88.2309 67.8792 88.1842 67.516L88.1291 66.9669L88.0486 66.4179C87.8189 64.9051 87.499 63.4074 87.0906 61.9326C86.6667 60.4206 86.1877 58.9044 85.6366 57.3924C85.0855 55.8804 84.5048 54.3642 83.8689 52.8648C83.2331 51.3655 82.5718 49.8704 81.8851 48.388C81.1983 46.9056 80.4777 45.4316 79.7656 43.9956C79.0534 42.5596 78.3116 41.1152 77.5697 39.7088C76.8279 38.3024 76.0861 36.9087 75.34 35.553C73.8606 32.8288 72.3727 30.2188 70.9653 27.7438C69.558 25.2689 68.1761 22.9502 66.9086 20.8005L63.3987 14.9383L60.6857 10.4319L58.3119 6.49146Z" fill="url(#paint2_linear)"/>
<path d="M40.2194 112.377L42.6314 111.752C44.2126 111.376 46.5313 110.794 49.524 110.236C52.5168 109.679 56.1623 109.087 60.3929 108.673C62.5124 108.475 64.7591 108.31 67.1456 108.217C69.5322 108.124 72.0417 108.12 74.6614 108.217C77.2811 108.314 80.0111 108.483 82.8215 108.8C85.632 109.117 88.5315 109.573 91.4861 110.164C94.4407 110.756 97.4546 111.503 100.477 112.411C101.206 112.631 101.927 112.833 102.686 112.994L103.304 113.15C103.449 113.191 103.59 113.24 103.728 113.298C103.861 113.353 103.986 113.424 104.101 113.509C104.309 113.657 104.477 113.855 104.589 114.084C104.648 114.2 104.691 114.323 104.716 114.451C104.731 114.521 104.741 114.591 104.746 114.662C104.751 114.754 104.751 114.845 104.746 114.937C104.74 115.019 104.728 115.101 104.712 115.182C104.666 115.404 104.586 115.617 104.474 115.815C104.324 116.085 104.139 116.333 103.923 116.554C103.604 116.893 103.257 117.204 102.885 117.483C102.52 117.75 102.16 117.986 101.791 118.21C101.062 118.662 100.316 119.055 99.5614 119.435C96.5125 120.895 93.3497 122.107 90.1042 123.058C86.809 124.039 83.4568 124.817 80.0662 125.39C76.6188 125.979 73.1371 126.347 69.6424 126.492C66.1049 126.647 62.5607 126.514 59.0449 126.095C55.5065 125.686 52.0167 124.934 48.6254 123.848C47.7776 123.574 46.9298 123.278 46.1116 122.957C45.2935 122.636 44.4923 122.307 43.6784 121.965C42.8645 121.622 42.0591 121.251 41.2495 120.824C40.8468 120.609 40.4441 120.402 40.0371 120.119C39.6061 119.844 39.2004 119.532 38.8248 119.185C38.6035 118.979 38.4033 118.751 38.2271 118.506C38.001 118.195 37.8343 117.846 37.7353 117.475C37.6814 117.251 37.6557 117.021 37.659 116.791C37.659 116.706 37.659 116.719 37.6802 116.559V116.482C37.7022 116.349 37.7348 116.218 37.7777 116.09C37.9099 115.704 38.1255 115.352 38.4093 115.059C38.8187 114.641 39.3014 114.3 39.8336 114.054C40.2699 113.842 40.7203 113.66 41.1817 113.509C42.8703 112.997 44.6008 112.634 46.3533 112.424C48.0489 112.191 49.7445 112.039 51.3977 111.921C53.0509 111.803 54.7168 111.723 56.3531 111.68C59.6256 111.596 62.8388 111.604 65.9841 111.68C69.1295 111.756 72.1985 111.87 75.1871 112.103C76.6834 112.204 78.1544 112.327 79.6083 112.462C81.0623 112.597 82.5036 112.791 83.9025 113.023C85.2927 113.243 86.6707 113.534 88.0313 113.894C88.3852 113.989 88.7333 114.105 89.0741 114.24C89.1769 114.281 89.2773 114.327 89.375 114.379C89.4442 114.415 89.5107 114.456 89.5743 114.502C89.6245 114.538 89.6714 114.579 89.7142 114.624C89.8118 114.717 89.8859 114.831 89.9304 114.958C90.0151 115.338 89.9558 115.093 89.977 115.199C89.9843 115.296 89.9771 115.394 89.9558 115.49C89.9301 115.614 89.8828 115.733 89.8159 115.841C89.7262 115.982 89.6129 116.108 89.481 116.212C89.3063 116.351 89.1157 116.469 88.913 116.563C88.7432 116.645 88.5692 116.718 88.3916 116.782C88.0525 116.909 87.7218 117.006 87.3954 117.095C86.1392 117.412 84.8652 117.654 83.5803 117.821C82.3298 117.999 81.1132 118.13 79.922 118.244C77.5482 118.451 75.2888 118.556 73.165 118.603C69.5037 118.681 65.8408 118.549 62.1945 118.21C59.8503 117.988 57.5217 117.625 55.2213 117.124C54.4286 116.947 53.8224 116.787 53.4197 116.677L52.805 116.499L53.4282 116.643C53.8521 116.732 54.4455 116.858 55.2467 116.998C57.5591 117.375 59.8918 117.616 62.2326 117.72C65.8639 117.9 69.5024 117.877 73.1311 117.652C75.2294 117.53 77.4634 117.348 79.7991 117.061C80.9648 116.913 82.1602 116.744 83.3726 116.529C84.5993 116.323 85.8135 116.05 87.0097 115.71C87.3022 115.617 87.5989 115.52 87.8575 115.41C87.9931 115.355 88.1245 115.296 88.2432 115.237C88.3392 115.19 88.4289 115.132 88.5103 115.063C88.5357 115.063 88.54 115.03 88.5103 115.063C88.4888 115.1 88.4731 115.14 88.4637 115.182C88.4545 115.238 88.4545 115.295 88.4637 115.351C88.4637 115.414 88.4213 115.131 88.4933 115.469C88.5227 115.555 88.5704 115.635 88.6332 115.701C88.6587 115.731 88.6798 115.739 88.6798 115.743C88.6798 115.748 88.6798 115.743 88.6798 115.743C88.6293 115.717 88.5769 115.694 88.523 115.676C88.234 115.572 87.9397 115.483 87.6413 115.41C86.3308 115.094 85.0051 114.844 83.6693 114.662C82.3044 114.468 80.9012 114.312 79.4812 114.206C78.0611 114.1 76.5902 114.054 75.1107 114.003C69.1761 113.813 62.9151 113.788 56.4591 114.126C53.2417 114.307 49.9649 114.548 46.7348 115.017C45.1529 115.232 43.5927 115.584 42.0718 116.069C41.7296 116.184 41.3966 116.325 41.0757 116.491C40.8369 116.603 40.6179 116.753 40.4271 116.934C40.3762 116.989 40.3805 117.01 40.3974 116.972C40.3996 116.946 40.3996 116.919 40.3974 116.892V116.968C40.3974 116.863 40.3974 116.93 40.3974 116.901C40.4005 116.881 40.4005 116.861 40.3974 116.841C40.4865 116.983 40.5966 117.109 40.7238 117.217C41.2844 117.683 41.901 118.078 42.5593 118.391C43.2673 118.755 44.0218 119.097 44.7933 119.422C45.5648 119.747 46.3702 120.072 47.1375 120.368C47.9047 120.664 48.7059 120.938 49.5071 121.192C52.7226 122.202 56.029 122.9 59.3798 123.274C66.1135 123.981 72.9128 123.763 79.5872 122.628C82.8682 122.089 86.1141 121.356 89.3072 120.431C92.4149 119.572 95.4473 118.461 98.3745 117.112C99.0824 116.774 99.7691 116.419 100.413 116.035C100.736 115.845 101.049 115.646 101.338 115.444C101.602 115.261 101.85 115.056 102.079 114.831C102.144 114.769 102.201 114.7 102.249 114.624C102.249 114.624 102.249 114.624 102.249 114.709C102.247 114.742 102.247 114.776 102.249 114.81C102.244 114.851 102.244 114.892 102.249 114.932C102.249 114.971 102.224 114.742 102.249 115C102.266 115.078 102.293 115.153 102.329 115.224C102.397 115.364 102.498 115.485 102.622 115.579C102.658 115.604 102.697 115.627 102.736 115.646L102.618 115.604L102.084 115.465C101.308 115.27 100.511 115.042 99.7437 114.806C96.7933 113.832 93.8839 113.014 91.0155 112.352C88.1415 111.697 85.3183 111.182 82.5672 110.798C79.8161 110.413 77.1497 110.122 74.5766 109.953C72.0036 109.784 69.528 109.7 67.1711 109.695C64.8142 109.691 62.5802 109.742 60.4819 109.847C56.281 110.076 52.6228 110.443 49.6258 110.844C46.6288 111.245 44.2761 111.647 42.6738 111.925L40.2194 112.377Z" fill="url(#paint3_linear)"/>
<path d="M25.0483 118.172L32.1996 121.677C34.8786 122.991 37.6213 124.182 40.4021 125.272C43.1829 126.361 45.9976 127.383 48.8462 128.253C51.6948 129.123 54.5689 129.943 57.4726 130.602C60.3763 131.26 63.3012 131.835 66.2389 132.257C69.1765 132.68 72.1354 132.975 75.0942 133.102C75.836 133.148 76.5778 133.157 77.3154 133.186C78.053 133.216 78.7949 133.212 79.5367 133.186C81.0161 133.186 82.504 133.131 83.9665 133.055C86.9138 132.882 89.8482 132.533 92.7539 132.012C95.6579 131.5 98.5242 130.794 101.334 129.901C104.147 129.021 106.897 127.949 109.562 126.691C110.897 126.07 112.207 125.39 113.504 124.685C114.14 124.321 114.776 123.975 115.407 123.591L116.374 122.999L116.84 122.712L117.306 122.417C119.798 120.877 122.142 119.113 124.309 117.146C125.345 116.189 126.274 115.124 127.082 113.97C127.848 112.904 128.362 111.68 128.586 110.388C128.751 109.143 128.481 107.878 127.823 106.807C127.095 105.64 126.152 104.621 125.043 103.804C123.882 102.927 122.648 102.151 121.355 101.485C120.035 100.802 118.681 100.187 117.298 99.6438C115.912 99.0947 114.496 98.6006 113.059 98.1487C111.622 97.6968 110.181 97.2618 108.722 96.8817C105.806 96.1172 102.856 95.4415 99.8713 94.9051C101.385 95.0065 102.894 95.1796 104.399 95.3697C105.903 95.5597 107.408 95.792 108.905 96.0708C110.401 96.3495 111.897 96.6536 113.381 97.0041C114.865 97.3547 116.348 97.777 117.802 98.2458C119.275 98.7116 120.721 99.2558 122.135 99.8761C123.579 100.503 124.961 101.267 126.259 102.157C127.64 103.072 128.833 104.242 129.773 105.603C130.262 106.337 130.63 107.144 130.863 107.994C131.095 108.862 131.177 109.763 131.104 110.659C131.062 111.098 130.991 111.534 130.892 111.964C130.789 112.384 130.659 112.797 130.502 113.201C130.199 113.985 129.82 114.737 129.371 115.448C128.499 116.806 127.483 118.066 126.34 119.207C125.232 120.323 124.061 121.374 122.83 122.353C121.612 123.327 120.364 124.248 119.087 125.115L118.608 125.441L118.112 125.766L117.162 126.382C116.518 126.805 115.831 127.202 115.166 127.607C113.822 128.38 112.465 129.136 111.071 129.82C108.286 131.199 105.409 132.386 102.461 133.372C99.5092 134.351 96.494 135.13 93.4364 135.704C90.3834 136.279 87.2969 136.661 84.1954 136.848C81.1027 137.039 78.0016 137.05 74.9077 136.882C71.8199 136.723 68.7425 136.404 65.6878 135.927C62.64 135.446 59.6133 134.846 56.629 134.094C53.6448 133.343 50.6944 132.477 47.7822 131.489C44.87 130.5 42.0044 129.398 39.1939 128.177C34.1029 126.049 25.0483 118.172 25.0483 118.172Z" fill="url(#paint4_linear)"/>
<path d="M101.804 87.2437C101.804 87.2437 102.024 87.2437 102.431 87.2141C102.838 87.1846 103.445 87.1803 104.208 87.2141C106.317 87.2403 108.422 87.3841 110.515 87.6449C111.817 87.8054 113.22 88.025 114.703 88.3207C116.187 88.6163 117.738 88.9795 119.328 89.4568C120.129 89.6933 120.935 89.9509 121.744 90.2508C122.168 90.3902 122.554 90.5549 122.965 90.7069C123.376 90.859 123.779 91.0448 124.186 91.2306C124.996 91.5938 125.814 91.9951 126.611 92.447C127.423 92.9139 128.209 93.4257 128.963 93.9801C129.739 94.5746 130.46 95.2376 131.117 95.9609C131.813 96.7221 132.385 97.5871 132.812 98.5245C133.036 99.0079 133.214 99.5114 133.342 100.028C133.411 100.286 133.46 100.549 133.491 100.814L133.542 101.211C133.542 101.342 133.542 101.472 133.563 101.603C133.609 102.62 133.465 103.637 133.139 104.602C132.854 105.475 132.458 106.308 131.96 107.081C131.846 107.263 131.727 107.444 131.609 107.626L131.236 108.129C130.995 108.458 130.736 108.774 130.46 109.075C129.481 110.158 128.402 111.148 127.238 112.031C126.975 112.234 126.708 112.42 126.45 112.61C126.191 112.8 125.945 112.986 125.687 113.142C125.178 113.467 124.712 113.796 124.245 114.063C123.779 114.329 123.355 114.59 122.974 114.81L121.85 115.397C121.511 115.575 121.202 115.722 120.93 115.845L120.244 116.157L119.671 116.411L120.125 115.988L121.397 114.785L122.304 113.94C122.63 113.628 122.978 113.285 123.351 112.922C124.093 112.196 124.907 111.364 125.75 110.435C126.174 109.962 126.598 109.489 127.001 108.961C127.107 108.834 127.208 108.703 127.314 108.572L127.615 108.15C127.815 107.879 128.039 107.605 128.2 107.305C128.361 107.005 128.582 106.735 128.743 106.435L129.002 105.987L129.222 105.531C129.383 105.227 129.489 104.91 129.62 104.602C129.688 104.45 129.718 104.29 129.773 104.133C129.828 103.981 129.869 103.824 129.896 103.664C130.044 103.061 130.084 102.436 130.015 101.819C129.943 101.212 129.763 100.623 129.485 100.079C128.784 98.8497 127.82 97.7898 126.662 96.9745C125.388 96.0372 124.032 95.2173 122.609 94.5249C121.888 94.1744 121.164 93.8323 120.43 93.5113C119.697 93.1903 118.964 92.8989 118.239 92.6033C116.78 92.0289 115.339 91.5136 113.966 91.0406C112.592 90.5675 111.27 90.141 110.049 89.7735C107.607 89.0007 105.543 88.3798 104.093 87.9363L101.804 87.2437Z" fill="url(#paint5_linear)"/>
<path d="M101.825 76.3895L101.991 76.3599C102.097 76.3599 102.258 76.3092 102.465 76.2839C102.889 76.2374 103.5 76.1319 104.275 76.0854C105.051 76.0389 106.001 75.9545 107.086 75.946C108.171 75.9376 109.392 75.946 110.723 76.0389C111.389 76.0769 112.08 76.1445 112.796 76.2121C113.512 76.2797 114.25 76.3937 115.013 76.5035C116.618 76.7476 118.209 77.0789 119.778 77.496C120.604 77.7072 121.435 77.9648 122.279 78.252C122.703 78.3914 123.126 78.5519 123.55 78.6997C123.974 78.8475 124.398 79.0418 124.822 79.2276C126.617 79.9812 128.317 80.9423 129.888 82.0911C130.736 82.7476 131.523 83.4783 132.24 84.2747C133.03 85.1532 133.676 86.1511 134.152 87.2311C134.41 87.7971 134.612 88.387 134.754 88.9922C134.788 89.1443 134.83 89.2921 134.856 89.4484L134.919 89.9172L134.974 90.3817C134.974 90.5338 134.974 90.6901 134.974 90.8463C135.019 92.0227 134.838 93.1967 134.44 94.3053C134.359 94.5618 134.261 94.8129 134.148 95.0571C134.038 95.2978 133.94 95.547 133.821 95.7709C133.6 96.2102 133.348 96.6336 133.067 97.0379L132.668 97.6207L132.245 98.1529C132.105 98.326 131.973 98.5076 131.821 98.6639L131.397 99.1327C130.332 100.236 129.156 101.226 127.887 102.089C127.603 102.283 127.315 102.457 127.039 102.634C126.763 102.811 126.496 102.989 126.221 103.132L125.428 103.555C125.174 103.698 124.924 103.838 124.674 103.952C124.178 104.188 123.728 104.425 123.287 104.606L122.084 105.105C121.906 105.176 121.736 105.252 121.571 105.312L121.104 105.472L120.371 105.721C120.176 105.789 120.015 105.831 119.913 105.865L119.752 105.911L119.544 105.595L120.053 105.244C120.38 105.012 120.875 104.691 121.482 104.247L122.482 103.512L123.635 102.621C124.453 101.971 125.331 101.211 126.293 100.349C127.302 99.4226 128.234 98.4155 129.078 97.3377C129.298 97.0506 129.523 96.7591 129.722 96.4424L130.032 95.9778L130.307 95.4879C130.493 95.1562 130.662 94.815 130.812 94.4658C130.897 94.2926 130.947 94.1068 131.015 93.9294C131.087 93.7505 131.146 93.5671 131.193 93.3804C131.647 91.859 131.516 90.2237 130.824 88.7937C130.465 88.0594 129.996 87.3831 129.434 86.7876C128.867 86.1701 128.246 85.6047 127.577 85.0982C126.897 84.5933 126.189 84.1252 125.458 83.696C124.725 83.2737 123.983 82.8767 123.224 82.5219C121.736 81.8189 120.211 81.1986 118.654 80.6636C115.883 79.7192 113.061 78.931 110.202 78.3027C107.688 77.7494 105.581 77.3398 104.097 77.0948C102.614 76.8498 101.766 76.74 101.766 76.74L101.825 76.3895Z" fill="url(#paint6_linear)"/>
<path d="M80.1894 62.4605C80.1894 62.4605 80.2827 62.6674 80.431 63.0644C80.5794 63.4614 80.8041 64.0358 81.0287 64.7834C81.2534 65.5309 81.5544 66.4432 81.813 67.499C81.9486 68.027 82.0885 68.5929 82.2369 69.1884C82.3852 69.7839 82.4997 70.4132 82.6311 71.0721C82.8812 72.394 83.1101 73.8342 83.2797 75.3715C83.4492 76.9089 83.5679 78.5433 83.5934 80.2496C83.5934 81.0943 83.5792 81.9657 83.551 82.8639C83.551 83.3074 83.5043 83.7551 83.4704 84.207C83.4365 84.6589 83.3814 85.115 83.3305 85.5711C83.1112 87.4768 82.6848 89.3532 82.0588 91.1672C81.7085 92.1382 81.273 93.0767 80.7575 93.9716C80.193 94.9352 79.4888 95.8104 78.6676 96.569L78.3455 96.8604L77.9978 97.1307C77.7675 97.3177 77.5222 97.4858 77.2645 97.6333C76.7571 97.9442 76.2187 98.2018 75.6579 98.4019C75.3739 98.4906 75.0941 98.5878 74.8101 98.6554L73.9623 98.8243C73.4171 98.8947 72.8667 98.9173 72.3176 98.8919H71.9191C71.7877 98.8919 71.6605 98.8623 71.5333 98.8496C71.279 98.8158 71.0247 98.7863 70.7788 98.744C70.3051 98.6568 69.8378 98.5382 69.3799 98.3893L68.7186 98.1739C68.5067 98.0979 68.2947 98.0092 68.0997 97.9289C67.9047 97.8487 67.6758 97.7642 67.4936 97.6713L66.9255 97.3883C65.5675 96.684 64.2825 95.8479 63.0892 94.8923C62.8179 94.6769 62.5636 94.4699 62.3092 94.2419C62.0549 94.0138 61.809 93.8195 61.5886 93.6083C61.1393 93.186 60.7027 92.7636 60.3169 92.3793C59.9312 91.995 59.5666 91.6276 59.2529 91.2643L58.4051 90.2761C58.1465 89.9846 57.9261 89.7101 57.7438 89.4609L57.2691 88.8485C57.0147 88.5107 56.8833 88.3248 56.8833 88.3248L57.0783 88.1094L57.5615 88.5318C57.8752 88.7936 58.3246 89.1949 58.9265 89.6721L59.9142 90.4661L61.1054 91.3657C61.9532 91.9992 62.9536 92.6834 64.0727 93.3845C65.262 94.1329 66.5111 94.7827 67.8073 95.3273L68.3286 95.5385C68.5067 95.6103 68.689 95.6609 68.867 95.7243L69.4138 95.9017L69.9776 96.041C70.3507 96.1509 70.7407 96.1889 71.1306 96.2649C71.3256 96.286 71.5249 96.2945 71.7241 96.3114C71.8216 96.3114 71.9191 96.3114 72.0208 96.3114H72.3176C73.1337 96.3198 73.9436 96.1678 74.7008 95.8642C75.458 95.5605 76.1477 95.1112 76.7304 94.5417C77.3321 93.9497 77.8485 93.2774 78.2649 92.544C78.6817 91.7934 79.0348 91.0093 79.3204 90.2C79.8842 88.5673 80.2888 86.8842 80.5285 85.1741C80.7744 83.4848 80.9143 81.7954 80.9864 80.1609C81.0959 77.1785 81.0421 74.1923 80.8253 71.2157C80.643 68.6014 80.4268 66.4221 80.2361 64.9016C80.0453 63.3812 79.9139 62.5196 79.9139 62.5196L80.1894 62.4605Z" fill="url(#paint7_linear)"/>
<path d="M78.9945 58.3003C78.9945 58.3003 79.0835 58.5073 79.2318 58.9001C79.3802 59.2928 79.6049 59.8757 79.8338 60.6232C80.0627 61.3708 80.3594 62.2788 80.618 63.3389C80.7494 63.8668 80.8935 64.4285 81.0419 65.0283C81.1903 65.628 81.3047 66.2573 81.4361 66.9162C81.6862 68.2339 81.9109 69.6741 82.0805 71.2156C82.25 72.7572 82.3687 74.3874 82.3941 76.0937C82.3941 76.9384 82.3941 77.8211 82.3518 78.708C82.3518 79.1303 82.3051 79.5992 82.2755 80.0511C82.2458 80.503 82.1822 80.9549 82.1313 81.411C81.9148 83.3186 81.4883 85.1966 80.8596 87.0113C80.5041 87.9802 80.0688 88.9182 79.5582 89.8157C78.9916 90.7778 78.2876 91.6527 77.4684 92.4131L77.1462 92.7045L76.7944 92.9748C76.5645 93.1604 76.3207 93.3284 76.0653 93.4774C75.5558 93.7861 75.0161 94.0422 74.4545 94.2418C74.1747 94.3305 73.8949 94.4319 73.6067 94.4995C73.3184 94.567 73.0429 94.6135 72.7589 94.6642C72.2138 94.7358 71.6634 94.7598 71.1141 94.736H70.6902C70.5631 94.736 70.4359 94.7106 70.3087 94.6937C70.0544 94.6599 69.8 94.6304 69.5542 94.5924C69.08 94.5011 68.6115 94.3826 68.1511 94.2376L67.494 94.0222C67.2821 93.942 67.0701 93.8575 66.8709 93.773C66.6716 93.6886 66.447 93.6125 66.2647 93.5196L65.6967 93.2324C64.3385 92.53 63.0535 91.6953 61.8604 90.7406C61.5891 90.5252 61.3347 90.3182 61.0846 90.0902C60.8345 89.8621 60.5802 89.6678 60.3597 89.4524C59.9104 89.0301 59.4738 88.6077 59.088 88.2276C58.7023 87.8475 58.3335 87.4716 58.0198 87.1127C57.7061 86.7537 57.4264 86.42 57.172 86.1244C56.9177 85.8287 56.693 85.5542 56.5065 85.3092L56.0317 84.6926C55.7774 84.359 55.6502 84.1731 55.6502 84.1731L55.8452 83.9535L56.3242 84.3759C56.6421 84.6377 57.0872 85.0389 57.6892 85.5162L58.6811 86.3102L59.8723 87.2098C60.7201 87.8433 61.7205 88.5233 62.8396 89.2286C64.0308 89.9738 65.2796 90.6234 66.5741 91.1714L67.0998 91.3825C67.2736 91.4501 67.4559 91.505 67.6381 91.5642C67.8204 91.6233 67.9985 91.6866 68.185 91.7415L68.7445 91.8851C69.1263 91.9778 69.5125 92.0511 69.9018 92.1048C70.0968 92.1259 70.2918 92.1385 70.491 92.1554L70.7877 92.1766H71.0887C71.9045 92.1865 72.7141 92.0353 73.4708 91.7315C74.2275 91.4278 74.9163 90.9776 75.4973 90.4069C76.1012 89.8174 76.6192 89.1464 77.036 88.4135C77.4515 87.6613 77.8031 86.8758 78.0873 86.0652C78.6536 84.4346 79.0582 82.7527 79.2954 81.0436C79.5336 79.3813 79.6864 77.7081 79.7532 76.0303C79.864 73.048 79.8117 70.0618 79.5964 67.0851C79.4099 64.4666 79.1725 62.2915 79.0072 60.7499C78.8419 59.2084 78.6808 58.3679 78.6808 58.3679L78.9945 58.3003Z" fill="url(#paint8_linear)"/>
<path d="M60.7071 35.5783C60.7071 35.5783 60.19 36.2921 59.3549 37.5549C58.931 38.1842 58.4435 38.9571 57.9009 39.8524C57.6254 40.2748 57.3456 40.7773 57.0531 41.2926C56.7606 41.8079 56.4511 42.3274 56.1629 42.8975C55.8746 43.4677 55.5482 44.0463 55.26 44.6714C54.9717 45.2964 54.6326 45.9131 54.3444 46.5846C54.0561 47.2561 53.7339 47.9234 53.4711 48.6372C53.2083 49.3509 52.8777 50.0562 52.6233 50.808C52.0722 52.2862 51.5975 53.8405 51.1524 55.4285C50.9531 56.2267 50.7285 57.0334 50.5462 57.8401C50.3639 58.6467 50.2198 59.4787 50.0587 60.2981C49.8001 61.9495 49.5373 63.6051 49.4229 65.2522C49.3084 66.8993 49.2024 68.5592 49.1812 70.0965C49.16 71.6338 49.2236 73.2007 49.3169 74.6494C49.4101 76.098 49.5755 77.4706 49.7408 78.7376C49.9061 80.0047 50.1011 81.1661 50.2918 82.1924C50.4826 83.2187 50.6649 84.1225 50.8344 84.8616L51.3686 87.193L51.0549 86.6439C50.8641 86.2849 50.5631 85.7612 50.2325 85.0686C49.3111 83.1578 48.5539 81.1728 47.9689 79.1346C47.5645 77.7636 47.2334 76.3721 46.9769 74.9661C46.6908 73.39 46.4898 71.7997 46.375 70.2021C46.3284 69.3574 46.2775 68.4747 46.2817 67.668C46.2817 67.2457 46.2817 66.8656 46.2817 66.3799C46.2817 65.8942 46.3326 65.5056 46.3538 65.0706C46.4423 63.2857 46.6348 61.5075 46.9303 59.7448C47.1168 58.872 47.3005 57.9991 47.4814 57.1263C47.6933 56.2816 47.9604 55.4369 48.1978 54.5669C48.7054 52.9248 49.3142 51.3154 50.0206 49.7479C50.3427 48.9793 50.72 48.2486 51.0973 47.5391C51.4745 46.8295 51.856 46.1453 52.246 45.4907C52.636 44.8361 53.0133 44.1983 53.4245 43.6071C53.8357 43.0158 54.2257 42.4498 54.6241 41.9177C55.0226 41.3855 55.3999 40.8745 55.7941 40.4184C56.1883 39.9622 56.5529 39.5188 56.9174 39.126C57.6254 38.3193 58.3078 37.6689 58.8631 37.1452C59.447 36.5879 60.0627 36.0648 60.7071 35.5783Z" fill="url(#paint9_linear)"/>
<path d="M66.044 39.5314L65.1283 40.9927C64.8401 41.4531 64.5137 42.0275 64.1364 42.6821C63.7591 43.3368 63.3691 44.0801 62.9452 44.8868C62.5213 45.6934 62.0974 46.5761 61.6735 47.5349C61.4531 48.0037 61.2496 48.4894 61.0419 48.9919C60.8342 49.4945 60.618 50.0014 60.4273 50.5293C60.0034 51.5725 59.6473 52.6748 59.2954 53.794C58.9436 54.9132 58.6384 56.062 58.3459 57.2192C58.0534 58.3764 57.8287 59.5463 57.638 60.7078L57.4854 61.5525L57.3497 62.4478C57.265 63.0433 57.2056 63.5713 57.1336 64.1372C56.875 66.3714 56.769 68.4874 56.7097 70.3161C56.7097 71.2284 56.7097 72.0773 56.7097 72.8248C56.7097 73.5724 56.7393 74.2397 56.752 74.7803L56.8029 76.5077C56.5505 75.9847 56.3256 75.449 56.1289 74.9028C55.5901 73.4653 55.176 71.9845 54.8911 70.4766C54.7131 69.539 54.5478 68.5127 54.4672 67.4188C54.3627 66.2703 54.3174 65.1172 54.3316 63.9641C54.3316 63.3685 54.3655 62.7181 54.4079 62.1226L54.4757 61.223L54.5986 60.2643C54.6919 59.6392 54.7427 58.9973 54.8784 58.3764L55.2684 56.4843C55.5786 55.241 55.9536 54.0145 56.3917 52.8099C56.5867 52.2102 56.8453 51.6358 57.0912 51.0614C57.322 50.495 57.5823 49.941 57.8711 49.4016C58.1382 48.861 58.4053 48.3331 58.7189 47.8389C59.0326 47.3448 59.2912 46.8464 59.6091 46.3903C60.1728 45.5242 60.7857 44.6908 61.4446 43.8942C62.4133 42.6947 63.495 41.5901 64.6748 40.5957C65.1074 40.2116 65.5647 39.8561 66.044 39.5314Z" fill="url(#paint10_linear)"/>
</g>
<defs>
<linearGradient id="paint0_linear" x1="-0.601941" y1="57.0184" x2="116.408" y2="57.0184" gradientUnits="userSpaceOnUse">
<stop stop-color="#FBB040"/>
<stop offset="0.2" stop-color="#FAAB3F"/>
<stop offset="0.42" stop-color="#F99D3B"/>
<stop offset="0.66" stop-color="#F68635"/>
<stop offset="0.91" stop-color="#F2662C"/>
<stop offset="1" stop-color="#F15A29"/>
</linearGradient>
<linearGradient id="paint1_linear" x1="36.2986" y1="64.057" x2="76.866" y2="64.057" gradientUnits="userSpaceOnUse">
<stop stop-color="#00889C"/>
<stop offset="0.3" stop-color="#018499"/>
<stop offset="0.6" stop-color="#037890"/>
<stop offset="0.91" stop-color="#076381"/>
<stop offset="1" stop-color="#085C7C"/>
</linearGradient>
<linearGradient id="paint2_linear" x1="56.5569" y1="54.474" x2="92.5886" y2="54.474" gradientUnits="userSpaceOnUse">
<stop stop-color="#00889C"/>
<stop offset="0.03" stop-color="#018398"/>
<stop offset="0.15" stop-color="#04718B"/>
<stop offset="0.3" stop-color="#066583"/>
<stop offset="0.5" stop-color="#085E7D"/>
<stop offset="1" stop-color="#085C7C"/>
</linearGradient>
<linearGradient id="paint3_linear" x1="9090.9" y1="6541.78" x2="19756.3" y2="6541.78" gradientUnits="userSpaceOnUse">
<stop stop-color="#00889C"/>
<stop offset="0.3" stop-color="#018499"/>
<stop offset="0.6" stop-color="#037890"/>
<stop offset="0.91" stop-color="#076381"/>
<stop offset="1" stop-color="#085C7C"/>
</linearGradient>
<linearGradient id="paint4_linear" x1="24.0988" y1="115.95" x2="131.77" y2="115.95" gradientUnits="userSpaceOnUse">
<stop offset="0.01" stop-color="#A7DCDE"/>
<stop offset="1" stop-color="#008CC1"/>
</linearGradient>
<linearGradient id="paint5_linear" x1="9185" y1="9224.13" x2="11593" y2="9224.13" gradientUnits="userSpaceOnUse">
<stop offset="0.01" stop-color="#A7DCDE"/>
<stop offset="1" stop-color="#008CC1"/>
</linearGradient>
<linearGradient id="paint6_linear" x1="9598.97" y1="8674.91" x2="12116.7" y2="8674.91" gradientUnits="userSpaceOnUse">
<stop offset="0.01" stop-color="#A7DCDE"/>
<stop offset="1" stop-color="#008CC1"/>
</linearGradient>
<linearGradient id="paint7_linear" x1="4822.22" y1="9634.54" x2="6507.09" y2="9634.54" gradientUnits="userSpaceOnUse">
<stop stop-color="#00889C"/>
<stop offset="0.3" stop-color="#018499"/>
<stop offset="0.6" stop-color="#037890"/>
<stop offset="0.91" stop-color="#076381"/>
<stop offset="1" stop-color="#085C7C"/>
</linearGradient>
<linearGradient id="paint8_linear" x1="4751.62" y1="9271.85" x2="6438.36" y2="9271.85" gradientUnits="userSpaceOnUse">
<stop stop-color="#00889C"/>
<stop offset="0.3" stop-color="#018499"/>
<stop offset="0.6" stop-color="#037890"/>
<stop offset="0.91" stop-color="#076381"/>
<stop offset="1" stop-color="#085C7C"/>
</linearGradient>
<linearGradient id="paint9_linear" x1="2735.36" y1="11343.3" x2="2284.14" y2="11309.6" gradientUnits="userSpaceOnUse">
<stop stop-color="#00889C"/>
<stop offset="0.3" stop-color="#018499"/>
<stop offset="0.6" stop-color="#037890"/>
<stop offset="0.91" stop-color="#076381"/>
<stop offset="1" stop-color="#085C7C"/>
</linearGradient>
<linearGradient id="paint10_linear" x1="2426.6" y1="7975" x2="2045.59" y2="7914.89" gradientUnits="userSpaceOnUse">
<stop stop-color="#00889C"/>
<stop offset="0.3" stop-color="#018499"/>
<stop offset="0.6" stop-color="#037890"/>
<stop offset="0.91" stop-color="#076381"/>
<stop offset="1" stop-color="#085C7C"/>
</linearGradient>
<clipPath id="clip0">
<rect width="135" height="137" fill="white"/>
</clipPath>
</defs>
</svg>
