<svg width="135" height="137" fill="none" xmlns="http://www.w3.org/2000/svg"><g clip-path="url(#clip0)"><path d="M21.441 114.035l-1.717-1.567c-.271-.262-.593-.536-.92-.866l-1.068-1.094c-.386-.397-.81-.815-1.238-1.267l-1.322-1.52-.717-.845c-.241-.287-.47-.595-.716-.904-.48-.625-1-1.267-1.513-1.955-.513-.689-1.01-1.44-1.54-2.205-.275-.376-.508-.79-.766-1.195l-.78-1.267a64.155 64.155 0 01-5.672-12.172 65.255 65.255 0 01-3.26-15.644 15.026 15.026 0 01-.085-1.072l-.05-1.077-.052-1.09L0 67.75v-3.32l.03-.557.055-1.12c.042-1.503.224-3.01.377-4.54.093-.76.225-1.52.335-2.288l.178-1.153.229-1.15a62.836 62.836 0 012.488-9.194l.848-2.28.941-2.256c.165-.376.31-.756.492-1.123l.538-1.107.543-1.106.271-.558.297-.54 1.195-2.175c.424-.718.848-1.415 1.293-2.112l.657-1.06.708-1.03.695-1.048c.242-.342.47-.693.734-1.018l1.534-1.985c.127-.165.25-.334.386-.494l.424-.477.818-.955.818-.954c.271-.321.572-.613.848-.921l1.784-1.871 1.755-1.66.424-.422a9.1 9.1 0 01.458-.422l.98-.845.974-.845.488-.422c.165-.14.33-.258.496-.389l1.992-1.529c.327-.262.678-.49 1.022-.73l1.03-.714 1.06-.663 1.05-.642c.713-.422 1.412-.883 2.12-1.293l2.183-1.19a66.265 66.265 0 0118.228-6.386l1.208-.203 1.158-.177c.771-.11 1.534-.241 2.297-.334 1.535-.152 3.048-.338 4.557-.38l1.128-.055.56-.026h3.327l.55.026 1.09.046 1.086.055c.36 0 .716.042 1.072.08a66.171 66.171 0 0115.714 3.248A64.874 64.874 0 0199.74 9.141l1.272.778c.423.257.822.49 1.199.764.772.53 1.509 1.042 2.213 1.537.695.511 1.339 1.03 1.963 1.508.309.245.619.473.907.71l.848.718 1.526 1.317c.466.423.886.845 1.271 1.23l1.094 1.064c.335.33.615.65.873.925l1.573 1.689-1.844-1.482c-.293-.241-.606-.52-.975-.803l-1.212-.908c-.424-.33-.903-.684-1.408-1.052l-1.64-1.127-.886-.613c-.31-.202-.636-.392-.962-.6a56.2 56.2 0 00-2.069-1.266l-2.293-1.267c-.39-.233-.81-.423-1.23-.63L98.69 11a68.36 68.36 0 00-12.124-4.46c-.28-.085-.572-.152-.848-.216l-.877-.207c-.59-.13-1.179-.278-1.776-.422l-1.827-.334-.925-.168c-.309-.06-.623-.09-.936-.136l-1.925-.253c-.636-.093-1.272-.127-1.937-.194l-.98-.089-.491-.042-.496-.021-1.992-.076c-.67-.043-1.348 0-2.03 0H67.99l-.517.02L65.4 4.5l-.522.025-.521.05-1.047.102c-1.403.106-2.806.338-4.24.524-.707.11-1.41.258-2.119.384l-1.068.203-1.06.25a64.425 64.425 0 00-8.478 2.533l-2.094.82-2.056.903c-.343.157-.695.292-1.03.47l-1.017.506-1.013.511-.513.258-.496.279-1.988 1.127c-.662.389-1.272.815-1.946 1.216l-.967.617-.94.663-.946.689c-.314.224-.636.422-.937.675L28.58 18.72c-.152.123-.309.237-.453.36l-.424.367-.848.739-.848.735a5.305 5.305 0 00-.424.397l-.423.422-1.802 1.647-1.552 1.622c-.262.283-.546.549-.792.845l-.759.874-.755.883-.381.422c-.123.148-.237.304-.356.452l-1.424 1.82a67.453 67.453 0 00-4.977 7.691l-.28.494-.258.524-.5 1-.514 1.01c-.173.334-.309.684-.47 1.026l-.928 2.057c-.272.697-.547 1.394-.819 2.087-.27.692-.508 1.398-.75 2.111-.241.714-.496 1.394-.682 2.112l-.61 2.112c-.187.705-.344 1.419-.514 2.112l-.254 1.055-.212 1.056c-.127.71-.275 1.41-.386 2.112-.186 1.415-.424 2.813-.53 4.224L4.54 64.13l-.05.52-.026.519-.098 2.07c0 .168-.021.341-.025.51v1.533c0 .676-.03 1.352 0 2.02.03.666.06 1.334.085 1.993v.494l.046.494.09.975c.067.647.1 1.297.194 1.93l.259 1.893c.046.312.076.629.131.937l.17.92.339 1.821c.127.596.275 1.183.424 1.77l.203.874c.068.287.132.579.216.845a68.111 68.111 0 004.528 12.1l.636 1.267c.211.422.423.845.631 1.225.424.794.848 1.554 1.272 2.289.424.735.848 1.398 1.272 2.057.203.325.398.65.601.958l.615.883 1.132 1.635c.364.502.725.963 1.051 1.398l.916 1.203c.28.372.564.684.805.976l1.484 1.795z" fill="url(#paint0_linear)"/><path d="M62.83 25.16l-.762.979c-.5.633-1.204 1.584-2.12 2.783-.916 1.2-1.954 2.69-3.154 4.397-1.2 1.706-2.492 3.67-3.866 5.828a129.052 129.052 0 00-4.196 7.079 98.092 98.092 0 00-4.036 8.176 75.076 75.076 0 00-1.755 4.443 59.708 59.708 0 00-1.445 4.646 39.982 39.982 0 00-1.408 9.634 27.91 27.91 0 00.322 4.797l.212 1.17c.094.385.17.773.267 1.158l.157.57.077.283v.11c.02.067 0-.055 0-.03l.05.152.424 1.2.204.6c.034.1.063.206.102.295l.114.262c.148.355.297.705.45 1.056l.216.527.267.52.525 1.043c.085.175.182.344.288.507l.302.49c.203.33.39.663.602.98l.665.929.326.465c.12.151.242.29.36.422a25.918 25.918 0 006.537 5.76l.895.55c.3.177.61.33.911.494.602.342 1.22.616 1.827.904.297.152.606.278.911.4l.908.381c.61.22 1.212.448 1.806.646a46.71 46.71 0 006.693 1.664 57.98 57.98 0 005.345.646c1.497.106 2.68.136 3.485.136h1.242s-.424.105-1.225.232a36.37 36.37 0 01-3.502.401 42.224 42.224 0 01-5.51.042 41.055 41.055 0 01-7.118-.992 33.101 33.101 0 01-8.096-3.02 27.413 27.413 0 01-7.681-6.07c-.14-.155-.289-.312-.424-.476l-.399-.511c-.267-.343-.534-.685-.797-1.03-.263-.347-.487-.727-.729-1.09l-.36-.554a5.44 5.44 0 01-.343-.566c-.212-.384-.424-.773-.64-1.157l-.319-.587-.284-.62-.56-1.268-.139-.32c-.042-.102-.072-.2-.11-.3l-.216-.596-.424-1.191-.055-.152-.034-.102v-.042l-.026-.084-.097-.326-.195-.654c-.115-.444-.22-.887-.327-1.33-.106-.444-.178-.896-.254-1.348-.3-1.8-.441-3.623-.424-5.448a40.584 40.584 0 011.658-10.559 51.295 51.295 0 011.674-4.903 64.035 64.035 0 012.022-4.604 80.319 80.319 0 014.638-8.231 95.079 95.079 0 014.853-6.88 108.642 108.642 0 014.523-5.465 104.126 104.126 0 013.722-3.991c1.056-1.082 1.929-1.893 2.518-2.446.59-.553.933-.815.933-.815z" fill="url(#paint1_linear)"/><path d="M58.312 6.491l.805.892c.518.59 1.272 1.448 2.23 2.572a143.793 143.793 0 013.349 4.08c.639.8 1.307 1.652 2.005 2.559a213.745 213.745 0 014.485 6.04c.784 1.102 1.598 2.242 2.407 3.433A191.096 191.096 0 0181.03 37.78a125.002 125.002 0 012.407 4.3 116.26 116.26 0 012.298 4.463 85.956 85.956 0 012.12 4.612c.657 1.563 1.31 3.147 1.89 4.752.58 1.605 1.09 3.24 1.526 4.895a36.8 36.8 0 01.988 5.068l.076.638.055.65c.043.422.047.866.068 1.297v1.233c0 .397 0 .773-.021 1.187-.038.815-.05 1.638-.119 2.42l-.089 1.178c-.038.393-.084.777-.127 1.161-.17 1.542-.424 3.041-.69 4.49a40.56 40.56 0 01-1.01 4.173c-.182.667-.398 1.313-.593 1.95a26.371 26.371 0 01-.653 1.855 37.082 37.082 0 01-1.407 3.379 50.672 50.672 0 01-1.484 2.956c-.5.908-1.005 1.74-1.475 2.496-.47.756-.954 1.428-1.39 2.028a29.911 29.911 0 01-2.158 2.664 19.47 19.47 0 01-.623.651l-.225.215s.225-.354.615-1.034.915-1.69 1.534-3a56.867 56.867 0 001.984-4.801c.348-.938.674-1.947 1.009-3.011.16-.533.326-1.082.475-1.648.148-.566.305-1.14.457-1.731a65.785 65.785 0 001.395-7.712c.144-1.381.297-2.796.356-4.249 0-.363.042-.726.051-1.094.008-.367 0-.735.03-1.106.03-.748 0-1.47 0-2.213 0-.368 0-.778-.034-1.166v-1.133c-.026-.36-.034-.714-.08-1.077l-.056-.55-.08-.548c-.23-1.513-.55-3.01-.958-4.485a62.559 62.559 0 00-1.454-4.54 94.237 94.237 0 00-1.768-4.528 149.73 149.73 0 00-1.984-4.477 184.599 184.599 0 00-2.12-4.392 193.674 193.674 0 00-2.195-4.287c-.742-1.407-1.484-2.8-2.23-4.156-1.48-2.724-2.967-5.334-4.375-7.81-1.407-2.474-2.789-4.793-4.056-6.942l-3.51-5.863-2.713-4.506-2.374-3.94z" fill="url(#paint2_linear)"/><path d="M40.22 112.377l2.411-.625c1.582-.376 3.9-.958 6.893-1.516a125.7 125.7 0 0110.869-1.563 124.31 124.31 0 016.753-.456 99.082 99.082 0 017.515 0c2.62.097 5.35.266 8.16.583 2.811.317 5.71.773 8.665 1.364a98.715 98.715 0 018.991 2.247c.729.22 1.45.422 2.209.583l.618.156c.145.041.286.09.424.148.133.055.258.126.373.211a1.533 1.533 0 01.615.942c.015.07.025.14.03.211.005.092.005.183 0 .275a2.184 2.184 0 01-.272.878c-.15.27-.335.518-.551.739-.319.339-.666.65-1.038.929-.365.267-.725.503-1.094.727-.729.452-1.475.845-2.23 1.225a62.759 62.759 0 01-9.457 3.623 84.564 84.564 0 01-10.038 2.332 82.094 82.094 0 01-10.424 1.102 65.372 65.372 0 01-10.597-.397 54.795 54.795 0 01-10.42-2.247 43.765 43.765 0 01-2.513-.891c-.819-.321-1.62-.65-2.434-.992a30.844 30.844 0 01-2.428-1.141c-.403-.215-.806-.422-1.213-.705a8.61 8.61 0 01-1.212-.934 4.586 4.586 0 01-.598-.679 3.12 3.12 0 01-.492-1.031 2.756 2.756 0 01-.076-.684c0-.085 0-.072.021-.232v-.077c.022-.133.055-.264.098-.392a2.78 2.78 0 01.631-1.031c.41-.418.892-.759 1.425-1.005.436-.212.886-.394 1.348-.545a30.21 30.21 0 015.171-1.085 77.732 77.732 0 015.045-.503c1.653-.118 3.319-.198 4.955-.241 3.273-.084 6.486-.076 9.631 0 3.145.076 6.215.19 9.203.423 1.496.101 2.967.224 4.421.359a60.45 60.45 0 014.294.561c1.39.22 2.769.511 4.13.871.353.095.701.211 1.042.346.103.041.203.087.301.139.07.036.136.077.2.123.05.036.096.077.14.122a.849.849 0 01.215.334c.085.38.026.135.047.241a1.085 1.085 0 01-.161.642c-.09.141-.203.267-.335.371a2.814 2.814 0 01-.568.351c-.17.082-.344.155-.521.219-.34.127-.67.224-.997.313-1.256.317-2.53.559-3.815.726-1.25.178-2.467.309-3.658.423-2.374.207-4.633.312-6.757.359a96.344 96.344 0 01-10.97-.393 58.837 58.837 0 01-6.974-1.086 38.752 38.752 0 01-1.801-.447l-.615-.178.623.144c.424.089 1.018.215 1.819.355 2.312.377 4.645.618 6.986.722 3.63.18 7.27.157 10.898-.068a104.15 104.15 0 006.668-.591 73.259 73.259 0 003.574-.532 33.739 33.739 0 003.637-.819c.292-.093.589-.19.847-.3.136-.055.267-.114.386-.173.096-.047.186-.105.267-.174.026 0 .03-.033 0 0a.418.418 0 00-.046.119.52.52 0 000 .169c0 .063-.043-.22.03.118a.615.615 0 00.14.232c.025.03.046.038.046.042 0 .005 0 0 0 0a1.117 1.117 0 00-.157-.067 8.734 8.734 0 00-.882-.266 39.958 39.958 0 00-3.972-.748 63.322 63.322 0 00-4.188-.456c-1.42-.106-2.89-.152-4.37-.203-5.935-.19-12.196-.215-18.652.123-3.217.181-6.494.422-9.724.891a27.569 27.569 0 00-4.663 1.052 7.069 7.069 0 00-.996.422 2.462 2.462 0 00-.649.443c-.05.055-.047.076-.03.038a.486.486 0 000-.08v.009a.195.195 0 000-.06c.09.142.2.268.327.376a8.74 8.74 0 001.835 1.174c.708.364 1.463.706 2.234 1.031.772.325 1.577.65 2.345.946.767.296 1.568.57 2.37.824a52.311 52.311 0 009.872 2.082 74.277 74.277 0 0020.207-.646 83.69 83.69 0 009.72-2.197 59.612 59.612 0 009.067-3.319 25.117 25.117 0 002.039-1.077c.323-.19.636-.389.925-.591a5.65 5.65 0 00.741-.613 1.09 1.09 0 00.17-.207v.085a.85.85 0 000 .101.498.498 0 000 .122c0 .039-.025-.19 0 .068a.988.988 0 00.373.579.872.872 0 00.114.067l-.118-.042-.534-.139a47.121 47.121 0 01-2.34-.659 98.543 98.543 0 00-8.728-2.454 100.706 100.706 0 00-8.449-1.554 109.754 109.754 0 00-7.99-.845 117.013 117.013 0 00-7.406-.258c-2.357-.004-4.59.047-6.69.152-4.2.229-7.858.596-10.855.997-2.997.401-5.35.803-6.952 1.081l-2.455.452z" fill="url(#paint3_linear)"/><path d="M25.048 118.172l7.152 3.505a108.714 108.714 0 008.202 3.595c2.78 1.089 5.596 2.111 8.444 2.981 2.849.87 5.723 1.69 8.627 2.349 2.903.658 5.828 1.233 8.766 1.655 2.938.423 5.896.718 8.855.845.742.046 1.484.055 2.221.084.738.03 1.48.026 2.222 0 1.48 0 2.967-.055 4.43-.131a74.541 74.541 0 008.787-1.043 66.384 66.384 0 008.58-2.111 64.128 64.128 0 008.228-3.21 70.823 70.823 0 003.942-2.006c.636-.364 1.272-.71 1.903-1.094l.967-.592.466-.287.466-.295a47.824 47.824 0 007.003-5.271 19.722 19.722 0 002.773-3.176 8.677 8.677 0 001.504-3.582 5.47 5.47 0 00-.763-3.581 10.887 10.887 0 00-2.78-3.003 25.465 25.465 0 00-3.688-2.319 43.178 43.178 0 00-4.057-1.841 62.018 62.018 0 00-4.239-1.495 90.64 90.64 0 00-4.337-1.267 115.428 115.428 0 00-8.85-1.977c1.513.102 3.022.275 4.527.465a78.06 78.06 0 014.506.7c1.496.28 2.992.584 4.476.934a57.68 57.68 0 014.421 1.242 43.23 43.23 0 014.333 1.63 24.66 24.66 0 014.124 2.281 12.991 12.991 0 013.514 3.446 8.242 8.242 0 011.09 2.391 7.85 7.85 0 01.241 2.665c-.042.439-.113.875-.212 1.305-.103.42-.233.833-.39 1.237a12.953 12.953 0 01-1.131 2.247 22.453 22.453 0 01-3.031 3.759 40.259 40.259 0 01-3.51 3.146 59.57 59.57 0 01-3.743 2.762l-.479.326-.496.325-.95.616c-.644.423-1.331.82-1.996 1.225-1.344.773-2.701 1.529-4.095 2.213a68.044 68.044 0 01-8.61 3.552 69.264 69.264 0 01-9.025 2.332c-3.053.575-6.14.957-9.24 1.144a80.162 80.162 0 01-9.288.034 89.637 89.637 0 01-9.22-.955 102.399 102.399 0 01-9.059-1.833 114.508 114.508 0 01-8.847-2.605 111.655 111.655 0 01-8.588-3.312c-5.091-2.128-14.146-10.005-14.146-10.005z" fill="url(#paint4_linear)"/><path d="M101.804 87.244s.22 0 .627-.03c.407-.03 1.014-.034 1.777 0a57.275 57.275 0 0110.495 1.107 49.6 49.6 0 014.625 1.136 37.35 37.35 0 012.416.794c.424.14.81.304 1.221.456.411.152.814.338 1.221.524.81.363 1.628.764 2.425 1.216.812.467 1.598.979 2.352 1.533a16.31 16.31 0 012.154 1.98 9.851 9.851 0 011.695 2.565c.224.483.402.986.53 1.503.069.258.118.521.149.786l.051.397c0 .131 0 .261.021.392a8.212 8.212 0 01-.424 2.999 10.719 10.719 0 01-1.179 2.479c-.114.182-.233.363-.351.545l-.373.503c-.241.329-.5.645-.776.946a23.444 23.444 0 01-3.222 2.956c-.263.203-.53.389-.788.579-.259.19-.505.376-.763.532-.509.325-.975.654-1.442.921-.466.266-.89.527-1.271.747l-1.124.587c-.339.178-.648.325-.92.448l-.686.312-.573.254.454-.423 1.272-1.203.907-.845c.326-.312.674-.655 1.047-1.018a58.208 58.208 0 002.399-2.487c.424-.473.848-.946 1.251-1.474.106-.127.207-.258.313-.389l.301-.422c.2-.271.424-.545.585-.845.161-.3.382-.57.543-.87l.259-.448.22-.456c.161-.304.267-.621.398-.929.068-.152.098-.312.153-.469.055-.152.096-.309.123-.469a5.28 5.28 0 00.119-1.845 5.16 5.16 0 00-.53-1.74 9.633 9.633 0 00-2.823-3.104 26.132 26.132 0 00-4.053-2.45 59.736 59.736 0 00-2.179-1.014c-.733-.32-1.466-.612-2.191-.908a105.01 105.01 0 00-4.273-1.562c-1.374-.474-2.696-.9-3.917-1.267-2.442-.773-4.506-1.394-5.956-1.838l-2.289-.692z" fill="url(#paint5_linear)"/><path d="M101.825 76.39l.166-.03c.106 0 .267-.05.474-.076.424-.047 1.035-.152 1.81-.199.776-.046 1.726-.13 2.811-.139 1.085-.008 2.306 0 3.637.093.666.038 1.357.105 2.073.173.716.068 1.454.182 2.217.291 1.605.245 3.196.576 4.765.993a33.7 33.7 0 012.501.756c.424.14.847.3 1.271.448.424.147.848.342 1.272.528a24.934 24.934 0 015.066 2.863 17.95 17.95 0 012.352 2.184c.79.878 1.436 1.876 1.912 2.956.258.566.46 1.156.602 1.761.034.152.076.3.102.456l.063.47.055.464v.464a9.195 9.195 0 01-.534 3.46 6.331 6.331 0 01-.292.751c-.11.24-.208.49-.327.714-.221.44-.473.863-.754 1.267l-.399.583-.423.532c-.14.173-.272.355-.424.51l-.424.47a22.33 22.33 0 01-3.51 2.956c-.284.194-.572.368-.848.545-.276.177-.543.355-.818.498l-.793.423c-.254.143-.504.283-.754.397-.496.236-.946.473-1.387.654l-1.203.499c-.178.071-.348.147-.513.207l-.467.16-.733.249c-.195.068-.356.11-.458.144l-.161.046-.208-.316.509-.351c.327-.232.822-.553 1.429-.997l1-.735 1.153-.891c.818-.65 1.696-1.41 2.658-2.272a25.085 25.085 0 002.785-3.011c.22-.287.445-.579.644-.896l.31-.464.275-.49c.186-.332.355-.673.505-1.022.085-.173.135-.36.203-.537.072-.178.131-.362.178-.549a6.355 6.355 0 00-.369-4.586 8.12 8.12 0 00-1.39-2.006 13.965 13.965 0 00-1.857-1.69 23.596 23.596 0 00-2.119-1.402 29.564 29.564 0 00-2.234-1.174 44.704 44.704 0 00-4.57-1.858 78.295 78.295 0 00-8.452-2.361c-2.514-.554-4.621-.963-6.105-1.208-1.483-.245-2.331-.355-2.331-.355l.059-.35z" fill="url(#paint6_linear)"/><path d="M80.19 62.46s.093.207.241.604.373.972.598 1.72c.224.747.525 1.66.784 2.715.136.528.275 1.094.424 1.69.148.595.263 1.224.394 1.883.25 1.322.48 2.762.649 4.3.17 1.537.288 3.171.313 4.878 0 .844-.014 1.716-.042 2.614 0 .443-.047.891-.08 1.343-.035.452-.09.908-.14 1.364a26.41 26.41 0 01-1.272 5.596 17.55 17.55 0 01-1.302 2.805 11.339 11.339 0 01-2.09 2.597l-.322.291-.347.27a5.49 5.49 0 01-.734.503 8.62 8.62 0 01-1.606.769c-.284.089-.564.186-.848.253l-.848.17a9.438 9.438 0 01-1.644.067h-.399c-.131 0-.258-.03-.386-.042-.254-.034-.508-.064-.754-.106a10.912 10.912 0 01-1.4-.355l-.66-.215c-.212-.076-.424-.165-.62-.245-.194-.08-.423-.165-.605-.258l-.569-.283a23.295 23.295 0 01-3.836-2.496 16.775 16.775 0 01-.78-.65c-.254-.228-.5-.422-.72-.634a61.99 61.99 0 01-1.272-1.229 20.67 20.67 0 01-1.064-1.115l-.848-.988a11.233 11.233 0 01-.661-.815l-.475-.612c-.254-.338-.386-.524-.386-.524l.195-.216.483.423c.314.262.764.663 1.365 1.14l.988.794 1.191.9a44.277 44.277 0 002.968 2.019 25.712 25.712 0 003.734 1.942l.522.212c.178.071.36.122.538.185l.547.178.564.139c.373.11.763.148 1.153.224.195.021.394.03.593.046h.594a6.232 6.232 0 004.412-1.77 9.118 9.118 0 001.535-1.997c.417-.75.77-1.535 1.055-2.344a26.791 26.791 0 001.209-5.026 50.28 50.28 0 00.457-5.013c.11-2.983.056-5.969-.16-8.945a119.877 119.877 0 00-.59-6.314c-.19-1.52-.322-2.382-.322-2.382l.275-.06z" fill="url(#paint7_linear)"/><path d="M78.995 58.3s.088.207.237.6c.148.393.373.976.602 1.723.229.748.525 1.656.784 2.716.131.528.276 1.09.424 1.69.148.599.263 1.228.394 1.887.25 1.318.475 2.758.644 4.3.17 1.541.289 3.171.314 4.878 0 .844 0 1.727-.042 2.614 0 .422-.047.891-.077 1.343-.03.452-.093.904-.144 1.36a26.097 26.097 0 01-1.271 5.6c-.356.97-.791 1.907-1.302 2.805a11.521 11.521 0 01-2.09 2.597l-.322.291-.352.27a5.79 5.79 0 01-.729.503c-.51.31-1.049.565-1.61.765-.28.088-.56.19-.848.257-.289.068-.564.115-.848.165a9.48 9.48 0 01-1.645.072h-.424c-.127 0-.254-.025-.381-.042-.255-.034-.509-.064-.755-.102-.474-.09-.942-.21-1.403-.354l-.657-.216a17.57 17.57 0 01-.623-.249c-.2-.084-.424-.16-.606-.253l-.568-.288a23.191 23.191 0 01-3.837-2.491 14.681 14.681 0 01-.775-.65c-.25-.229-.505-.423-.725-.639-.45-.422-.886-.844-1.272-1.224s-.755-.756-1.068-1.115c-.314-.36-.594-.693-.848-.989-.254-.295-.479-.57-.665-.815l-.475-.616c-.255-.334-.382-.52-.382-.52l.195-.22.48.423c.317.262.762.663 1.364 1.14l.992.794 1.191.9a45.922 45.922 0 002.968 2.019 26.576 26.576 0 003.734 1.942l.526.211c.174.068.356.123.538.182.182.06.36.123.547.178l.56.143c.381.093.767.166 1.157.22.195.02.39.033.589.05l.297.022h.3a6.192 6.192 0 004.41-1.77 9.011 9.011 0 001.538-1.993c.415-.753.767-1.538 1.051-2.349.567-1.63.971-3.312 1.208-5.021.239-1.663.391-3.336.458-5.014a81.64 81.64 0 00-.157-8.945c-.186-2.618-.424-4.793-.589-6.335-.165-1.542-.326-2.382-.326-2.382l.314-.068z" fill="url(#paint8_linear)"/><path d="M60.707 35.578s-.517.714-1.352 1.977c-.424.63-.911 1.402-1.454 2.297-.276.423-.555.925-.848 1.44-.292.516-.602 1.035-.89 1.605-.288.57-.615 1.15-.903 1.774-.288.625-.627 1.242-.916 1.914-.288.671-.61 1.338-.873 2.052s-.593 1.42-.848 2.171c-.55 1.478-1.026 3.032-1.47 4.62-.2.799-.425 1.605-.607 2.412-.182.807-.326 1.639-.487 2.458-.259 1.651-.522 3.307-.636 4.954-.115 1.647-.22 3.307-.242 4.845a59.075 59.075 0 00.136 4.552 61.6 61.6 0 00.424 4.089c.165 1.267.36 2.428.55 3.454.192 1.027.374 1.93.543 2.67l.535 2.331-.314-.55c-.19-.358-.492-.882-.822-1.574a37.445 37.445 0 01-2.264-5.934 40.297 40.297 0 01-.992-4.169 44.552 44.552 0 01-.602-4.764c-.047-.845-.097-1.727-.093-2.534V66.38c0-.486.05-.874.072-1.31.088-1.784.28-3.562.576-5.325.187-.873.37-1.746.551-2.619.212-.844.48-1.69.717-2.56a41.712 41.712 0 011.823-4.818c.322-.769.699-1.5 1.076-2.209a47.45 47.45 0 011.149-2.048c.39-.655.767-1.293 1.178-1.884.412-.591.802-1.157 1.2-1.69.399-.532.776-1.043 1.17-1.499.394-.456.759-.9 1.123-1.292a28.568 28.568 0 011.946-1.98c.584-.558 1.2-1.081 1.844-1.568z" fill="url(#paint9_linear)"/><path d="M66.044 39.531l-.916 1.462c-.288.46-.614 1.035-.992 1.69a64.782 64.782 0 00-1.19 2.204c-.425.806-.849 1.69-1.273 2.648-.22.469-.423.954-.631 1.457-.208.503-.424 1.01-.615 1.537-.424 1.043-.78 2.146-1.132 3.265a62.588 62.588 0 00-.95 3.425 41.996 41.996 0 00-.707 3.489l-.153.845-.135.895c-.085.595-.144 1.123-.216 1.69-.259 2.233-.365 4.35-.424 6.178v2.509c0 .747.03 1.415.042 1.955l.05 1.728a16.75 16.75 0 01-.673-1.605 26.773 26.773 0 01-1.238-4.426 26.925 26.925 0 01-.424-3.058 33.564 33.564 0 01-.135-3.455c0-.596.033-1.246.076-1.841l.068-.9.123-.959c.093-.625.144-1.267.28-1.888l.39-1.892c.31-1.243.685-2.47 1.123-3.674.195-.6.453-1.174.7-1.749.23-.566.49-1.12.78-1.66.266-.54.533-1.068.847-1.562.314-.494.572-.993.89-1.449a27.17 27.17 0 011.836-2.496c.968-1.2 2.05-2.304 3.23-3.298.432-.384.89-.74 1.369-1.065z" fill="url(#paint10_linear)"/></g><defs><linearGradient id="paint0_linear" x1="-.602" y1="57.018" x2="116.408" y2="57.018" gradientUnits="userSpaceOnUse"><stop stop-color="#FBB040"/><stop offset=".2" stop-color="#FAAB3F"/><stop offset=".42" stop-color="#F99D3B"/><stop offset=".66" stop-color="#F68635"/><stop offset=".91" stop-color="#F2662C"/><stop offset="1" stop-color="#F15A29"/></linearGradient><linearGradient id="paint1_linear" x1="36.299" y1="64.057" x2="76.866" y2="64.057" gradientUnits="userSpaceOnUse"><stop stop-color="#00889C"/><stop offset=".3" stop-color="#018499"/><stop offset=".6" stop-color="#037890"/><stop offset=".91" stop-color="#076381"/><stop offset="1" stop-color="#085C7C"/></linearGradient><linearGradient id="paint2_linear" x1="56.557" y1="54.474" x2="92.589" y2="54.474" gradientUnits="userSpaceOnUse"><stop stop-color="#00889C"/><stop offset=".03" stop-color="#018398"/><stop offset=".15" stop-color="#04718B"/><stop offset=".3" stop-color="#066583"/><stop offset=".5" stop-color="#085E7D"/><stop offset="1" stop-color="#085C7C"/></linearGradient><linearGradient id="paint3_linear" x1="9090.9" y1="6541.78" x2="19756.3" y2="6541.78" gradientUnits="userSpaceOnUse"><stop stop-color="#00889C"/><stop offset=".3" stop-color="#018499"/><stop offset=".6" stop-color="#037890"/><stop offset=".91" stop-color="#076381"/><stop offset="1" stop-color="#085C7C"/></linearGradient><linearGradient id="paint4_linear" x1="24.099" y1="115.95" x2="131.77" y2="115.95" gradientUnits="userSpaceOnUse"><stop offset=".01" stop-color="#A7DCDE"/><stop offset="1" stop-color="#008CC1"/></linearGradient><linearGradient id="paint5_linear" x1="9185" y1="9224.13" x2="11593" y2="9224.13" gradientUnits="userSpaceOnUse"><stop offset=".01" stop-color="#A7DCDE"/><stop offset="1" stop-color="#008CC1"/></linearGradient><linearGradient id="paint6_linear" x1="9598.97" y1="8674.91" x2="12116.7" y2="8674.91" gradientUnits="userSpaceOnUse"><stop offset=".01" stop-color="#A7DCDE"/><stop offset="1" stop-color="#008CC1"/></linearGradient><linearGradient id="paint7_linear" x1="4822.22" y1="9634.54" x2="6507.09" y2="9634.54" gradientUnits="userSpaceOnUse"><stop stop-color="#00889C"/><stop offset=".3" stop-color="#018499"/><stop offset=".6" stop-color="#037890"/><stop offset=".91" stop-color="#076381"/><stop offset="1" stop-color="#085C7C"/></linearGradient><linearGradient id="paint8_linear" x1="4751.62" y1="9271.85" x2="6438.36" y2="9271.85" gradientUnits="userSpaceOnUse"><stop stop-color="#00889C"/><stop offset=".3" stop-color="#018499"/><stop offset=".6" stop-color="#037890"/><stop offset=".91" stop-color="#076381"/><stop offset="1" stop-color="#085C7C"/></linearGradient><linearGradient id="paint9_linear" x1="2735.36" y1="11343.3" x2="2284.14" y2="11309.6" gradientUnits="userSpaceOnUse"><stop stop-color="#00889C"/><stop offset=".3" stop-color="#018499"/><stop offset=".6" stop-color="#037890"/><stop offset=".91" stop-color="#076381"/><stop offset="1" stop-color="#085C7C"/></linearGradient><linearGradient id="paint10_linear" x1="2426.6" y1="7975" x2="2045.59" y2="7914.89" gradientUnits="userSpaceOnUse"><stop stop-color="#00889C"/><stop offset=".3" stop-color="#018499"/><stop offset=".6" stop-color="#037890"/><stop offset=".91" stop-color="#076381"/><stop offset="1" stop-color="#085C7C"/></linearGradient><clipPath id="clip0"><path fill="#fff" d="M0 0h135v137H0z"/></clipPath></defs></svg>