<svg width="56" height="56" fill="none" xmlns="http://www.w3.org/2000/svg"><g clip-path="url(#clip0)"><path d="M55.978 28.49C55.978 13.33 43.645.998 28.487.998 13.328.998.995 13.33.995 28.49c0 8.006 3.443 15.223 8.923 20.252l-.026.023.892.751c.058.05.12.09.179.137.474.393.965.766 1.465 1.127.161.117.323.234.488.348a28.022 28.022 0 003.89 2.24l.141.063a27.246 27.246 0 006.65 2.105l.183.033a27.45 27.45 0 002.196.291l.271.022c.738.06 1.484.1 2.24.1.748 0 1.487-.04 2.221-.099.093-.008.186-.013.279-.02a27.84 27.84 0 002.177-.287l.187-.034a27.246 27.246 0 006.555-2.055c.076-.035.153-.068.23-.104a27.649 27.649 0 002.248-1.188 27.463 27.463 0 001.581-1c.185-.126.366-.259.549-.391.439-.316.87-.642 1.288-.983.093-.075.193-.14.284-.217l.915-.763-.027-.023c5.529-5.03 9.005-12.28 9.005-20.328zm-52.984 0c0-14.057 11.436-25.493 25.493-25.493 14.057 0 25.492 11.436 25.492 25.493 0 7.574-3.324 14.384-8.586 19.057a7.49 7.49 0 00-.893-.537l-8.465-4.232a2.216 2.216 0 01-1.231-1.992V37.83c.196-.242.403-.516.617-.817a20.37 20.37 0 002.615-5.121 3.628 3.628 0 002.084-3.288V25.06c0-.867-.318-1.708-.886-2.369v-4.665c.051-.519.235-3.447-1.883-5.862-1.842-2.104-4.825-3.168-8.864-3.168-4.04 0-7.022 1.064-8.865 3.167-2.118 2.415-1.934 5.343-1.882 5.862v4.665a3.643 3.643 0 00-.887 2.369v3.544c0 1.1.494 2.127 1.34 2.82.81 3.172 2.476 5.573 3.092 6.387v2.893a2.23 2.23 0 01-1.162 1.957l-7.905 4.312a7.22 7.22 0 00-.751.476c-5.198-4.67-8.473-11.439-8.473-18.958zm40.447 20.625c-.35.254-.706.5-1.067.735-.165.108-.33.216-.5.321-.471.292-.951.57-1.44.83-.109.057-.218.11-.327.167a25.479 25.479 0 01-3.487 1.476l-.127.042a25.56 25.56 0 01-1.903.552l-.006.001a25.59 25.59 0 01-1.964.402l-.053.01c-.621.101-1.247.174-1.875.23-.111.01-.222.016-.334.024a24.78 24.78 0 01-1.871.077 25.42 25.42 0 01-1.895-.078c-.109-.008-.218-.015-.326-.025a25.9 25.9 0 01-1.89-.233l-.083-.015a25.401 25.401 0 01-3.889-.97 25.89 25.89 0 01-1.98-.753l-.012-.006a26.08 26.08 0 01-1.705-.816c-.073-.038-.147-.074-.219-.113a25.743 25.743 0 01-1.938-1.155 25.443 25.443 0 01-1.338-.932l-.133-.104.096-.054 7.905-4.312a4.227 4.227 0 002.204-3.713v-3.6l-.23-.279c-.023-.025-2.184-2.654-3-6.214l-.092-.396-.34-.22a1.657 1.657 0 01-.77-1.392v-3.544c0-.465.197-.898.557-1.223l.33-.298V17.97l-.009-.131c-.003-.024-.298-2.428 1.396-4.359 1.445-1.647 3.923-2.484 7.36-2.484 3.426 0 5.895.83 7.345 2.465 1.691 1.91 1.414 4.36 1.412 4.38l-.009 5.7.33.297c.359.324.557.758.557 1.223v3.544a1.67 1.67 0 01-1.18 1.574l-.498.153-.16.495a18.495 18.495 0 01-2.495 5.03c-.262.37-.517.698-.736.95l-.248.282v3.698c0 1.611.896 3.061 2.338 3.78l8.464 4.233.16.083c-.107.08-.217.156-.325.233z" fill="#000"/></g><defs><clipPath id="clip0"><path fill="#fff" transform="translate(.995 .998)" d="M0 0h54.983v54.983H0z"/></clipPath></defs></svg>