<svg width="52" height="53" viewBox="0 0 52 53" fill="none" xmlns="http://www.w3.org/2000/svg">
<path d="M26 0.968292C11.664 0.968292 3.05176e-05 12.6278 3.05176e-05 26.9605C3.05176e-05 41.2932 11.664 52.9527 26 52.9527C40.336 52.9527 52 41.2932 52 26.9605C52 12.6278 40.336 0.968292 26 0.968292ZM26 50.9533C12.767 50.9533 2.00003 40.1896 2.00003 26.9605C2.00003 13.7315 12.767 2.96769 26 2.96769C39.233 2.96769 50 13.7315 50 26.9605C50 40.1896 39.233 50.9533 26 50.9533Z" fill="black"/>
<path d="M26 10.9653C25.448 10.9653 25 11.4122 25 11.965V33.9584C25 34.5113 25.448 34.9581 26 34.9581C26.552 34.9581 27 34.5113 27 33.9584V11.965C27 11.4122 26.552 10.9653 26 10.9653Z" fill="black"/>
<path d="M26 37.9572C25.448 37.9572 25 38.4041 25 38.9569V40.9563C25 41.5092 25.448 41.956 26 41.956C26.552 41.956 27 41.5092 27 40.9563V38.9569C27 38.4041 26.552 37.9572 26 37.9572Z" fill="black"/>
</svg>
