<svg width="50" height="54" fill="none" xmlns="http://www.w3.org/2000/svg"><path d="M49.727 51.566L35.159 36.189a20.989 20.989 0 006.018-14.747C41.177 9.919 31.94.545 20.588.545 9.235.545 0 9.919 0 21.442c0 11.523 9.235 20.897 20.588 20.897 4.984 0 9.557-1.808 13.122-4.809l14.603 15.415a.966.966 0 001.386.028c.39-.381.402-1.011.028-1.407zM20.588 40.348c-10.271 0-18.627-8.48-18.627-18.906 0-10.426 8.356-18.907 18.627-18.907 10.272 0 18.628 8.481 18.628 18.907 0 10.425-8.357 18.906-18.628 18.906z" fill="#000"/></svg>