<svg width="20" height="20" fill="none" xmlns="http://www.w3.org/2000/svg"><g clip-path="url(#clip0)"><path d="M19.971 7.705a.586.586 0 00-.473-.398l-6.2-.901L10.526.787a.586.586 0 00-1.051 0L6.702 6.406l-6.2.9a.586.586 0 00-.325 1l4.486 4.373-1.059 6.175a.586.586 0 00.85.618L10 16.557l5.545 2.915a.587.587 0 00.85-.618l-1.059-6.175 4.487-4.373a.586.586 0 00.148-.6zm-5.673 4.35a.586.586 0 00-.169.519l.91 5.308-4.766-2.506a.586.586 0 00-.546 0L4.96 17.882l.91-5.308a.586.586 0 00-.168-.519l-3.857-3.76 5.33-.774a.586.586 0 00.441-.32L10 2.37l2.384 4.83c.085.172.25.292.441.32l5.33.775-3.857 3.76z" fill="#000"/></g><defs><clipPath id="clip0"><path fill="#fff" d="M0 0h20v20H0z"/></clipPath></defs></svg>