<svg width="20" height="20" viewBox="0 0 20 20" fill="none" xmlns="http://www.w3.org/2000/svg">
<path d="M6.12651 11.7409H17.9143L20 4.29599H16.9306L15.8285 0.891901L11.2327 2.38171L11.8612 4.29599H11.6449L10.5102 0.891901L5.91427 2.38171L6.54283 4.29599H4.08569L3.5755 2.25517C3.31835 1.23476 2.42856 0.512329 1.40407 0.512329H0V1.36538H1.40407C2.04079 1.36538 2.59589 1.78986 2.76733 2.4307L5.02448 11.2633C4.55917 11.598 4.25306 12.145 4.25306 12.7695C4.25306 13.7899 5.1061 14.6429 6.12651 14.6429H17.6163V13.7899H6.12651C5.57141 13.7899 5.1061 13.3205 5.1061 12.7695C5.10614 12.2103 5.5755 11.7409 6.12651 11.7409ZM15.2775 1.95314L16.0449 4.25112H12.7265L12.2571 2.93276L15.2775 1.95314ZM9.95917 1.95314L10.7265 4.25112H7.40816L6.93877 2.93276L9.95917 1.95314ZM18.8939 5.10416L17.2775 10.8919H5.78774L4.29793 5.1042L18.8939 5.10416Z" fill="black"/>
<path d="M13.8732 15.9122C12.8936 15.9122 12.0854 16.7204 12.0854 17.7C12.0854 18.6796 12.8936 19.4877 13.8732 19.4877C14.8936 19.4877 15.661 18.6796 15.661 17.7C15.661 16.7204 14.8528 15.9122 13.8732 15.9122ZM13.8732 18.6796C13.3181 18.6796 12.8936 18.2102 12.8936 17.7C12.8936 17.1449 13.363 16.7204 13.8732 16.7204C14.4283 16.7204 14.8528 17.1449 14.8528 17.7C14.8528 18.2551 14.3834 18.6796 13.8732 18.6796Z" fill="black"/>
<path d="M7.31851 15.9122C6.33893 15.9122 5.53076 16.7204 5.53076 17.7C5.53076 18.6796 6.33893 19.4877 7.31851 19.4877C8.29809 19.4877 9.10626 18.6796 9.10626 17.7C9.10626 16.7204 8.29809 15.9122 7.31851 15.9122ZM7.31851 18.6796C6.76341 18.6796 6.33893 18.2102 6.33893 17.7C6.33893 17.1449 6.80832 16.7204 7.31851 16.7204C7.8287 16.7204 8.29809 17.1449 8.29809 17.7C8.29809 18.2551 7.8287 18.6796 7.31851 18.6796Z" fill="black"/>
</svg>
