<svg width="80" height="70" fill="none" xmlns="http://www.w3.org/2000/svg"><g opacity=".9"><path opacity=".9" fill-rule="evenodd" clip-rule="evenodd" d="M35.498 33.007H54.45v32.547H35.498V33.007z" fill="#FF5F00"/><path opacity=".9" fill-rule="evenodd" clip-rule="evenodd" d="M36.74 49.282c0-6.6 3.227-12.483 8.24-16.274a22.194 22.194 0 00-13.321-4.444c-11.949 0-21.63 9.28-21.63 20.718C10.028 60.72 19.71 70 31.658 70c5.08 0 9.682-1.7 13.32-4.444-5.012-3.79-8.24-9.673-8.24-16.274z" fill="#EB001B"/><path opacity=".9" fill-rule="evenodd" clip-rule="evenodd" d="M80 49.282C80 60.72 70.318 70 58.37 70a22.04 22.04 0 01-13.322-4.444c5.013-3.79 8.24-9.673 8.24-16.274 0-6.6-3.227-12.483-8.308-16.274 3.708-2.745 8.377-4.444 13.39-4.444 11.948 0 21.63 9.28 21.63 20.718z" fill="#F79E1B"/><path opacity=".9" d="M39.484.392l-5.356 23.724h-6.455L33.098.392h6.386zm27.192 15.293l3.364-8.888 1.923 8.954h-5.287v-.066zm7.21 8.431h5.974L74.641.392h-5.493c-1.236 0-2.266.654-2.747 1.765l-9.682 21.96h6.798l1.305-3.53h8.24l.824 3.53zM57.062 16.34c.07-6.274-9.132-6.6-9.064-9.411 0-.85.824-1.765 2.747-1.96.961-.132 3.502-.197 6.386 1.045l1.099-4.967C56.65.457 54.66 0 52.187 0c-6.386 0-10.85 3.202-10.918 7.843-.069 3.398 3.227 5.359 5.63 6.47 2.473 1.176 3.365 1.96 3.365 2.941 0 1.634-2.06 2.287-3.845 2.353-3.227.065-5.15-.85-6.66-1.503l-1.168 5.228c1.51.654 4.257 1.242 7.141 1.242 6.867-.065 11.262-3.268 11.33-8.235zM30.351.392L19.845 24.116h-6.798L7.828 5.163c-.275-1.176-.55-1.568-1.442-2.091C4.806 2.287 2.266 1.503 0 1.046L.137.392h10.987c1.442 0 2.61.915 2.953 2.418l2.746 13.725L23.553.392h6.798z" fill="#2A2A6C"/></g></svg>