<svg width="80" height="70" fill="none" xmlns="http://www.w3.org/2000/svg"><path d="M80 55c0 2.285-2.117 4.138-4.729 4.138H4.73c-2.613 0-4.73-1.853-4.73-4.14V15c0-2.285 2.117-4.138 4.729-4.138H75.27c2.613 0 4.73 1.853 4.73 4.138v40z" fill="#E7E8E3"/><path opacity=".15" d="M3.362 55V15c0-2.285 2.118-4.138 4.73-4.138H4.728C2.117 10.862 0 12.715 0 15v40c0 2.285 2.117 4.138 4.729 4.138H8.09c-2.611 0-4.729-1.853-4.729-4.139z" fill="#202121"/><path d="M35.112 29.968c0-3.621 1.906-6.851 4.888-8.967-2.266-1.607-5.153-2.572-8.298-2.572-7.283 0-13.186 5.166-13.186 11.539 0 6.372 5.903 11.537 13.186 11.537 3.145 0 6.032-.964 8.298-2.571-2.982-2.116-4.888-5.346-4.888-8.966z" fill="#EA001B"/><path d="M48.298 18.43c-3.144 0-6.032.963-8.298 2.571 2.982 2.115 4.888 5.346 4.888 8.966 0 3.62-1.906 6.85-4.888 8.967 2.266 1.607 5.154 2.57 8.298 2.57 7.283 0 13.186-5.165 13.186-11.537 0-6.372-5.903-11.538-13.186-11.538z" fill="#0099DF"/><path d="M44.888 29.968c0-3.621-1.906-6.851-4.888-8.967-2.982 2.116-4.888 5.346-4.888 8.966 0 3.62 1.906 6.851 4.888 8.967 2.982-2.116 4.888-5.346 4.888-8.966z" fill="#6C6BBD"/><path d="M19.704 46.57c-.99 0-1.938.46-2.56 1.236-.644-.787-1.57-1.236-2.559-1.236-.592 0-1.247.238-1.81.657l-.268-.435a.09.09 0 00-.077-.04h-1.633c-.048 0-.087.034-.087.077v6.563c0 .042.039.076.087.076h2.02c.048 0 .087-.034.087-.076v-3.767c.225-.75.771-1.198 1.463-1.198.857 0 1.529.75 1.529 1.706v3.259c0 .042.039.076.087.076h1.886c.048 0 .087-.034.087-.076v-3.363c.032-.77.619-1.602 1.513-1.602.857 0 1.529.75 1.529 1.706v3.259c0 .042.039.076.087.076h1.886c.048 0 .087-.034.087-.076v-3.259c0-1.965-1.504-3.563-3.354-3.563zm12.543.183H30.63c-.04 0-.076.024-.085.058l-.136.504a4.214 4.214 0 00-2.44-.76c-2.174 0-3.943 1.592-3.943 3.548s1.77 3.548 3.943 3.548c.876 0 1.723-.26 2.405-.736v.477c0 .042.04.076.087.076h1.785c.048 0 .087-.034.087-.076V46.83c0-.042-.04-.076-.087-.076zm-4.008 5.055c-.482 0-.926-.17-1.281-.492-.345-.34-.534-.772-.534-1.213 0-.45.194-.892.531-1.211a1.888 1.888 0 011.285-.495c.48 0 .93.175 1.267.495.343.31.531.74.531 1.21 0 .464-.184.884-.532 1.213a1.83 1.83 0 01-1.267.493zm9.128-5.284c-2.174 0-3.943 1.599-3.943 3.563 0 1.965 1.769 3.564 3.943 3.564 1.161 0 2.248-.454 2.98-1.247a.07.07 0 00.019-.059.075.075 0 00-.037-.051l-1.583-.96a.097.097 0 00-.112.01 1.79 1.79 0 01-1.183.464 1.72 1.72 0 01-1.232-.507 1.77 1.77 0 01-.359-.513h5.295c.041 0 .077-.025.085-.06.048-.202.069-.4.069-.64 0-1.965-1.768-3.564-3.942-3.564zm-1.545 2.954c.1-.236.236-.45.396-.618a1.76 1.76 0 011.233-.493c.457 0 .9.18 1.215.492.177.173.315.386.402.62h-3.246zm10.176-.056c-.165-.051-.329-.095-.484-.138-.68-.184-1.062-.304-1.008-.618.045-.308.265-.47.635-.47.44 0 1.044.233 1.702.658a.1.1 0 00.069.014.087.087 0 00.057-.035l.977-1.385c.025-.036.012-.083-.028-.105-.978-.534-1.668-.788-2.942-.788-1.518 0-2.663.89-2.663 2.07 0 1.336 1.062 1.74 2.45 2.129.605.17 1.001.313 1.001.719 0 .307-.263.49-.704.49-.456 0-1.206-.225-1.82-.86a.093.093 0 00-.063-.026.112.112 0 00-.066.023l-1.347 1.234a.07.07 0 000 .105c.864.781 2.112 1.211 3.515 1.211 1.472 0 2.764-.996 2.764-2.132 0-.985-.747-1.75-2.045-2.096zm8.288-2.669H52.69v-2.36c0-.043-.04-.077-.088-.077h-2.138c-.048 0-.087.034-.087.076v2.36h-1.429c-.047 0-.087.035-.087.077v1.782c0 .042.04.076.087.076h1.43v4.705c0 .042.038.076.086.076h2.138c.049 0 .088-.034.088-.076v-4.705h1.596c.048 0 .087-.034.087-.076v-1.782c0-.042-.038-.076-.087-.076zm6.966.019a4.252 4.252 0 00-1.258-.187c-1.033 0-1.907.303-2.43.835l-.25-.617a.087.087 0 00-.082-.05h-1.633c-.048 0-.087.034-.087.076v6.563c0 .042.039.076.087.076h2.104c.049 0 .087-.034.087-.076v-3.61c.16-.773.908-1.334 1.777-1.334.268 0 .535.052.795.155a.098.098 0 00.067.002.083.083 0 00.05-.041l.824-1.69a.068.068 0 000-.06.085.085 0 00-.05-.042zm4.399-.217c-2.257 0-4.094 1.592-4.094 3.548s1.837 3.548 4.094 3.548c2.306 0 4.111-1.559 4.111-3.548 0-1.956-1.844-3.548-4.111-3.548zm.017 5.269c-.48 0-.934-.18-1.25-.495a1.593 1.593 0 01-.549-1.226c0-.475.194-.905.552-1.215.31-.322.764-.506 1.247-.506.494 0 .926.171 1.283.509.333.315.516.74.516 1.197 0 .472-.184.913-.514 1.241a1.863 1.863 0 01-1.285.495z" fill="#34495E"/></svg>