<svg width="80" height="70" fill="none" xmlns="http://www.w3.org/2000/svg"><g clip-path="url(#clip0)"><path d="M80 35c0 11.556-10.667 21-24 21-13.206 0-24-9.444-24-21s10.667-21 23.873-21C69.333 14 80 23.444 80 35z" fill="#FFB600"/><path d="M56 14c13.206 0 24 9.444 24 21S69.333 56 56 56c-13.206 0-24-9.444-24-21" fill="#F7981D"/><path d="M55.999 14c13.206 0 24 9.444 24 21s-10.667 21-24 21" fill="#FF8500"/><path d="M23.746 14C10.666 14.11 0 23.444 0 35s10.667 21 24 21c6.222 0 11.81-2.111 16.127-5.444.889-.667 1.65-1.445 2.413-2.223h-4.953a26.181 26.181 0 01-1.778-2.11h8.509A13.818 13.818 0 0045.714 44H34.413c-.381-.667-.762-1.444-1.016-2.222h13.206c.762-2.111 1.27-4.334 1.27-6.667 0-1.555-.254-3-.508-4.444h-14.73c.127-.778.38-1.445.635-2.223h13.206c-.254-.777-.635-1.555-1.016-2.222H34.286c.38-.778.889-1.444 1.396-2.222h8.508a10.82 10.82 0 00-1.904-2.222h-4.699A20.516 20.516 0 0140 19.667c-4.19-3.445-9.905-5.445-16.127-5.445 0-.222 0-.222-.127-.222z" fill="#FF5050"/><path d="M0 35c0 11.556 10.667 21 24 21 6.222 0 11.81-2.111 16.127-5.444.889-.667 1.65-1.445 2.413-2.223h-4.953a26.146 26.146 0 01-1.778-2.11h8.509A13.813 13.813 0 0045.714 44H34.413c-.381-.667-.762-1.444-1.016-2.222h13.206c.762-2.111 1.27-4.334 1.27-6.667 0-1.555-.254-3-.508-4.444h-14.73c.127-.778.38-1.445.635-2.223h13.206c-.254-.777-.635-1.555-1.016-2.222H34.286c.38-.777.889-1.444 1.396-2.222h8.508a10.817 10.817 0 00-1.904-2.222h-4.699A20.507 20.507 0 0140 19.667c-4.19-3.445-9.905-5.445-16.127-5.445h-.127" fill="#E52836"/><path d="M24 56c6.222 0 11.81-2.111 16.127-5.444.889-.667 1.65-1.445 2.413-2.223h-4.953a26.105 26.105 0 01-1.777-2.11h8.508A13.8 13.8 0 0045.714 44H34.413c-.381-.667-.762-1.444-1.016-2.222h13.206c.762-2.111 1.27-4.334 1.27-6.667 0-1.555-.254-3-.508-4.444h-14.73c.127-.778.38-1.445.635-2.223h13.206c-.254-.777-.635-1.555-1.016-2.222H34.286c.38-.777.889-1.444 1.397-2.222h8.508a10.814 10.814 0 00-1.905-2.222h-4.699A20.507 20.507 0 0140 19.667c-4.19-3.445-9.905-5.445-16.127-5.445h-.127" fill="#CB2026"/><path d="M32.508 40.333l.38-1.889c-.126 0-.38.112-.634.112-.89 0-1.016-.445-.89-.667L32.128 34h1.397l.38-2.111h-1.27l.255-1.333h-2.54s-1.524 7.333-1.524 8.222c0 1.333.89 1.889 2.032 1.889.762 0 1.397-.223 1.65-.334zm.889-3.555c0 3.111 2.412 3.889 4.444 3.889 1.905 0 2.667-.334 2.667-.334l.508-2.11s-1.397.555-2.667.555c-2.794 0-2.286-1.778-2.286-1.778h5.206s.382-1.444.382-2c0-1.444-.89-3.222-3.683-3.222-2.667-.222-4.572 2.222-4.572 5zm4.444-3.222c1.397 0 1.143 1.444 1.143 1.555H36.19c0-.11.254-1.555 1.65-1.555zm16.127 6.777l.508-2.444s-1.27.555-2.158.555c-1.778 0-2.54-1.222-2.54-2.555 0-2.667 1.524-4.111 3.302-4.111 1.27 0 2.285.666 2.285.666l.381-2.333s-1.524-.556-2.92-.556c-2.921 0-5.842 2.223-5.842 6.445 0 2.778 1.524 4.667 4.572 4.667 1.016 0 2.413-.334 2.413-.334zM18.54 31.555c-1.778 0-3.048.445-3.048.445l-.381 1.889s1.143-.445 2.793-.445c.89 0 1.651.111 1.651.778 0 .445-.127.556-.127.556h-1.143c-2.158 0-4.571.778-4.571 3.333 0 2 1.524 2.445 2.413 2.445 1.777 0 2.54-1 2.666-1l-.127.888h2.286l1.016-6.11c0-2.667-2.54-2.779-3.429-2.779zm.507 5c0 .334-.254 2.112-1.778 2.112-.761 0-1.015-.556-1.015-.89 0-.555.38-1.333 2.285-1.333.381.111.508.111.508.111zm5.333 4.001c.635 0 3.81.11 3.81-2.89 0-2.777-3.049-2.221-3.049-3.333 0-.555.509-.777 1.397-.777.381 0 1.778.11 1.778.11l.381-2s-.889-.221-2.413-.221c-1.904 0-3.81.666-3.81 2.888 0 2.556 3.175 2.334 3.175 3.334 0 .666-.888.777-1.523.777-1.143 0-2.286-.333-2.286-.333l-.381 2c.127.222.762.445 2.92.445zm50.667-10.778l-.508 3s-1.016-1.111-2.413-1.111c-2.286 0-4.317 2.444-4.317 5.333 0 1.778 1.016 3.667 3.174 3.667 1.524 0 2.413-.89 2.413-.89l-.127.779h2.54l1.904-10.667-2.666-.111zm-1.143 5.889c0 1.222-.635 2.777-2.032 2.777-.889 0-1.397-.666-1.397-1.777 0-1.778.89-2.89 2.032-2.89.889 0 1.397.556 1.397 1.89zM4.698 40.444l1.524-8 .254 8h1.777l3.302-8-1.397 8h2.667l2.032-10.666h-4.19l-2.54 6.555-.128-6.555H4.317L2.285 40.444h2.413zm39.365 0c.762-3.666.89-6.666 2.667-6.11.254-1.445.635-2 .889-2.556h-.508c-1.143 0-2.032 1.333-2.032 1.333l.254-1.222H42.92l-1.65 8.667h2.793v-.112zm15.746-8.889c-1.778 0-3.048.445-3.048.445l-.38 1.889s1.142-.445 2.793-.445c.889 0 1.65.111 1.65.778 0 .445-.126.556-.126.556h-1.143c-2.159 0-4.572.778-4.572 3.333 0 2 1.524 2.445 2.413 2.445 1.778 0 2.54-1 2.667-1l-.127.888h2.285l1.016-6.11c.127-2.667-2.54-2.779-3.428-2.779zm.635 5c0 .334-.254 2.112-1.778 2.112-.762 0-1.016-.556-1.016-.89 0-.555.381-1.333 2.286-1.333.38.111.38.111.508.111zm4.952 3.889c.762-3.666.89-6.666 2.667-6.11.254-1.445.635-2 .889-2.556h-.508c-1.143 0-2.032 1.333-2.032 1.333l.254-1.222h-2.413l-1.65 8.667h2.793v-.112z" fill="#fff"/><path d="M28.571 38.778c0 1.333.89 1.889 2.032 1.889.889 0 1.65-.223 1.905-.334l.38-1.889c-.126 0-.38.112-.634.112-.89 0-1.016-.445-.89-.667L32.128 34h1.397l.38-2.111h-1.27l.255-1.333m1.776 6.222c0 3.111 1.143 3.889 3.175 3.889 1.904 0 2.666-.334 2.666-.334l.508-2.11s-1.397.555-2.666.555c-2.794 0-2.286-1.778-2.286-1.778h5.206s.381-1.444.381-2c0-1.444-.889-3.222-3.682-3.222-2.667-.222-3.302 2.222-3.302 5zm3.175-3.222c1.396 0 1.65 1.444 1.65 1.555H36.19c0-.11.254-1.555 1.65-1.555zm16.127 6.777l.508-2.444s-1.27.555-2.159.555c-1.777 0-2.54-1.222-2.54-2.555 0-2.667 1.524-4.111 3.302-4.111 1.27 0 2.286.666 2.286.666l.381-2.333s-1.524-.556-2.92-.556c-2.921 0-4.572 2.223-4.572 6.445 0 2.778.254 4.667 3.302 4.667 1.015 0 2.412-.334 2.412-.334zM15.11 34s1.144-.444 2.794-.444c.89 0 1.651.11 1.651.777 0 .445-.127.556-.127.556h-1.143c-2.158 0-4.571.778-4.571 3.333 0 2 1.524 2.445 2.413 2.445 1.777 0 2.54-1 2.666-1l-.127.889h2.286l1.016-6.112c0-2.555-2.54-2.666-3.556-2.666L15.111 34zm5.207 2.556c0 .333-1.524 2.11-3.048 2.11-.761 0-1.015-.555-1.015-.888 0-.556.38-1.334 2.285-1.334.381.111 1.778.111 1.778.111zm1.27 3.777s.762.223 2.92.223c.635 0 3.81.11 3.81-2.89 0-2.777-3.047-2.221-3.047-3.333 0-.555.507-.777 1.396-.777.381 0 1.778.11 1.778.11l.381-2s-.889-.221-2.413-.221c-1.904 0-2.54.666-2.54 2.888 0 2.556 1.905 2.334 1.905 3.334 0 .666-.889.777-1.523.777m50.285-5.666s-1.016-1.111-2.413-1.111c-2.286 0-3.047 2.444-3.047 5.333 0 1.778-.254 3.667 1.904 3.667 1.524 0 2.413-.89 2.413-.89l-.127.779h2.54l1.904-10.667-3.174 2.889zm-.127 2.889c0 1.222-1.143 2.777-2.54 2.777-.889 0-1.397-.666-1.397-1.777 0-1.778.89-2.89 2.032-2.89.889 0 1.905.556 1.905 1.89zM4.698 40.444l1.524-8 .254 8h1.777l3.302-8-1.397 8h2.667l2.032-10.666h-3.175l-3.556 6.555L8 29.778H6.603L2.285 40.444h2.413zm36.697 0h2.667c.762-3.666.89-6.666 2.667-6.11.254-1.445.635-2 .889-2.556h-.508c-1.143 0-2.032 1.333-2.032 1.333l.254-1.222M56.38 34s1.143-.444 2.794-.444c.889 0 1.65.11 1.65.777 0 .445-.126.556-.126.556h-1.143c-2.159 0-4.572.778-4.572 3.333 0 2 1.524 2.445 2.413 2.445 1.778 0 2.54-1 2.667-1l-.127.889h2.285l1.016-6.112c0-2.555-2.54-2.666-3.555-2.666L56.38 34zm5.207 2.556c0 .333-1.524 2.11-3.048 2.11-.762 0-1.016-.555-1.016-.888 0-.556.381-1.334 2.286-1.334.508.111 1.778.111 1.778.111zm1.141 3.888h2.667c.762-3.666.89-6.666 2.667-6.11.254-1.445.635-2 .889-2.556h-.508c-1.143 0-2.032 1.333-2.032 1.333l.254-1.222" fill="#DCE5E5"/></g><defs><clipPath id="clip0"><path fill="#fff" d="M0 0h80v70H0z"/></clipPath></defs></svg>