<svg width="80" height="70" fill="none" xmlns="http://www.w3.org/2000/svg"><path d="M26.265 51.67l-1.862 5.647h-.319l-1.863-5.647c-.319-.955-1.319-1.613-2.462-1.613h-4.467V62.35h4.473v-7.265h.319l2.56 7.265h3.198l2.556-7.265h.318v7.265h4.473V50.057h-4.467c-1.138 0-2.138.658-2.457 1.613zm24.767 10.68h4.5v-3.635h4.528c2.368 0 4.385-1.171 5.165-2.818H51.032v6.453zm-7.974-10.995l-3.148 5.968h-.319v-7.265h-4.473V62.35h3.797c1 0 1.907-.51 2.324-1.297l3.15-5.963h.318v7.26h4.473V50.057h-3.797c-1 0-1.907.51-2.325 1.297z" fill="#006848"/><path fill-rule="evenodd" clip-rule="evenodd" d="M60.505 50.057c1.29 0 2.461.432 3.346 1.143.99.787 1.61 1.92 1.61 3.183 0 .26-.033.514-.082.764H57.07c-2.813 0-5.198-1.614-6-3.841-.011-.024-.017-.053-.028-.082-.022-.067-.038-.14-.06-.206a5.04 5.04 0 01-.16-.96h9.682z" fill="url(#paint0_linear)"/><path fill-rule="evenodd" clip-rule="evenodd" d="M33.864 25.77h11.787v18.612H33.864V25.77z" fill="#FF5F00"/><path fill-rule="evenodd" clip-rule="evenodd" d="M34.634 35.076c0-3.775 2.007-7.139 5.125-9.306-2.263-1.57-5.168-2.541-8.286-2.541-7.431 0-13.453 5.306-13.453 11.847 0 6.54 6.022 11.846 13.453 11.846 3.161 0 6.023-.971 8.286-2.54-3.118-2.168-5.125-5.532-5.125-9.306z" fill="#EB001B"/><path fill-rule="evenodd" clip-rule="evenodd" d="M61.541 35.076c0 6.54-6.022 11.846-13.454 11.846-3.16 0-6.022-.971-8.286-2.54 3.118-2.168 5.126-5.532 5.126-9.306 0-3.775-2.008-7.139-5.168-9.306a14.857 14.857 0 018.328-2.541c7.432 0 13.454 5.306 13.454 11.847z" fill="#F79E1B"/><path d="M36.342 7.121L33.01 20.687h-4.014L32.37 7.121h3.972zm16.913 8.745l2.093-5.082 1.196 5.12h-3.289v-.037zm4.485 4.821h3.716L58.21 7.121h-3.417c-.769 0-1.41.374-1.709 1.01l-6.022 12.556h4.229l.811-2.018h5.125l.513 2.018zM47.276 16.24c.042-3.587-5.68-3.774-5.638-5.381 0-.486.513-1.01 1.708-1.122.598-.074 2.179-.112 3.973.598l.683-2.84c-.983-.336-2.221-.598-3.759-.598-3.972 0-6.748 1.831-6.79 4.485-.043 1.943 2.007 3.064 3.502 3.7 1.537.672 2.092 1.12 2.092 1.681 0 .935-1.28 1.308-2.391 1.346-2.008.037-3.204-.486-4.143-.86l-.726 2.99c.94.374 2.648.71 4.441.71 4.272-.037 7.005-1.869 7.048-4.709zM30.66 7.121l-6.534 13.566h-4.229L16.652 9.85c-.17-.673-.341-.897-.897-1.196-.982-.449-2.562-.897-3.972-1.159l.086-.374h6.833c.897 0 1.623.524 1.837 1.383l1.708 7.848 4.186-9.23h4.228z" fill="#2A2A6C"/><defs><linearGradient id="paint0_linear" x1="65.461" y1="65.975" x2="50.912" y2="65.975" gradientUnits="userSpaceOnUse"><stop stop-color="#1E5CD8"/><stop offset="1" stop-color="#02AFFF"/></linearGradient></defs></svg>