<svg width="50" height="50" fill="none" xmlns="http://www.w3.org/2000/svg"><path fill-rule="evenodd" clip-rule="evenodd" d="M0 0h45.238v34.481H0V0z" fill="#00856E"/><path fill-rule="evenodd" clip-rule="evenodd" d="M4.762 6.896H50v34.482H4.762V6.896z" fill="#21D05B"/><path fill-rule="evenodd" clip-rule="evenodd" d="M43.9 36.003v5.755c0 1.771-3.295 3.208-7.36 3.208-4.064 0-7.358-1.437-7.358-3.208v-18.4H43.9v18.39-5.745z" fill="#FF9300"/><path fill-rule="evenodd" clip-rule="evenodd" d="M29.181 22.99c0 1.772 3.295 3.208 7.36 3.208 4.064 0 7.36-1.436 7.36-3.208 0-1.771-3.296-3.207-7.36-3.207-4.065 0-7.36 1.436-7.36 3.207z" fill="#FFD900"/><path fill-rule="evenodd" clip-rule="evenodd" d="M33.334 46.852v.01c0 1.733-3.198 3.138-7.143 3.138s-7.143-1.405-7.143-3.138V34.483h14.286v12.37z" fill="#FF9300"/><path fill-rule="evenodd" clip-rule="evenodd" d="M19.048 34.483c0 1.428 3.198 2.586 7.143 2.586s7.143-1.158 7.143-2.586-3.198-2.586-7.143-2.586-7.143 1.158-7.143 2.586z" fill="#FFD900"/></svg>