<svg width="73" height="73" fill="none" xmlns="http://www.w3.org/2000/svg"><path fill-rule="evenodd" clip-rule="evenodd" d="M31.089 17.131h24.297c12.864 0 18.01 5.55 17.152 13.753-1.144 13.513-10.863 20.992-23.726 20.992h-6.575c-1.715 0-2.858.965-3.43 3.62l-2.859 15.442c-.285.965-.857 1.689-1.715 1.689h-15.15c-1.43 0-2.001-.965-1.43-2.896l9.148-49.704c.286-1.93 1.715-2.896 4.288-2.896z" fill="#1F9CD8"/><path fill-rule="evenodd" clip-rule="evenodd" d="M15.936 0h24.298c6.86 0 14.864.241 20.296 4.102 3.716 2.654 5.431 6.997 5.145 11.581-1.43 15.684-12.578 24.37-27.442 24.37H26.227c-2 0-3.43 1.207-4.002 4.102l-3.43 17.855c-.286 1.207-.858 1.93-2.001 1.93H1.93c-1.716 0-2.287-.965-1.716-3.377L11.077 3.378C11.363 1.206 12.792 0 15.937 0z" fill="#233E81"/><path fill-rule="evenodd" clip-rule="evenodd" d="M22.509 42.466l4.288-22.68c.285-1.93 1.715-2.896 4.287-2.896h24.298c4.002 0 7.146.483 9.72 1.448-2.574 13.994-13.15 21.715-27.157 21.715H25.939c-1.43 0-2.573.724-3.43 2.413z" fill="#27326E"/></svg>