<svg width="112" height="51" fill="none" xmlns="http://www.w3.org/2000/svg"><g clip-path="url(#clip0)"><path d="M54.777 28.716h1.737v3.893h1.255l2.252-3.893h1.9l-2.704 4.569v.032l2.864 4.986h-1.963l-2.317-4.183h-1.254v4.183H54.81v-9.588h-.032v.001zm11.197 2.542c2.09 0 3.796 1.512 3.796 3.603 0 2.124-1.673 3.604-3.764 3.604-2.092 0-3.765-1.48-3.765-3.604-.032-2.123 1.641-3.603 3.733-3.603zm5.147.16h1.641v5.406h2.156v-5.405h1.64v5.405h2.156v-5.405h1.641v6.884h-9.17v-6.885h-.064zm14.093-.16c1.962 0 3.056 1.448 3.056 3.25a4.789 4.789 0 01-.064.675h-4.73c.097 1.19 1.03 1.834 2.06 1.834.707 0 1.415-.322 1.962-.74l.676 1.223c-.708.61-1.77.997-2.767.997-2.285 0-3.7-1.641-3.7-3.604 0-2.155 1.447-3.635 3.507-3.635zm3.86 5.598c.837-.129 1.448-.836 1.448-3.282v-2.155h5.02v6.884h-1.706v-5.502h-1.673v.772c0 2.992-.804 4.73-3.089 4.794v-1.512.001zm11.358-5.598c1.962 0 3.056 1.448 3.056 3.25a4.63 4.63 0 01-.064.675h-4.73c.097 1.19 1.03 1.834 2.06 1.834.707 0 1.415-.322 1.962-.74l.676 1.223c-.708.61-1.77.997-2.767.997-2.284 0-3.7-1.641-3.7-3.604 0-2.155 1.448-3.635 3.507-3.635zm4.472.16h1.705v2.639h.837l1.673-2.638h1.898l-2.188 3.281v.033l2.445 3.57h-1.994l-1.802-2.798h-.9v2.798h-1.707v-6.885h.033zm-38.93 5.567c1.126 0 2.06-.869 2.06-2.156 0-1.255-.934-2.156-2.06-2.156s-2.027.87-2.027 2.156c0 1.287.9 2.156 2.027 2.156zm20.56-2.992c0-.901-.613-1.448-1.385-1.448-.868 0-1.512.579-1.673 1.448h3.057zm15.217 0c0-.901-.611-1.448-1.383-1.448-.87 0-1.513.579-1.674 1.448h3.057z" fill="#2D3540"/><path d="M78.811 7.835v16.248a.438.438 0 01-.45.45h-3.314a.438.438 0 01-.45-.45V7.835a.438.438 0 01.45-.45h3.314a.44.44 0 01.45.45zm25.868-.45c.129 0 .29.064.45.193.097.096.097.257.065.386l-5.47 16.28a.458.458 0 01-.418.29h-2.96c-.193 0-.354-.097-.418-.29l-3.187-9.491-3.185 9.49a.458.458 0 01-.418.29h-2.96c-.193 0-.354-.096-.418-.29l-5.47-16.28c-.032-.128-.032-.257.064-.385.065-.129.226-.193.354-.193h3.7c.193 0 .354.128.419.321l2.927 9.62 3.218-9.62a.458.458 0 01.418-.29h2.606c.193 0 .354.097.418.29l3.218 9.62 2.928-9.62a.443.443 0 01.418-.321h3.701zm5.598 0c.225 0 .418.193.45.45v16.248a.448.448 0 01-.031.174.456.456 0 01-.245.244.44.44 0 01-.174.032h-3.314a.44.44 0 01-.45-.45V7.835a.449.449 0 01.031-.174.456.456 0 01.245-.245.442.442 0 01.174-.031h3.314zm-37.611 16.57c.193.225.032.546-.258.546h-4.054a.518.518 0 01-.418-.193l-.675-.836c-1.416.9-3.09 1.448-4.859 1.448-4.954 0-8.976-4.022-8.976-8.977s4.022-8.977 8.976-8.977c4.955 0 8.977 4.022 8.977 8.977a9.03 9.03 0 01-1.416 4.858l2.703 3.153v.001zm-33.88 7.882c.837.322 1.159 1.576 1.223 2.123.129.998-.16 1.384-.482 1.384-.322 0-.773-.386-1.255-1.158-.483-.773-.676-1.641-.418-2.092.16-.29.514-.418.933-.257h-.001zm-4.89 3.636c.515 0 1.094.225 1.609.675.997.837 1.287 1.802.772 2.51-.29.354-.772.579-1.319.579-.547 0-1.126-.193-1.512-.547-.901-.772-1.158-2.06-.58-2.767.226-.29.58-.45 1.03-.45zm-11.26 9.298C10.409 44.771.5 34.861.5 22.635.5 10.409 10.41.5 22.635.5c12.226 0 22.136 9.91 22.136 22.135 0 4.15-1.158 8.044-3.12 11.358-.065.096-.226.064-.258-.065-.772-5.437-4.086-8.43-8.912-9.33-.419-.065-.483-.322.064-.386 1.48-.129 3.571-.097 4.665.096.064-.547.097-1.126.097-1.705 0-8.076-6.564-14.64-14.64-14.64-8.075 0-14.639 6.564-14.639 14.64s6.564 14.64 14.64 14.64h.675a19.75 19.75 0 01-.29-3.958c.033-.901.226-1.03.612-.322 2.027 3.507 4.923 6.66 10.585 7.915 4.633 1.03 9.266 2.22 14.253 8.558.45.547-.225 1.126-.74.676-5.083-4.505-9.716-5.985-13.931-5.985-4.73.033-7.947.644-11.197.644h.001zm41.986-24.42l-1.77-2.156c-.192-.225-.031-.579.258-.579h3.732c.193-.515.29-1.094.29-1.673 0-2.67-1.995-4.987-4.73-4.987-2.734 0-4.73 2.317-4.73 4.987s1.996 4.955 4.73 4.955c.772.032 1.545-.193 2.22-.547z" fill="#FF8C00"/></g><defs><clipPath id="clip0"><path fill="#fff" d="M0 0h111.774v50.773H0z"/></clipPath></defs></svg>