<svg width="163" height="163" fill="none" xmlns="http://www.w3.org/2000/svg"><g clip-path="url(#clip0)" fill="#000"><path d="M153.804 81.278l-3.825 3.457 3.454 3.823 3.825-3.456-3.454-3.824zm-7.625 3.11l-5.102 4.593 4.595 5.104 5.102-4.592-4.595-5.105zm14.527-4.326l-2.549 2.297 2.297 2.548 2.548-2.297-2.296-2.548zM147.004 65.51l-3.829 3.447 3.447 3.83 3.829-3.448-3.447-3.83zm10.437 6.937l-2.544 2.297 2.3 2.546 2.544-2.298-2.3-2.545zm-140.343.215l-2.5 12.955h-.173l-3.404-12.955H8.84L5.66 85.617h-.173L2.745 72.662H0l3.967 17.362h2.646l3.231-12.222h.174l3.329 12.222h2.646l3.97-17.362h-2.865zm125.461 2.884l-5.107 4.597 4.595 5.104 5.106-4.597-4.594-5.104zm-3.647-8.698l-5.104 4.594 4.594 5.105 5.104-4.595-4.594-5.104zm11.607 6.363l-3.82 3.448 3.455 3.827 3.82-3.448-3.455-3.827zm3.647-8.333l-2.548 2.296 2.297 2.549 2.548-2.297-2.297-2.548zM112.248 77.9l-2.78 9.02h-.147l-3.134-9.017h-2.692l4.699 12.249c-.589 1.813-1.615 3.133-3.281 3.133v2.003c2.813 0 4.306-1.76 5.532-5.142l4.427-12.246h-2.624zm-81.072 5.57c.003-4.002-1.882-5.979-4.943-5.979-3.673 0-5.558 2.69-5.558 6.414 0 3.872 1.692 6.417 5.803 6.417 1.76 0 3.23-.49 4.332-1.134v-1.853c-1.346.801-2.571 1.272-3.891 1.272-2.52 0-3.722-1.294-3.722-4.238h7.979v-.899zm-7.93-.745c.268-2.444 1.422-3.597 2.915-3.597 1.323 0 2.571 1.023 2.692 3.597h-5.607zm133.93 6.29l-3.828 3.45 3.451 3.83 3.828-3.45-3.451-3.83zm-54.453-5.545c.006-4.002-1.882-5.979-4.94-5.979-3.676 0-5.558 2.69-5.558 6.414 0 3.872 1.689 6.417 5.8 6.417 1.76 0 3.224-.49 4.328-1.134v-1.853c-1.343.801-2.568 1.272-3.888 1.272-2.519 0-3.725-1.294-3.725-4.238h7.983v-.899zm-7.933-.745c.274-2.444 1.427-3.597 2.92-3.597 1.317 0 2.572 1.023 2.693 3.597h-5.614z"/><path d="M150.459 93.354l-4.989 4.6-8.423-9.374 2.342-2.062-5.897-6.603 2.355-2.065-5.985-6.596 9.341-8.41 2.967 3.247 5.009-4.47 2.96 3.068 1.973-1.767c-.441-.255-.882-.49-1.33-.703a21.36 21.36 0 00-9.406-2.176c-11.818 0-21.46 9.639-21.46 21.46 0 11.818 9.642 21.457 21.46 21.457 3.839 0 7.456-1.017 10.576-2.797a23.422 23.422 0 002.823-1.876l-4.316-4.933zM39.261 77.491c-1.323 0-2.571.513-3.31.905v-6.979l-2.545.611V89.12c1.47.781 3.477 1.2 4.777 1.2 3.552 0 5.754-2.232 5.754-6.813 0-3.91-1.64-6.015-4.676-6.015zm-1.078 11.112c-.614 0-1.467-.045-2.251-.388v-8.009c.98-.539 1.692-.807 2.666-.807 1.64 0 2.77 1.007 2.77 4.11 0 3.967-1.372 5.094-3.185 5.094zM85.91 77.484c-2.817 0-5.143 1.15-6.244 1.81v10.724h2.542v-9.694c.758-.441 2.01-.882 2.986-.882 1.258 0 2.209.343 2.209 2.277v8.302h2.545v-8.86c0-2.52-1.104-3.67-4.038-3.677zm-25.469-4.822L55.207 86.35h-.124l-5.486-13.687h-2.96v17.362h2.202V77.73h.219l4.995 12.294h1.566l4.995-12.592h.22v12.592h2.642V72.662h-3.035zm11.313 4.829c-3.232 0-5.584 2.13-5.584 6.414 0 4.185 2.231 6.417 5.584 6.417 3.355 0 5.584-2.232 5.584-6.417 0-4.287-2.353-6.414-5.584-6.414zm0 11.112c-1.738 0-3.013-1.34-3.013-4.698 0-3.307 1.399-4.702 3.013-4.702 1.666 0 3.012 1.395 3.012 4.702 0 3.355-1.274 4.698-3.012 4.698z"/></g><defs><clipPath id="clip0"><path fill="#fff" d="M0 0h163v163H0z"/></clipPath></defs></svg>