<svg width="73" height="73" viewBox="0 0 73 73" fill="none" xmlns="http://www.w3.org/2000/svg">
<g opacity="0.9">
<path opacity="0.9" fill-rule="evenodd" clip-rule="evenodd" d="M0 36.0714C0 31.9558 0.31854 29.2928 11.4674 22.9985C21.0236 17.9146 50.3292 0 50.3292 0V29.777H72.6269V72.6269H7.00786C3.18539 72.6269 0 70.206 0 67.3009L0 36.0714Z" fill="#FFCF01"/>
<path opacity="0.9" fill-rule="evenodd" clip-rule="evenodd" d="M52.9435 30.7263V48.1904L12.71 69.8331L63.5488 56.7975V30.7263H52.9435Z" fill="#D3AB07"/>
<path opacity="0.9" fill-rule="evenodd" clip-rule="evenodd" d="M36.515 28.9692C38.9762 26.6425 42.3605 25.8669 44.2064 27.1596C46.0523 28.4522 45.7447 31.5545 43.2834 33.8812C40.8222 36.2079 37.438 36.9835 35.592 35.6909C33.7461 34.3982 34.3614 31.296 36.515 28.9692Z" fill="black"/>
</g>
</svg>
