<svg width="73" height="73" fill="none" xmlns="http://www.w3.org/2000/svg"><g opacity=".9" fill-rule="evenodd" clip-rule="evenodd"><path opacity=".9" d="M0 36.071C0 31.956.319 29.293 11.467 23 21.024 17.915 50.33 0 50.33 0v29.777h22.298v42.85H7.007C3.186 72.627 0 70.206 0 67.3V36.07z" fill="#FFCF01"/><path opacity=".9" d="M52.944 30.726V48.19L12.71 69.833l50.839-13.035V30.726H52.944z" fill="#D3AB07"/><path opacity=".9" d="M36.515 28.97c2.461-2.328 5.846-3.103 7.691-1.81 1.846 1.292 1.539 4.395-.923 6.721-2.46 2.327-5.845 3.102-7.691 1.81-1.846-1.293-1.23-4.395.923-6.722z" fill="#000"/></g></svg>