<svg width="20" height="20" viewBox="0 0 20 20" fill="none" xmlns="http://www.w3.org/2000/svg">
<g clip-path="url(#clip0)">
<path d="M20 8.12493C20 8.62575 19.8008 9.09243 19.4575 9.43661C19.8467 9.86243 20.045 10.4333 19.9908 11.0274C19.8933 12.0866 18.9391 12.9166 17.8175 12.9166L12.67 12.9166C12.925 13.6908 13.3333 15.1099 13.3333 16.2499C13.3333 18.0574 11.7975 19.5833 10.8333 19.5833C9.96832 19.5833 9.34914 19.0958 9.32332 19.0758C9.22414 18.9966 9.16664 18.8766 9.16664 18.7499L9.16664 15.9241L6.76582 10.7249L6.66664 10.6741L6.66664 10.8333C6.66664 11.0633 6.47996 11.25 6.24996 11.25L2.08332 11.25C0.934179 11.2499 -8.10191e-07 10.3158 -9.10652e-07 9.16661L-1.49347e-06 2.49993C-1.59394e-06 1.35075 0.934178 0.416611 2.08332 0.416611L4.58332 0.41661C5.48414 0.41661 6.25414 0.991611 6.54414 1.79411C7.2375 1.43743 8.17082 1.24993 8.75 1.24993L16.3992 1.24993C17.3067 1.24993 18.1009 1.86161 18.2875 2.70493C18.3833 3.13993 18.3275 3.57743 18.1375 3.95743C18.7525 4.26661 19.1667 4.90243 19.1667 5.62493C19.1667 5.91993 19.0992 6.20243 18.9717 6.45743C19.5867 6.76743 20 7.40243 20 8.12493ZM18.2425 7.09661C18.0817 7.07743 17.9458 6.96829 17.8942 6.81411C17.8434 6.65993 17.8859 6.49079 18.0042 6.37911C18.2159 6.17993 18.3334 5.91161 18.3334 5.62493C18.3334 5.09911 17.9359 4.65743 17.41 4.59661C17.2492 4.57743 17.1134 4.46829 17.0617 4.31411C17.0109 4.15993 17.0534 3.99079 17.1717 3.87911C17.4459 3.62079 17.5559 3.25829 17.4734 2.88493C17.3709 2.41993 16.9192 2.08325 16.3992 2.08325L8.75 2.08325C8.07332 2.08325 6.93832 2.40075 6.545 2.79493C6.42582 2.91325 6.24582 2.94825 6.09082 2.88493C5.935 2.82075 5.83332 2.66825 5.83332 2.49993C5.83332 1.81075 5.2725 1.24993 4.58332 1.24993L2.08332 1.24993C1.39414 1.24993 0.833319 1.81075 0.833319 2.49993L0.833319 9.16661C0.833319 9.85579 1.39414 10.4166 2.08332 10.4166L5.83332 10.4166L5.83332 9.99993C5.83332 9.85575 5.90832 9.72161 6.03164 9.64493C6.15332 9.57161 6.30664 9.56411 6.43664 9.62743L7.26996 10.0441C7.35414 10.0858 7.42164 10.1558 7.46164 10.2416L9.96164 15.6583C9.98664 15.7133 9.99996 15.7733 9.99996 15.8333L9.99996 18.5241C10.1733 18.6199 10.4742 18.7499 10.8333 18.7499C11.29 18.7499 12.5 17.6149 12.5 16.2499C12.5 14.7833 11.7017 12.6691 11.6942 12.6483C11.6459 12.5208 11.6625 12.3766 11.74 12.2633C11.8183 12.1508 11.9467 12.0833 12.0833 12.0833L17.8175 12.0833C18.5125 12.0833 19.1025 11.5858 19.1608 10.9508C19.205 10.4758 18.9766 10.0241 18.5675 9.77157C18.44 9.69325 18.3642 9.55157 18.37 9.40075C18.3758 9.24993 18.4625 9.11493 18.5958 9.04575C18.9483 8.86657 19.1666 8.51325 19.1666 8.12493C19.1667 7.59911 18.7692 7.15743 18.2425 7.09661Z" fill="black"/>
<path d="M6.24969 10.4167C6.01969 10.4167 5.83301 10.2301 5.83301 10.0001L5.83301 2.50006C5.83301 2.27006 6.01969 2.08338 6.24969 2.08338C6.47969 2.08338 6.66637 2.27006 6.66637 2.50006L6.66637 10.0001C6.66637 10.2301 6.47969 10.4167 6.24969 10.4167Z" fill="black"/>
</g>
<defs>
<clipPath id="clip0">
<rect width="20" height="20" fill="white" transform="matrix(1 -8.74228e-08 -8.74228e-08 -1 0 20)"/>
</clipPath>
</defs>
</svg>
