<svg xmlns="http://www.w3.org/2000/svg">
    <symbol id="share" viewBox="0 0 56 59">
        <path d="M38.9261 41.929C38.4021 42.453 37.9511 43.029 37.5611 43.638L20.2811 33.149C20.7381 32.005 20.9971 30.761 20.9971 29.456C20.9971 28.151 20.7381 26.907 20.2821 25.763L37.5661 15.354C39.3411 18.142 42.4531 20 45.9971 20C51.5111 20 55.9971 15.514 55.9971 10C55.9971 4.486 51.5111 0 45.9971 0C40.4831 0 35.9971 4.486 35.9971 10C35.9971 11.256 36.2401 12.454 36.6641 13.562L19.3571 23.985C17.5691 21.261 14.4911 19.456 10.9961 19.456C5.48209 19.456 0.996094 23.942 0.996094 29.456C0.996094 34.97 5.48209 39.456 10.9961 39.456C14.4911 39.456 17.5681 37.651 19.3561 34.927L36.6601 45.43C36.2301 46.556 35.9961 47.759 35.9961 49C35.9961 51.671 37.0361 54.183 38.9251 56.071C40.8741 58.02 43.4351 58.995 45.9961 58.995C48.5571 58.995 51.1181 58.02 53.0671 56.071C54.9561 54.182 55.9961 51.671 55.9961 49C55.9961 46.329 54.9561 43.817 53.0671 41.929C49.1681 38.029 42.8251 38.029 38.9261 41.929ZM45.9971 2C50.4081 2 53.9971 5.589 53.9971 10C53.9971 14.411 50.4081 18 45.9971 18C41.5861 18 37.9971 14.411 37.9971 10C37.9971 5.589 41.5851 2 45.9971 2ZM10.9971 37.456C6.58609 37.456 2.99709 33.867 2.99709 29.456C2.99709 25.045 6.58609 21.456 10.9971 21.456C15.4081 21.456 18.9971 25.045 18.9971 29.456C18.9971 33.867 15.4081 37.456 10.9971 37.456ZM51.6531 54.657C48.5341 57.776 43.4591 57.776 40.3401 54.657C38.8291 53.146 37.9971 51.136 37.9971 49C37.9971 46.864 38.8291 44.854 40.3401 43.343C41.9001 41.783 43.9481 41.004 45.9971 41.004C48.0461 41.004 50.0941 41.783 51.6541 43.343C53.1651 44.854 53.9971 46.864 53.9971 49C53.9971 51.136 53.1651 53.146 51.6531 54.657Z" fill="black"/>
    </symbol>
    <symbol id="love" viewBox="0 0 53 50">
        <path d="M52.6963 15.289C51.9288 6.93754 45.9493 0.878357 38.4662 0.878357C33.4808 0.878357 28.9161 3.53056 26.3475 7.78129C23.8023 3.47558 19.4246 0.877357 14.5191 0.877357C7.03698 0.877357 1.05653 6.93654 0.290009 15.288C0.229335 15.6569 -0.0194296 17.5984 0.736975 20.7644C1.82709 25.331 4.34507 29.4848 8.01686 32.7738L26.3354 49.2079L44.9684 32.7748C48.6402 29.4848 51.1582 25.332 52.2483 20.7644C53.0047 17.5994 52.756 15.6579 52.6963 15.289ZM50.2795 20.3065C49.2844 24.4773 46.9778 28.2772 43.6154 31.2883L26.3475 46.5187L9.37596 31.2923C6.00754 28.2752 3.70192 24.4763 2.70585 20.3055C1.9899 17.3094 2.28417 15.6169 2.28518 15.6059L2.30035 15.505C2.95765 8.18817 8.09574 2.87676 14.5191 2.87676C19.2588 2.87676 23.4311 5.7559 25.4111 10.3895L26.3425 12.5719L27.2738 10.3895C29.2225 5.82688 33.6153 2.87776 38.4672 2.87776C44.8896 2.87776 50.0287 8.18917 50.6991 15.601C50.7011 15.6169 50.9954 17.3104 50.2795 20.3065Z" fill="inherit"/>
    </symbol>
    <symbol id="plus" viewBox="0 0 18 18">
        <path d="M16.4995 7.75003H10.2497V1.50001C10.2497 0.809659 9.69006 0.250031 8.99971 0.250031C8.30936 0.250031 7.74973 0.809659 7.74973 1.50001V7.75003H1.50193C0.811582 7.75003 0.251953 8.30966 0.251953 9.00001C0.251953 9.69036 0.811582 10.25 1.50193 10.25H7.74967V16.5C7.74967 17.1904 8.3093 17.75 8.99965 17.75C9.69 17.75 10.2496 17.1904 10.2496 16.5V10.25H16.4994C17.1897 10.25 17.7493 9.69036 17.7493 9.00001C17.7493 8.30966 17.1898 7.75003 16.4995 7.75003Z" fill="black"/>
    </symbol>
    
    <symbol id="minus" viewBox="0 0 18 4">
        <path d="M16.4995 0.750031H1.50193C0.811582 0.750031 0.251953 1.30966 0.251953 2C0.251953 2.69035 0.811582 3.24998 1.50193 3.24998H16.4994C17.1898 3.24998 17.7494 2.69035 17.7494 2C17.7494 1.30966 17.1898 0.750031 16.4995 0.750031Z" fill="black"/>
    </symbol>

    <symbol id="exit" viewBox="0 0 12 12">
        <path d="M11.6 0.399808C11.3745 0.174231 11.0098 0.174231 10.7843 0.399808L5.99984 5.18423L1.21542 0.399808C0.989845 0.174231 0.625228 0.174231 0.399651 0.399808C0.174075 0.625385 0.174075 0.990001 0.399651 1.21558L5.18407 6L0.399651 10.7844C0.174075 11.01 0.174075 11.3746 0.399651 11.6002C0.512151 11.7127 0.659844 11.7692 0.807536 11.7692C0.955229 11.7692 1.10292 11.7127 1.21542 11.6002L5.99984 6.81577L10.7843 11.6002C10.8968 11.7127 11.0445 11.7692 11.1922 11.7692C11.3398 11.7692 11.4875 11.7127 11.6 11.6002C11.8256 11.3746 11.8256 11.01 11.6 10.7844L6.81561 6L11.6 1.21558C11.8256 0.990001 11.8256 0.625385 11.6 0.399808Z" fill="inherit"/>
    </symbol>

    <symbol id="feedback-arrow" viewBox="0 0 50 40">
        <path d="M29.1671 38.7383C29.1666 38.4618 29.276 38.1965 29.4713 38.0008L47.4858 19.9883L29.4712 1.97578C29.0715 1.56201 29.083 0.902538 29.4968 0.502831C29.9005 0.112987 30.5404 0.112987 30.944 0.502831L49.694 19.2528C50.1007 19.6596 50.1007 20.3189 49.694 20.7258L30.944 39.4758C30.5366 39.8819 29.877 39.881 29.4709 39.4734C29.2764 39.2782 29.1671 39.0139 29.1671 38.7383Z" fill="inherit"/>
        <path d="M-4.55345e-08 19.9882C-2.03874e-08 19.4129 0.466406 18.9465 1.0417 18.9465L48.9583 18.9465C49.5336 18.9465 50 19.4129 50 19.9882C50 20.5635 49.5336 21.0299 48.9583 21.0299L1.0416 21.0299C0.466404 21.0298 -7.06815e-08 20.5635 -4.55345e-08 19.9882Z" fill="inherit"/>
    </symbol>
</svg>
