<svg xmlns="http://www.w3.org/2000/svg">
    <symbol id="share" viewBox="0 0 56 59">
        <path d="M38.9261 41.929C38.4021 42.453 37.9511 43.029 37.5611 43.638L20.2811 33.149C20.7381 32.005 20.9971 30.761 20.9971 29.456C20.9971 28.151 20.7381 26.907 20.2821 25.763L37.5661 15.354C39.3411 18.142 42.4531 20 45.9971 20C51.5111 20 55.9971 15.514 55.9971 10C55.9971 4.486 51.5111 0 45.9971 0C40.4831 0 35.9971 4.486 35.9971 10C35.9971 11.256 36.2401 12.454 36.6641 13.562L19.3571 23.985C17.5691 21.261 14.4911 19.456 10.9961 19.456C5.48209 19.456 0.996094 23.942 0.996094 29.456C0.996094 34.97 5.48209 39.456 10.9961 39.456C14.4911 39.456 17.5681 37.651 19.3561 34.927L36.6601 45.43C36.2301 46.556 35.9961 47.759 35.9961 49C35.9961 51.671 37.0361 54.183 38.9251 56.071C40.8741 58.02 43.4351 58.995 45.9961 58.995C48.5571 58.995 51.1181 58.02 53.0671 56.071C54.9561 54.182 55.9961 51.671 55.9961 49C55.9961 46.329 54.9561 43.817 53.0671 41.929C49.1681 38.029 42.8251 38.029 38.9261 41.929ZM45.9971 2C50.4081 2 53.9971 5.589 53.9971 10C53.9971 14.411 50.4081 18 45.9971 18C41.5861 18 37.9971 14.411 37.9971 10C37.9971 5.589 41.5851 2 45.9971 2ZM10.9971 37.456C6.58609 37.456 2.99709 33.867 2.99709 29.456C2.99709 25.045 6.58609 21.456 10.9971 21.456C15.4081 21.456 18.9971 25.045 18.9971 29.456C18.9971 33.867 15.4081 37.456 10.9971 37.456ZM51.6531 54.657C48.5341 57.776 43.4591 57.776 40.3401 54.657C38.8291 53.146 37.9971 51.136 37.9971 49C37.9971 46.864 38.8291 44.854 40.3401 43.343C41.9001 41.783 43.9481 41.004 45.9971 41.004C48.0461 41.004 50.0941 41.783 51.6541 43.343C53.1651 44.854 53.9971 46.864 53.9971 49C53.9971 51.136 53.1651 53.146 51.6531 54.657Z" fill="inherit"/>
    </symbol>
    <symbol id="love" viewBox="0 0 53 50">
        <path d="M52.6963 15.289C51.9288 6.93754 45.9493 0.878357 38.4662 0.878357C33.4808 0.878357 28.9161 3.53056 26.3475 7.78129C23.8023 3.47558 19.4246 0.877357 14.5191 0.877357C7.03698 0.877357 1.05653 6.93654 0.290009 15.288C0.229335 15.6569 -0.0194296 17.5984 0.736975 20.7644C1.82709 25.331 4.34507 29.4848 8.01686 32.7738L26.3354 49.2079L44.9684 32.7748C48.6402 29.4848 51.1582 25.332 52.2483 20.7644C53.0047 17.5994 52.756 15.6579 52.6963 15.289ZM50.2795 20.3065C49.2844 24.4773 46.9778 28.2772 43.6154 31.2883L26.3475 46.5187L9.37596 31.2923C6.00754 28.2752 3.70192 24.4763 2.70585 20.3055C1.9899 17.3094 2.28417 15.6169 2.28518 15.6059L2.30035 15.505C2.95765 8.18817 8.09574 2.87676 14.5191 2.87676C19.2588 2.87676 23.4311 5.7559 25.4111 10.3895L26.3425 12.5719L27.2738 10.3895C29.2225 5.82688 33.6153 2.87776 38.4672 2.87776C44.8896 2.87776 50.0287 8.18917 50.6991 15.601C50.7011 15.6169 50.9954 17.3104 50.2795 20.3065Z" fill="inherit"/>
    </symbol>
    <symbol id="plus" viewBox="0 0 18 18">
        <path d="M16.4995 7.75003H10.2497V1.50001C10.2497 0.809659 9.69006 0.250031 8.99971 0.250031C8.30936 0.250031 7.74973 0.809659 7.74973 1.50001V7.75003H1.50193C0.811582 7.75003 0.251953 8.30966 0.251953 9.00001C0.251953 9.69036 0.811582 10.25 1.50193 10.25H7.74967V16.5C7.74967 17.1904 8.3093 17.75 8.99965 17.75C9.69 17.75 10.2496 17.1904 10.2496 16.5V10.25H16.4994C17.1897 10.25 17.7493 9.69036 17.7493 9.00001C17.7493 8.30966 17.1898 7.75003 16.4995 7.75003Z" fill="black"/>
    </symbol>
    
    <symbol id="minus" viewBox="0 0 18 4">
        <path d="M16.4995 0.750031H1.50193C0.811582 0.750031 0.251953 1.30966 0.251953 2C0.251953 2.69035 0.811582 3.24998 1.50193 3.24998H16.4994C17.1898 3.24998 17.7494 2.69035 17.7494 2C17.7494 1.30966 17.1898 0.750031 16.4995 0.750031Z" fill="black"/>
    </symbol>

    <symbol id="exit" viewBox="0 0 12 12">
        <path d="M11.6 0.399808C11.3745 0.174231 11.0098 0.174231 10.7843 0.399808L5.99984 5.18423L1.21542 0.399808C0.989845 0.174231 0.625228 0.174231 0.399651 0.399808C0.174075 0.625385 0.174075 0.990001 0.399651 1.21558L5.18407 6L0.399651 10.7844C0.174075 11.01 0.174075 11.3746 0.399651 11.6002C0.512151 11.7127 0.659844 11.7692 0.807536 11.7692C0.955229 11.7692 1.10292 11.7127 1.21542 11.6002L5.99984 6.81577L10.7843 11.6002C10.8968 11.7127 11.0445 11.7692 11.1922 11.7692C11.3398 11.7692 11.4875 11.7127 11.6 11.6002C11.8256 11.3746 11.8256 11.01 11.6 10.7844L6.81561 6L11.6 1.21558C11.8256 0.990001 11.8256 0.625385 11.6 0.399808Z" fill="inherit"/>
    </symbol>

    <symbol id="feedback-arrow" viewBox="0 0 50 40">
        <path d="M29.1671 38.7383C29.1666 38.4618 29.276 38.1965 29.4713 38.0008L47.4858 19.9883L29.4712 1.97578C29.0715 1.56201 29.083 0.902538 29.4968 0.502831C29.9005 0.112987 30.5404 0.112987 30.944 0.502831L49.694 19.2528C50.1007 19.6596 50.1007 20.3189 49.694 20.7258L30.944 39.4758C30.5366 39.8819 29.877 39.881 29.4709 39.4734C29.2764 39.2782 29.1671 39.0139 29.1671 38.7383Z" fill="inherit"/>
        <path d="M-4.55345e-08 19.9882C-2.03874e-08 19.4129 0.466406 18.9465 1.0417 18.9465L48.9583 18.9465C49.5336 18.9465 50 19.4129 50 19.9882C50 20.5635 49.5336 21.0299 48.9583 21.0299L1.0416 21.0299C0.466404 21.0298 -7.06815e-08 20.5635 -4.55345e-08 19.9882Z" fill="inherit"/>
    </symbol>

    <symbol id="basket" viewBox="0 0 51 51">
        <g clip-path="url(#clip0)">
            <path d="M15.924 30.2662H45.3846L50.5973 11.6595H42.9261L40.1718 3.15179L28.6855 6.87519L30.2565 11.6595H29.7158L26.8799 3.15179L15.3936 6.87519L16.9645 11.6595H10.8235L9.54839 6.55895C8.9057 4.00868 6.68189 2.20315 4.12142 2.20315H0.612305V4.33513H4.12142C5.71275 4.33513 7.10009 5.39602 7.52857 6.99764L13.1697 29.0726C12.0068 29.9091 11.2418 31.2761 11.2418 32.8369C11.2418 35.3871 13.3737 37.5191 15.924 37.5191H44.6399V35.3871H15.924C14.5367 35.3871 13.3737 34.214 13.3737 32.8369C13.3738 31.4393 14.5469 30.2662 15.924 30.2662ZM38.7948 5.8041L40.7125 11.5473H32.4191L31.246 8.2524L38.7948 5.8041ZM25.5028 5.8041L27.4206 11.5473H19.1272L17.954 8.2524L25.5028 5.8041ZM47.8329 13.6793L43.7932 28.1444H15.0773L11.3539 13.6794L47.8329 13.6793Z" fill="inherit"/>
            <path d="M35.2855 40.6913C32.8373 40.6913 30.8174 42.7111 30.8174 45.1593C30.8174 47.6076 32.8373 49.6274 35.2855 49.6274C37.8358 49.6274 39.7535 47.6076 39.7535 45.1593C39.7536 42.7111 37.7338 40.6913 35.2855 40.6913ZM35.2855 47.6076C33.8982 47.6076 32.8373 46.4344 32.8373 45.1593C32.8373 43.772 34.0104 42.7111 35.2855 42.7111C36.6728 42.7111 37.7337 43.772 37.7337 45.1593C37.7338 46.5467 36.5607 47.6076 35.2855 47.6076Z" fill="inherit"/>
            <path d="M18.9026 40.6913C16.4544 40.6913 14.4346 42.7111 14.4346 45.1593C14.4346 47.6076 16.4544 49.6274 18.9026 49.6274C21.3508 49.6274 23.3706 47.6076 23.3706 45.1593C23.3706 42.7111 21.3508 40.6913 18.9026 40.6913ZM18.9026 47.6076C17.5153 47.6076 16.4544 46.4344 16.4544 45.1593C16.4544 43.772 17.6275 42.7111 18.9026 42.7111C20.1777 42.7111 21.3508 43.772 21.3508 45.1593C21.3508 46.5467 20.1777 47.6076 18.9026 47.6076Z" fill="inherit"/>
        </g>
        <defs>
            <clipPath id="clip0">
            <rect width="49.985" height="49.985" fill="white" transform="translate(0.612305 0.922531)"/>
            </clipPath>
        </defs>
    </symbol>

    <symbol id="like" viewBox="0 0 20 20">
        <path d="M20 11.8751C20 11.3742 19.8008 10.9076 19.4575 10.5634C19.8467 10.1376 20.045 9.56671 19.9908 8.97257C19.8933 7.91339 18.9391 7.08339 17.8175 7.08339H12.67C12.925 6.30921 13.3333 4.89007 13.3333 3.75007C13.3333 1.94257 11.7975 0.416748 10.8333 0.416748C9.96832 0.416748 9.34914 0.904248 9.32332 0.924248C9.22414 1.00343 9.16664 1.12343 9.16664 1.25007V4.07589L6.76582 9.27507L6.66664 9.32589V9.16671C6.66664 8.93671 6.47996 8.75003 6.24996 8.75003H2.08332C0.93418 8.75007 0 9.68425 0 10.8334V17.5001C0 18.6492 0.93418 19.5834 2.08332 19.5834H4.58332C5.48414 19.5834 6.25414 19.0084 6.54414 18.2059C7.2375 18.5626 8.17082 18.7501 8.75 18.7501H16.3992C17.3067 18.7501 18.1009 18.1384 18.2875 17.2951C18.3833 16.8601 18.3275 16.4226 18.1375 16.0426C18.7525 15.7334 19.1667 15.0976 19.1667 14.3751C19.1667 14.0801 19.0992 13.7976 18.9717 13.5426C19.5867 13.2326 20 12.5976 20 11.8751ZM18.2425 12.9034C18.0817 12.9226 17.9458 13.0317 17.8942 13.1859C17.8434 13.3401 17.8859 13.5092 18.0042 13.6209C18.2159 13.8201 18.3334 14.0884 18.3334 14.3751C18.3334 14.9009 17.9359 15.3426 17.41 15.4034C17.2492 15.4226 17.1134 15.5317 17.0617 15.6859C17.0109 15.8401 17.0534 16.0092 17.1717 16.1209C17.4459 16.3792 17.5559 16.7417 17.4734 17.1151C17.3709 17.5801 16.9192 17.9167 16.3992 17.9167H8.75C8.07332 17.9167 6.93832 17.5992 6.545 17.2051C6.42582 17.0867 6.24582 17.0517 6.09082 17.1151C5.935 17.1792 5.83332 17.3317 5.83332 17.5001C5.83332 18.1892 5.2725 18.7501 4.58332 18.7501H2.08332C1.39414 18.7501 0.83332 18.1892 0.83332 17.5001V10.8334C0.83332 10.1442 1.39414 9.58339 2.08332 9.58339H5.83332V10.0001C5.83332 10.1442 5.90832 10.2784 6.03164 10.3551C6.15332 10.4284 6.30664 10.4359 6.43664 10.3726L7.26996 9.95589C7.35414 9.91421 7.42164 9.84421 7.46164 9.75839L9.96164 4.34171C9.98664 4.28671 9.99996 4.22671 9.99996 4.16671V1.47589C10.1733 1.38007 10.4742 1.25007 10.8333 1.25007C11.29 1.25007 12.5 2.38507 12.5 3.75007C12.5 5.21675 11.7017 7.33089 11.6942 7.35175C11.6459 7.47925 11.6625 7.62343 11.74 7.73675C11.8183 7.84925 11.9467 7.91675 12.0833 7.91675H17.8175C18.5125 7.91675 19.1025 8.41425 19.1608 9.04925C19.205 9.52425 18.9766 9.97593 18.5675 10.2284C18.44 10.3067 18.3642 10.4484 18.37 10.5992C18.3758 10.7501 18.4625 10.8851 18.5958 10.9542C18.9483 11.1334 19.1666 11.4867 19.1666 11.8751C19.1667 12.4009 18.7692 12.8426 18.2425 12.9034Z" fill="inherit"/>
        <path d="M6.24969 9.58325C6.01969 9.58325 5.83301 9.76993 5.83301 9.99993V17.4999C5.83301 17.7299 6.01969 17.9166 6.24969 17.9166C6.47969 17.9166 6.66637 17.7299 6.66637 17.4999V9.99993C6.66637 9.76993 6.47969 9.58325 6.24969 9.58325Z" fill="inherit"/>
    </symbol>

    <symbol id="dislike" viewBox="0 0 20 20">
        <g clip-path="url(#clip0)">
            <path d="M20 8.12493C20 8.62575 19.8008 9.09243 19.4575 9.43661C19.8467 9.86243 20.045 10.4333 19.9908 11.0274C19.8933 12.0866 18.9391 12.9166 17.8175 12.9166L12.67 12.9166C12.925 13.6908 13.3333 15.1099 13.3333 16.2499C13.3333 18.0574 11.7975 19.5833 10.8333 19.5833C9.96832 19.5833 9.34914 19.0958 9.32332 19.0758C9.22414 18.9966 9.16664 18.8766 9.16664 18.7499L9.16664 15.9241L6.76582 10.7249L6.66664 10.6741L6.66664 10.8333C6.66664 11.0633 6.47996 11.25 6.24996 11.25L2.08332 11.25C0.934179 11.2499 -8.10191e-07 10.3158 -9.10652e-07 9.16661L-1.49347e-06 2.49993C-1.59394e-06 1.35075 0.934178 0.416611 2.08332 0.416611L4.58332 0.41661C5.48414 0.41661 6.25414 0.991611 6.54414 1.79411C7.2375 1.43743 8.17082 1.24993 8.75 1.24993L16.3992 1.24993C17.3067 1.24993 18.1009 1.86161 18.2875 2.70493C18.3833 3.13993 18.3275 3.57743 18.1375 3.95743C18.7525 4.26661 19.1667 4.90243 19.1667 5.62493C19.1667 5.91993 19.0992 6.20243 18.9717 6.45743C19.5867 6.76743 20 7.40243 20 8.12493ZM18.2425 7.09661C18.0817 7.07743 17.9458 6.96829 17.8942 6.81411C17.8434 6.65993 17.8859 6.49079 18.0042 6.37911C18.2159 6.17993 18.3334 5.91161 18.3334 5.62493C18.3334 5.09911 17.9359 4.65743 17.41 4.59661C17.2492 4.57743 17.1134 4.46829 17.0617 4.31411C17.0109 4.15993 17.0534 3.99079 17.1717 3.87911C17.4459 3.62079 17.5559 3.25829 17.4734 2.88493C17.3709 2.41993 16.9192 2.08325 16.3992 2.08325L8.75 2.08325C8.07332 2.08325 6.93832 2.40075 6.545 2.79493C6.42582 2.91325 6.24582 2.94825 6.09082 2.88493C5.935 2.82075 5.83332 2.66825 5.83332 2.49993C5.83332 1.81075 5.2725 1.24993 4.58332 1.24993L2.08332 1.24993C1.39414 1.24993 0.833319 1.81075 0.833319 2.49993L0.833319 9.16661C0.833319 9.85579 1.39414 10.4166 2.08332 10.4166L5.83332 10.4166L5.83332 9.99993C5.83332 9.85575 5.90832 9.72161 6.03164 9.64493C6.15332 9.57161 6.30664 9.56411 6.43664 9.62743L7.26996 10.0441C7.35414 10.0858 7.42164 10.1558 7.46164 10.2416L9.96164 15.6583C9.98664 15.7133 9.99996 15.7733 9.99996 15.8333L9.99996 18.5241C10.1733 18.6199 10.4742 18.7499 10.8333 18.7499C11.29 18.7499 12.5 17.6149 12.5 16.2499C12.5 14.7833 11.7017 12.6691 11.6942 12.6483C11.6459 12.5208 11.6625 12.3766 11.74 12.2633C11.8183 12.1508 11.9467 12.0833 12.0833 12.0833L17.8175 12.0833C18.5125 12.0833 19.1025 11.5858 19.1608 10.9508C19.205 10.4758 18.9766 10.0241 18.5675 9.77157C18.44 9.69325 18.3642 9.55157 18.37 9.40075C18.3758 9.24993 18.4625 9.11493 18.5958 9.04575C18.9483 8.86657 19.1666 8.51325 19.1666 8.12493C19.1667 7.59911 18.7692 7.15743 18.2425 7.09661Z" fill="inherit"/>
            <path d="M6.24969 10.4167C6.01969 10.4167 5.83301 10.2301 5.83301 10.0001L5.83301 2.50006C5.83301 2.27006 6.01969 2.08338 6.24969 2.08338C6.47969 2.08338 6.66637 2.27006 6.66637 2.50006L6.66637 10.0001C6.66637 10.2301 6.47969 10.4167 6.24969 10.4167Z" fill="inherit"/>
        </g>
        <defs>
            <clipPath id="clip0">
            <rect width="20" height="20" fill="white" transform="matrix(1 -8.74228e-08 -8.74228e-08 -1 0 20)"/>
            </clipPath>
        </defs>
    </symbol>

    <symbol id="youtube" viewBox="0 -77 512.00213 512" >
        <path class="about-video__button-shape" d="m501.453125 56.09375c-5.902344-21.933594-23.195313-39.222656-45.125-45.128906-40.066406-10.964844-200.332031-10.964844-200.332031-10.964844s-160.261719 0-200.328125 10.546875c-21.507813 5.902344-39.222657 23.617187-45.125 45.546875-10.542969 40.0625-10.542969 123.148438-10.542969 123.148438s0 83.503906 10.542969 123.148437c5.90625 21.929687 23.195312 39.222656 45.128906 45.128906 40.484375 10.964844 200.328125 10.964844 200.328125 10.964844s160.261719 0 200.328125-10.546875c21.933594-5.902344 39.222656-23.195312 45.128906-45.125 10.542969-40.066406 10.542969-123.148438 10.542969-123.148438s.421875-83.507812-10.546875-123.570312zm0 0"/>
        <path class="about-video__button-icon" d="m204.96875 256 133.269531-76.757812-133.269531-76.757813zm0 0"/>
    </symbol>
</svg>
