<svg width="149" height="201" fill="none" xmlns="http://www.w3.org/2000/svg"><path d="M120.279 59.421c-28.218 17.298-48.556 39.144-56.814 48.853l-21.202-16.61c-.562-.404-12.201 9.929-11.892 10.251l38.614 39.257c.284.322.675.467 1.098.467.076 0 .195 0 .296-.025a1.542 1.542 0 001.123-.959c6.22-15.904 26.76-49.2 52.991-73.348a1.554 1.554 0 00.373-1.735c-.007-.007-4.196-6.39-4.587-6.151z" fill="#000"/><path d="M145.601 24.674c-58.466 0-68.358-22.193-68.446-22.401-.43-1.086-1.49-1.811-2.688-1.836h-.05c-1.16 0-2.233.725-2.7 1.785-.07.233-10.176 22.452-68.422 22.452a2.91 2.91 0 00-2.914 2.908v99.447c0 40.708 69.923 71.809 72.881 73.115.391.17.764.233 1.186.233a2.85 2.85 0 001.174-.233c2.984-1.306 72.894-32.407 72.894-73.115V27.582c-.013-1.59-1.306-2.908-2.915-2.908zm-13.172 96.57c0 31.851-54.744 56.221-57.072 57.23-.284.145-.618.196-.915.196-.322 0-.618-.051-.921-.196-2.303-1.009-57.066-25.379-57.066-57.23v-77.84a2.288 2.288 0 012.283-2.29c45.604 0 53.509-17.386 53.584-17.557a2.315 2.315 0 012.107-1.406h.038c.934.012 1.76.58 2.095 1.444.075.158 7.822 17.519 53.584 17.519a2.283 2.283 0 012.277 2.29l.006 77.84z" fill="#000"/></svg>