<svg width="70" height="70" fill="none" xmlns="http://www.w3.org/2000/svg"><path d="M63.438 53.594h-4.376c-.602 0-1.093-.49-1.093-1.094v-3.392a5.478 5.478 0 004.375-5.358v-4.2c.401-1.49 1.407-2.731 2.58-4.157 1.867-2.272 3.982-4.847 3.982-9.143 0-6.634-5.397-12.031-12.031-12.031-2.838 0-5.54 1.016-7.676 2.788a14.188 14.188 0 00-8.754-12.64c.01-.1.024-.198.024-.297a2.98 2.98 0 00-2.976-2.976h-4.888a3.271 3.271 0 00-3.265 2.954l-.044.434c-4.967 2.183-8.304 7.092-8.495 12.525a12.026 12.026 0 00-7.676-2.788c-6.634 0-12.031 5.397-12.031 12.031 0 4.296 2.115 6.87 3.982 9.143 1.173 1.426 2.179 2.666 2.58 4.157v4.2a5.48 5.48 0 004.375 5.358V52.5a3.285 3.285 0 003.281 3.281h4.376a1.095 1.095 0 010 2.188H6.563A3.285 3.285 0 003.28 61.25a3.285 3.285 0 003.281 3.281h4.375c.603 0 1.094.49 1.094 1.094v3.281h2.188v-3.281a3.285 3.285 0 00-3.281-3.281H6.561a1.095 1.095 0 010-2.188h13.125a3.285 3.285 0 003.282-3.281 3.285 3.285 0 00-3.282-3.281h-4.375c-.602 0-1.093-.49-1.093-1.094v-3.392a5.478 5.478 0 004.375-5.358v-4.2c.401-1.49 1.407-2.731 2.58-4.157 1.623-1.976 3.43-4.183 3.875-7.548.07.088.139.18.208.268 1.241 1.588 2.41 3.098 3.18 4.94v6.322c0 1.424.917 2.627 2.187 3.08v.201c0 2.034 1.4 3.731 3.281 4.22v1.249c0 .604-.49 1.094-1.094 1.094h-3.28a4.38 4.38 0 00-4.376 4.375 4.38 4.38 0 004.375 4.375h9.844a3.285 3.285 0 013.281 3.281 3.285 3.285 0 01-3.281 3.281h-2.188a3.285 3.285 0 00-3.28 3.281v1.094h2.187v-1.094c0-.603.49-1.093 1.093-1.093h2.188a5.475 5.475 0 005.469-5.469 5.475 5.475 0 00-5.47-5.469H29.53a2.19 2.19 0 01-2.187-2.187 2.19 2.19 0 012.187-2.188h3.281a3.285 3.285 0 003.282-3.281v-1.25c1.88-.488 3.28-2.185 3.28-4.219v-.201a3.277 3.277 0 002.188-3.08v-6.32c.77-1.843 1.938-3.352 3.18-4.941l.208-.268c.445 3.365 2.253 5.572 3.875 7.548 1.172 1.426 2.179 2.666 2.58 4.157v4.199c0 2.64 1.882 4.85 4.375 5.358V52.5a3.285 3.285 0 003.281 3.281h4.375a1.095 1.095 0 010 2.188H50.312a3.285 3.285 0 00-3.28 3.281 3.285 3.285 0 003.28 3.281h4.376c.602 0 1.093.49 1.093 1.094v3.281h2.188v-3.281a3.285 3.285 0 00-3.282-3.281h-4.374a1.095 1.095 0 010-2.188h13.124a3.285 3.285 0 003.282-3.281 3.285 3.285 0 00-3.281-3.281zm-9.844-26.25H52.5a1.095 1.095 0 010-2.188c.603 0 1.094.49 1.094 1.094v1.094zm4.375 10.937H55.78v-8.75h2.188v8.75zm2.187 2.188v2.187h-6.562V40.47h6.562zM32.605 3.28h4.888a.789.789 0 01.748 1.038l-2.57 7.712h4.07a.73.73 0 01.672 1.01l-4.992 11.982c-.08.192-.421.125-.421-.085v-10.72h-3.385c-.546 0-.99-.443-.984-1.088l.885-8.864a1.09 1.09 0 011.089-.985zM9.844 27.344H8.75a1.095 1.095 0 010-2.188c.603 0 1.094.49 1.094 1.094v1.094zm4.375 10.937H12.03v-8.75h2.188v8.75zm2.187 2.188v2.187H9.844V40.47h6.562zm-3.281 6.562a3.277 3.277 0 01-3.08-2.187h6.159a3.274 3.274 0 01-3.079 2.187zm9.844-20.781c0 3.512-1.772 5.669-3.485 7.755-1.073 1.304-2.172 2.65-2.782 4.276h-.296v-8.75H17.5a3.285 3.285 0 003.281-3.281 3.285 3.285 0 00-3.281-3.281 3.285 3.285 0 00-3.281 3.281v1.094H12.03V26.25a3.285 3.285 0 00-3.281-3.281 3.285 3.285 0 00-3.281 3.281 3.285 3.285 0 003.281 3.281h1.094v8.75h-.296c-.609-1.626-1.71-2.971-2.782-4.276-1.713-2.086-3.485-4.243-3.485-7.755 0-5.428 4.417-9.844 9.844-9.844a9.85 9.85 0 017.99 4.107c.359 1.618.978 3.004 1.737 4.252.073.49.117.987.117 1.485zm-6.563 1.094V26.25a1.095 1.095 0 012.188 0c0 .604-.491 1.094-1.094 1.094h-1.094zm22.969 8.75h-8.75v-2.188h8.75v2.188zM35 44.844a2.19 2.19 0 01-2.188-2.188h4.376A2.19 2.19 0 0135 44.844zm3.281-4.375H31.72c-.603 0-1.094-.49-1.094-1.094v-1.094h8.75v1.094c0 .604-.491 1.094-1.094 1.094zm4.738-13.703c-1.174 1.503-2.365 3.07-3.24 4.953h-9.557c-.875-1.884-2.066-3.45-3.24-4.953-2.064-2.639-4.013-5.133-4.013-9.266 0-4.335 2.379-8.333 6.07-10.45l-.586 5.863a3.181 3.181 0 003.162 3.493h1.198v8.532a2.41 2.41 0 002.406 2.406c.975 0 1.846-.581 2.22-1.481l4.99-11.98c.152-.357.227-.735.227-1.122a2.92 2.92 0 00-2.917-2.917h-1.034l1.122-3.365A12.013 12.013 0 0147.031 17.5c0 4.133-1.949 6.627-4.012 9.266zm4.012-.516c0-.498.044-.995.118-1.484.76-1.25 1.379-2.635 1.737-4.254a9.85 9.85 0 017.989-4.106c5.427 0 9.844 4.416 9.844 9.844 0 3.512-1.772 5.669-3.485 7.755-1.073 1.304-2.172 2.65-2.782 4.276h-.296v-8.75h1.094a3.285 3.285 0 003.281-3.281 3.285 3.285 0 00-3.281-3.281 3.285 3.285 0 00-3.281 3.281v1.094H55.78V26.25a3.285 3.285 0 00-3.281-3.281 3.285 3.285 0 00-3.281 3.281 3.285 3.285 0 003.281 3.281h1.094v8.75h-.296c-.609-1.626-1.71-2.971-2.782-4.276-1.713-2.086-3.485-4.243-3.485-7.755zm13.125 1.094V26.25a1.095 1.095 0 012.188 0c0 .604-.491 1.094-1.094 1.094h-1.094zm-6.361 17.5h6.159a3.277 3.277 0 01-3.08 2.187 3.275 3.275 0 01-3.079-2.187z" fill="#000"/></svg>