<svg width="64" height="75" fill="none" xmlns="http://www.w3.org/2000/svg"><path d="M62.242 58.729H-9.633A1.367 1.367 0 00-11 60.096v4.859a1.368 1.368 0 001.367 1.367h71.875a1.367 1.367 0 001.367-1.367v-4.859a1.366 1.366 0 00-1.367-1.367zm-1.367 2.734v2.124h-69.14v-2.124h69.14zm1.367 10.412H-9.633a1.367 1.367 0 100 2.734h71.875a1.367 1.367 0 000-2.734zM5.055 54.313h.083a6.676 6.676 0 004.785-2.086l19.322-20.28.335.337a1.366 1.366 0 001.934 0l2.625-2.625a5.374 5.374 0 002.031.709 2.68 2.68 0 011.55.759l.608.607a3.067 3.067 0 00.74 3.133l3.493 3.493a1.367 1.367 0 001.933 0l9.375-9.375a1.366 1.366 0 000-1.933l-3.487-3.497a3.036 3.036 0 00-2.162-.896c-.33 0-.657.053-.97.157l-.607-.607a2.67 2.67 0 01-.758-1.55 5.435 5.435 0 00-1.538-3.14L27.228.4a1.366 1.366 0 00-1.934 0L22.31 3.384a1.366 1.366 0 00-.252 1.586l.078.156a8.069 8.069 0 01-1.488 9.385 1.368 1.368 0 000 1.934l2.334 2.333-2.488 2.487a1.367 1.367 0 000 1.933l.204.204L.418 42.724a6.723 6.723 0 004.637 11.59zM24.922 4.64l1.339-1.338L42.41 19.45c.417.42.684.964.76 1.55a5.407 5.407 0 001.538 3.14l1.347 1.348a1.367 1.367 0 001.934 0 .325.325 0 01.46 0l2.526 2.527-7.445 7.445-2.527-2.526a.326.326 0 010-.46 1.367 1.367 0 000-1.933l-1.348-1.349a5.431 5.431 0 00-3.141-1.537 2.668 2.668 0 01-1.548-.758l-11.475-11.48a10.79 10.79 0 001.43-10.778zm7.145 23.224l-1.52 1.52-7.152-7.152 1.52-1.52 7.152 7.152zM2.305 44.703l20.328-19.368 4.678 4.678L7.945 50.341a3.96 3.96 0 01-2.839 1.237 4.127 4.127 0 01-2.869-1.172 3.988 3.988 0 01.07-5.707l-.002.003z" fill="#000"/></svg>