<svg width="51" height="51" fill="none" xmlns="http://www.w3.org/2000/svg"><g clip-path="url(#clip0)" fill="#000"><path d="M15.924 30.266h29.46l5.213-18.607h-7.67l-2.755-8.507-11.486 3.723 1.57 4.784h-.54L26.88 3.152 15.394 6.875l1.57 4.784h-6.14l-1.276-5.1c-.642-2.55-2.866-4.356-5.427-4.356H.612v2.132h3.51c1.59 0 2.978 1.061 3.407 2.663l5.64 22.075a4.622 4.622 0 00-1.927 3.764c0 2.55 2.132 4.682 4.682 4.682H44.64v-2.132H15.924c-1.387 0-2.55-1.173-2.55-2.55 0-1.398 1.173-2.57 2.55-2.57zm22.87-24.462l1.919 5.743h-8.294l-1.173-3.295 7.549-2.448zm-13.291 0l1.918 5.743h-8.294l-1.173-3.295 7.549-2.448zm22.33 7.875l-4.04 14.465H15.077L11.354 13.68h36.479zM35.285 40.691c-2.448 0-4.468 2.02-4.468 4.468 0 2.449 2.02 4.468 4.468 4.468 2.55 0 4.469-2.02 4.469-4.468s-2.02-4.468-4.468-4.468zm0 6.917c-1.387 0-2.448-1.174-2.448-2.449 0-1.387 1.173-2.448 2.448-2.448 1.388 0 2.449 1.061 2.449 2.448 0 1.388-1.173 2.449-2.449 2.449zm-16.382-6.917c-2.449 0-4.468 2.02-4.468 4.468 0 2.449 2.02 4.468 4.468 4.468s4.468-2.02 4.468-4.468-2.02-4.468-4.468-4.468zm0 6.917c-1.388 0-2.449-1.174-2.449-2.449 0-1.387 1.174-2.448 2.449-2.448s2.448 1.061 2.448 2.448c0 1.388-1.173 2.449-2.448 2.449z"/></g><defs><clipPath id="clip0"><path fill="#fff" transform="translate(.612 .923)" d="M0 0h49.985v49.985H0z"/></clipPath></defs></svg>