<svg width="53" height="50" fill="none" xmlns="http://www.w3.org/2000/svg"><path d="M52.696 15.289C51.93 6.938 45.95.879 38.466.879c-4.985 0-9.55 2.652-12.119 6.902C23.803 3.476 19.425.877 14.52.877 7.037.877 1.057 6.937.29 15.288c-.06.369-.31 2.31.447 5.476 1.09 4.567 3.608 8.72 7.28 12.01l18.318 16.434 18.633-16.433c3.672-3.29 6.19-7.443 7.28-12.01.757-3.166.508-5.107.448-5.476zm-2.416 5.018c-.996 4.17-3.302 7.97-6.665 10.981l-17.268 15.23-16.97-15.225c-3.368-3.017-5.674-6.816-6.67-10.987-.716-2.996-.422-4.688-.42-4.7l.014-.1C2.958 8.188 8.096 2.877 14.52 2.877c4.739 0 8.911 2.879 10.891 7.513l.931 2.182.932-2.182c1.948-4.563 6.341-7.512 11.193-7.512C44.89 2.878 50.03 8.189 50.7 15.6c.002.016.296 1.71-.42 4.705z" fill="#000"/></svg>