<svg width="20" height="30" fill="none" xmlns="http://www.w3.org/2000/svg"><path d="M10.093 6.574c-2.012 0-3.65 1.721-3.65 3.836 0 2.114 1.638 3.835 3.65 3.835 2.013 0 3.65-1.721 3.65-3.835 0-2.115-1.637-3.836-3.65-3.836zm0 6.575c-1.437 0-2.607-1.229-2.607-2.74 0-1.51 1.17-2.739 2.607-2.739 1.438 0 2.608 1.23 2.608 2.74 0 1.51-1.17 2.739-2.608 2.739z" fill="#000"/><path d="M17.073 3.077C15.183 1.093 12.673 0 10 0 7.329 0 4.818 1.093 2.929 3.077-.566 6.75-1 13.658 1.99 17.844L10 30l8-12.14c3.002-4.202 2.567-11.11-.928-14.783zm.082 14.143l-7.154 10.855-7.166-10.872C.124 13.405.512 7.166 3.667 3.853c1.692-1.778 3.941-2.757 6.334-2.757s4.642.979 6.334 2.756c3.155 3.314 3.544 9.553.82 13.368z" fill="#000"/></svg>