<svg width="30" height="30" fill="none" xmlns="http://www.w3.org/2000/svg"><g clip-path="url(#clip0)" fill="#000"><path d="M29.213 23.144l-6.072-4.05a1.772 1.772 0 00-2.373.386l-1.769 2.274a.756.756 0 01-.97.204l-.335-.185c-1.116-.608-2.504-1.365-5.3-4.162-2.796-2.797-3.554-4.186-4.162-5.3l-.185-.336a.757.757 0 01.2-.973l2.273-1.768c.727-.57.895-1.602.386-2.373L6.856.789A1.763 1.763 0 004.48.254L1.94 1.779A3.582 3.582 0 00.309 3.9C-.607 7.23.08 12.98 8.55 21.45 15.288 28.188 20.304 30 23.75 30c.794.003 1.584-.1 2.35-.307a3.578 3.578 0 002.12-1.634l1.527-2.537a1.763 1.763 0 00-.535-2.378zm-.327 1.865l-1.523 2.539c-.337.576-.883 1-1.525 1.182-3.075.844-8.448.145-16.58-7.987C1.127 12.613.428 7.24 1.272 4.163a2.588 2.588 0 011.183-1.526l2.54-1.524a.765.765 0 011.03.232l2.2 3.303 1.847 2.769a.77.77 0 01-.167 1.03l-2.273 1.768a1.75 1.75 0 00-.464 2.246l.18.328c.64 1.171 1.434 2.63 4.334 5.529 2.9 2.9 4.357 3.694 5.529 4.333l.328.18a1.75 1.75 0 002.246-.463l1.768-2.273a.77.77 0 011.03-.167l6.071 4.05c.341.226.444.68.232 1.03zM17 5.003a8.508 8.508 0 018.498 8.498.5.5 0 101 0 9.509 9.509 0 00-9.499-9.498.5.5 0 100 1z"/><path d="M17 8.002a5.506 5.506 0 015.499 5.5.5.5 0 001 0 6.506 6.506 0 00-6.5-6.5.5.5 0 100 1z"/><path d="M17 11.002a2.503 2.503 0 012.5 2.5.5.5 0 10.999 0 3.503 3.503 0 00-3.5-3.5.5.5 0 100 1z"/></g><defs><clipPath id="clip0"><path fill="#fff" d="M0 0h30v30H0z"/></clipPath></defs></svg>