<svg width="50" height="50" viewBox="0 0 20 20" fill="none" xmlns="http://www.w3.org/2000/svg"><g clip-path="url(#clip0)"><path d="M12.143 4.305V.715a.714.714 0 011.245-.479l6.429 7.143a.714.714 0 01.022.929l-6.429 7.857a.714.714 0 01-1.267-.45v-3.56C6.5 12.339 2.98 14.75 1.391 19.512a.714.714 0 01-1.39-.226C0 10.874 5.063 4.695 12.142 4.305zm.714 6.41c.395 0 .715.319.715.713v2.286l4.773-5.835-4.773-5.303V5c0 .394-.32.714-.715.714-5.614 0-9.815 3.885-11.054 9.813 2.3-3.197 6.001-4.813 11.054-4.813z" fill="#000"/></g><defs><clipPath id="clip0"><path fill="#fff" transform="matrix(-1 0 0 1 20 0)" d="M0 0h20v20H0z"/></clipPath></defs></svg>