<svg width="12" height="12" viewBox="0 0 12 12" fill="none" xmlns="http://www.w3.org/2000/svg">
<path d="M11.6 0.399808C11.3745 0.174231 11.0098 0.174231 10.7843 0.399808L5.99984 5.18423L1.21542 0.399808C0.989845 0.174231 0.625228 0.174231 0.399651 0.399808C0.174075 0.625385 0.174075 0.990001 0.399651 1.21558L5.18407 6L0.399651 10.7844C0.174075 11.01 0.174075 11.3746 0.399651 11.6002C0.512151 11.7127 0.659844 11.7692 0.807536 11.7692C0.955229 11.7692 1.10292 11.7127 1.21542 11.6002L5.99984 6.81577L10.7843 11.6002C10.8968 11.7127 11.0445 11.7692 11.1922 11.7692C11.3398 11.7692 11.4875 11.7127 11.6 11.6002C11.8256 11.3746 11.8256 11.01 11.6 10.7844L6.81561 6L11.6 1.21558C11.8256 0.990001 11.8256 0.625385 11.6 0.399808Z" fill="black"/>
</svg>
