<svg width="50" height="40" viewBox="0 0 50 40" fill="none" xmlns="http://www.w3.org/2000/svg">
<path d="M29.1671 38.7383C29.1666 38.4618 29.276 38.1965 29.4713 38.0008L47.4858 19.9883L29.4712 1.97578C29.0715 1.56201 29.083 0.902538 29.4968 0.502831C29.9005 0.112987 30.5404 0.112987 30.944 0.502831L49.694 19.2528C50.1007 19.6596 50.1007 20.3189 49.694 20.7258L30.944 39.4758C30.5366 39.8819 29.877 39.881 29.4709 39.4734C29.2764 39.2782 29.1671 39.0139 29.1671 38.7383Z" fill="black"/>
<path d="M-4.55345e-08 19.9882C-2.03874e-08 19.4129 0.466406 18.9465 1.0417 18.9465L48.9583 18.9465C49.5336 18.9465 50 19.4129 50 19.9882C50 20.5635 49.5336 21.0299 48.9583 21.0299L1.0416 21.0299C0.466404 21.0298 -7.06815e-08 20.5635 -4.55345e-08 19.9882Z" fill="black"/>
</svg>
