<svg width="20" height="20" viewBox="0 0 20 20" fill="none" xmlns="http://www.w3.org/2000/svg">
<path d="M20 11.8751C20 11.3742 19.8008 10.9076 19.4575 10.5634C19.8467 10.1376 20.045 9.56671 19.9908 8.97257C19.8933 7.91339 18.9391 7.08339 17.8175 7.08339H12.67C12.925 6.30921 13.3333 4.89007 13.3333 3.75007C13.3333 1.94257 11.7975 0.416748 10.8333 0.416748C9.96832 0.416748 9.34914 0.904248 9.32332 0.924248C9.22414 1.00343 9.16664 1.12343 9.16664 1.25007V4.07589L6.76582 9.27507L6.66664 9.32589V9.16671C6.66664 8.93671 6.47996 8.75003 6.24996 8.75003H2.08332C0.93418 8.75007 0 9.68425 0 10.8334V17.5001C0 18.6492 0.93418 19.5834 2.08332 19.5834H4.58332C5.48414 19.5834 6.25414 19.0084 6.54414 18.2059C7.2375 18.5626 8.17082 18.7501 8.75 18.7501H16.3992C17.3067 18.7501 18.1009 18.1384 18.2875 17.2951C18.3833 16.8601 18.3275 16.4226 18.1375 16.0426C18.7525 15.7334 19.1667 15.0976 19.1667 14.3751C19.1667 14.0801 19.0992 13.7976 18.9717 13.5426C19.5867 13.2326 20 12.5976 20 11.8751ZM18.2425 12.9034C18.0817 12.9226 17.9458 13.0317 17.8942 13.1859C17.8434 13.3401 17.8859 13.5092 18.0042 13.6209C18.2159 13.8201 18.3334 14.0884 18.3334 14.3751C18.3334 14.9009 17.9359 15.3426 17.41 15.4034C17.2492 15.4226 17.1134 15.5317 17.0617 15.6859C17.0109 15.8401 17.0534 16.0092 17.1717 16.1209C17.4459 16.3792 17.5559 16.7417 17.4734 17.1151C17.3709 17.5801 16.9192 17.9167 16.3992 17.9167H8.75C8.07332 17.9167 6.93832 17.5992 6.545 17.2051C6.42582 17.0867 6.24582 17.0517 6.09082 17.1151C5.935 17.1792 5.83332 17.3317 5.83332 17.5001C5.83332 18.1892 5.2725 18.7501 4.58332 18.7501H2.08332C1.39414 18.7501 0.83332 18.1892 0.83332 17.5001V10.8334C0.83332 10.1442 1.39414 9.58339 2.08332 9.58339H5.83332V10.0001C5.83332 10.1442 5.90832 10.2784 6.03164 10.3551C6.15332 10.4284 6.30664 10.4359 6.43664 10.3726L7.26996 9.95589C7.35414 9.91421 7.42164 9.84421 7.46164 9.75839L9.96164 4.34171C9.98664 4.28671 9.99996 4.22671 9.99996 4.16671V1.47589C10.1733 1.38007 10.4742 1.25007 10.8333 1.25007C11.29 1.25007 12.5 2.38507 12.5 3.75007C12.5 5.21675 11.7017 7.33089 11.6942 7.35175C11.6459 7.47925 11.6625 7.62343 11.74 7.73675C11.8183 7.84925 11.9467 7.91675 12.0833 7.91675H17.8175C18.5125 7.91675 19.1025 8.41425 19.1608 9.04925C19.205 9.52425 18.9766 9.97593 18.5675 10.2284C18.44 10.3067 18.3642 10.4484 18.37 10.5992C18.3758 10.7501 18.4625 10.8851 18.5958 10.9542C18.9483 11.1334 19.1666 11.4867 19.1666 11.8751C19.1667 12.4009 18.7692 12.8426 18.2425 12.9034Z" fill="black"/>
<path d="M6.24969 9.58325C6.01969 9.58325 5.83301 9.76993 5.83301 9.99993V17.4999C5.83301 17.7299 6.01969 17.9166 6.24969 17.9166C6.47969 17.9166 6.66637 17.7299 6.66637 17.4999V9.99993C6.66637 9.76993 6.47969 9.58325 6.24969 9.58325Z" fill="black"/>
</svg>
