<?xml version="1.0" encoding="UTF-8" standalone="no"?>
<svg
   xmlns:dc="http://purl.org/dc/elements/1.1/"
   xmlns:cc="http://creativecommons.org/ns#"
   xmlns:rdf="http://www.w3.org/1999/02/22-rdf-syntax-ns#"
   xmlns:svg="http://www.w3.org/2000/svg"
   xmlns="http://www.w3.org/2000/svg"
   xmlns:sodipodi="http://sodipodi.sourceforge.net/DTD/sodipodi-0.dtd"
   xmlns:inkscape="http://www.inkscape.org/namespaces/inkscape"
   inkscape:version="1.0 (4035a4fb49, 2020-05-01)"
   height="420.60001"
   width="344.39999"
   sodipodi:docname="logo.svg"
   xml:space="preserve"
   viewBox="0 0 344.39998 420.60001"
   y="0px"
   x="0px"
   id="Слой_1"
   version="1.1"><metadata
   id="metadata445"><rdf:RDF><cc:Work
       rdf:about=""><dc:format>image/svg+xml</dc:format><dc:type
         rdf:resource="http://purl.org/dc/dcmitype/StillImage" /><dc:title></dc:title></cc:Work></rdf:RDF></metadata><defs
   id="defs443" /><sodipodi:namedview
   inkscape:current-layer="g291"
   inkscape:window-maximized="1"
   inkscape:window-y="0"
   inkscape:window-x="0"
   inkscape:cy="304.64317"
   inkscape:cx="392.24674"
   inkscape:zoom="0.72922155"
   showgrid="false"
   id="namedview441"
   inkscape:window-height="835"
   inkscape:window-width="1600"
   inkscape:pageshadow="2"
   inkscape:pageopacity="0"
   guidetolerance="10"
   gridtolerance="10"
   objecttolerance="10"
   borderopacity="1"
   bordercolor="#666666"
   pagecolor="#ffffff" />
<style
   id="style279"
   type="text/css">
	.st0{fill:url(#SVGID_1_);}
	.st1{fill:url(#SVGID_2_);}
	.st2{fill:url(#SVGID_3_);}
	.st3{fill:url(#SVGID_4_);}
	.st4{fill:url(#SVGID_5_);}
	.st5{fill:url(#SVGID_6_);}
	.st6{fill:url(#SVGID_7_);}
	.st7{fill:url(#SVGID_8_);}
	.st8{fill:url(#SVGID_9_);}
	.st9{fill:url(#SVGID_10_);}
	.st10{fill:url(#SVGID_11_);}
</style>
<g
   transform="translate(-238.3,-71.8)"
   id="g291">
	<path
   id="path281"
   d="m 296.7,491.9 h -7.8 c -1.1,0 -2,-0.4 -2.8,-1.2 -0.8,-0.8 -1.2,-1.7 -1.2,-2.8 v -44.4 h -30.7 v 44.4 c 0,1.1 -0.4,2 -1.2,2.8 -0.8,0.8 -1.7,1.2 -2.8,1.2 h -7.9 c -1.1,0 -2,-0.4 -2.8,-1.2 -0.8,-0.8 -1.2,-1.7 -1.2,-2.8 v -52.3 c 0,-1.1 0.4,-2 1.1,-2.8 0.7,-0.8 1.7,-1.2 2.8,-1.2 h 54.5 c 1.1,0 2,0.4 2.8,1.2 0.8,0.8 1.2,1.7 1.2,2.8 v 52.3 c 0,1.1 -0.4,2 -1.2,2.8 -0.8,0.8 -1.7,1.2 -2.8,1.2 z" />
	<path
   id="path283"
   d="m 307.8,488 10.6,-40 c 2.9,-10.9 12.2,-16.3 27.9,-16.3 h 22.6 c 1,0 1.9,0.4 2.6,1.2 0.7,0.8 1,1.7 1,2.7 V 488 c 0,1.1 -0.4,2 -1.2,2.8 -0.8,0.7 -1.7,1.1 -2.8,1.1 h -7.9 c -1.1,0 -2.1,-0.4 -2.8,-1.1 -0.7,-0.7 -1.1,-1.7 -1.1,-2.8 v -10.6 h -29.8 l -2.8,10.6 c -0.3,1.1 -0.9,2.1 -1.9,2.8 -1,0.7 -2,1.1 -3.1,1.1 h -8.3 c -1.1,0 -1.9,-0.4 -2.5,-1.1 -0.7,-0.8 -0.8,-1.7 -0.5,-2.8 z m 25.8,-36 -3.7,13.5 h 26.8 v -21.9 h -12 c -2.7,0 -5,0.8 -7.1,2.3 -2,1.5 -3.3,3.5 -4,6.1 z" />
	<path
   id="path285"
   d="m 388.4,431.7 h 32.1 c 16.9,0 25.4,7.8 25.4,23.4 0,15.6 -8.5,23.4 -25.4,23.4 h -20.1 v 9.5 c 0,1.1 -0.4,2 -1.2,2.8 -0.8,0.8 -1.7,1.2 -2.8,1.2 h -7.9 c -1.1,0 -2,-0.4 -2.8,-1.2 -0.8,-0.8 -1.2,-1.7 -1.2,-2.8 v -52.3 c 0,-1.1 0.4,-2 1.1,-2.8 0.8,-0.8 1.7,-1.2 2.8,-1.2 z m 27.2,11.9 h -15.3 v 23.1 h 15.3 c 4.7,0 8.3,-0.8 10.7,-2.4 2.4,-1.6 3.7,-4.6 3.7,-9.2 0,-4.5 -1.2,-7.6 -3.7,-9.2 -2.4,-1.6 -6,-2.3 -10.7,-2.3 z" />
	<path
   id="path287"
   d="m 464.9,479.3 h 1.4 c 0.7,0 1.9,0.1 3.4,0.4 1.5,0.3 2.8,0.4 3.6,0.4 h 0.9 c 5.6,0 9.4,-3.6 11.4,-10.9 H 482 c -7.1,0 -12.6,-1.4 -16.5,-4.3 -4,-2.9 -7.3,-7.5 -10.2,-14 l -6.6,-15.1 c -0.5,-1.1 -0.5,-2 0,-2.8 0.5,-0.8 1.2,-1.2 2.3,-1.2 h 8.9 c 2.7,0 4.6,1.3 5.6,3.8 l 4.8,11.7 c 1.4,3.4 3.2,5.9 5.4,7.6 2.2,1.7 5,2.5 8.6,2.5 h 5.2 l 7.6,-21.7 c 0.4,-1.2 1.1,-2.2 2.1,-2.8 1,-0.7 2,-1 3.2,-1 h 8.5 c 1.1,0 1.9,0.4 2.4,1.1 0.5,0.7 0.6,1.6 0.3,2.7 l -13.7,39.2 c -1.9,5.5 -4.8,9.7 -8.6,12.7 -3.8,3 -9.2,4.5 -16.1,4.5 H 465 c -1.1,0 -2,-0.4 -2.8,-1.2 -0.8,-0.8 -1.2,-1.7 -1.2,-2.8 v -4.7 c 0,-1.1 0.4,-2 1.1,-2.8 0.7,-1 1.7,-1.3 2.8,-1.3 z" />
	<path
   id="path289"
   d="m 524.9,484.8 c -5.2,-5 -7.8,-12.6 -7.8,-23 0,-10.4 2.6,-18 7.8,-23 5.2,-5 13,-7.4 23.4,-7.4 h 9.4 c 6.4,0 12,1.6 16.9,4.9 4.9,3.3 7.3,7.8 7.3,13.5 0,1.7 -0.5,2.9 -1.5,3.6 -1,0.7 -1.9,1.1 -2.8,1.1 h -5 c -2.6,0 -4.6,-1.5 -6,-4.6 -2.1,-4.4 -5.5,-6.6 -10.3,-6.6 h -7.5 c -6.1,0 -10.3,1.3 -12.5,4 -2.2,2.6 -3.3,7.5 -3.3,14.6 0,7.1 1.1,12 3.3,14.6 2.2,2.6 6.3,4 12.5,4 h 8.3 c 4.8,0 8.3,-2.2 10.3,-6.6 1.4,-3.1 3.4,-4.6 6,-4.6 h 5 c 0.5,0 1.1,0.1 1.6,0.3 0.6,0.2 1.2,0.7 1.8,1.5 0.6,0.8 0.9,1.7 0.9,2.9 0,5.7 -2.4,10.3 -7.3,13.5 -4.9,3.3 -10.5,4.9 -16.9,4.9 h -10.2 c -10.4,-0.2 -18.2,-2.6 -23.4,-7.6 z" />
</g>
<g
   transform="translate(-238.3,-71.8)"
   id="g438">
	<linearGradient
   y2="206.63"
   x2="525.9043"
   y1="206.63"
   x1="249.8651"
   gradientUnits="userSpaceOnUse"
   id="SVGID_1_">
		<stop
   id="stop293"
   style="stop-color:#E9A854"
   offset="0" />
		<stop
   id="stop295"
   style="stop-color:#E8A453"
   offset="0.1673" />
		<stop
   id="stop297"
   style="stop-color:#E59A51"
   offset="0.3598" />
		<stop
   id="stop299"
   style="stop-color:#E08B4D"
   offset="0.5646" />
		<stop
   id="stop301"
   style="stop-color:#DB7849"
   offset="0.778" />
		<stop
   id="stop303"
   style="stop-color:#D76446"
   offset="0.9951" />
	</linearGradient>
	<path
   style="fill:url(#SVGID_1_)"
   id="path306"
   d="m 301.9,341.6 c 0,0 -1.4,-1.3 -4,-3.7 -0.6,-0.6 -1.4,-1.3 -2.2,-2.1 -0.8,-0.8 -1.6,-1.7 -2.5,-2.6 -0.9,-0.9 -1.9,-1.9 -2.9,-3 -1,-1.1 -2,-2.3 -3.1,-3.6 -0.6,-0.6 -1.1,-1.3 -1.7,-2 -0.6,-0.7 -1.1,-1.4 -1.7,-2.1 -1.1,-1.5 -2.4,-3 -3.6,-4.6 -1.2,-1.7 -2.4,-3.4 -3.6,-5.2 -0.6,-0.9 -1.2,-1.9 -1.8,-2.8 -0.6,-1 -1.2,-2 -1.8,-3 -4.9,-8.1 -9.6,-17.7 -13.4,-28.8 -3.8,-11.1 -6.5,-23.6 -7.7,-37.1 -0.1,-0.8 -0.2,-1.7 -0.2,-2.5 0,-0.8 -0.1,-1.7 -0.1,-2.6 0,-0.9 -0.1,-1.7 -0.1,-2.6 l -0.1,-1.3 c 0,-0.4 0,-0.9 0,-1.3 0,-1.7 0,-3.5 0,-5.2 v -1.3 l 0.1,-1.3 c 0,-0.9 0.1,-1.8 0.1,-2.7 0.1,-3.6 0.5,-7.1 0.9,-10.7 0.2,-1.8 0.5,-3.6 0.8,-5.4 0.1,-0.9 0.3,-1.8 0.4,-2.7 0.2,-0.9 0.4,-1.8 0.5,-2.7 1.3,-7.3 3.4,-14.6 5.9,-21.8 0.7,-1.8 1.3,-3.6 2,-5.4 0.7,-1.8 1.5,-3.6 2.2,-5.3 0.4,-0.9 0.7,-1.8 1.2,-2.7 l 1.3,-2.6 1.3,-2.6 0.6,-1.3 0.7,-1.3 c 0.9,-1.7 1.9,-3.4 2.8,-5.1 1,-1.7 2,-3.4 3.1,-5 l 1.6,-2.5 1.7,-2.4 1.7,-2.4 c 0.6,-0.8 1.1,-1.6 1.7,-2.4 1.2,-1.6 2.4,-3.1 3.6,-4.7 0.3,-0.4 0.6,-0.8 0.9,-1.2 l 1,-1.1 1.9,-2.3 1.9,-2.3 c 0.6,-0.8 1.3,-1.5 2,-2.2 l 4.2,-4.4 4.1,-3.9 1,-1 c 0.3,-0.3 0.7,-0.7 1.1,-1 l 2.3,-2 2.3,-2 1.2,-1 c 0.4,-0.3 0.8,-0.6 1.2,-0.9 1.6,-1.2 3.1,-2.4 4.7,-3.6 0.8,-0.6 1.6,-1.2 2.4,-1.7 l 2.4,-1.7 2.4,-1.7 2.5,-1.6 c 1.7,-1 3.3,-2.1 5,-3.1 1.7,-0.9 3.4,-1.9 5.1,-2.8 6.9,-3.6 14,-6.8 21.2,-9.2 7.2,-2.5 14.5,-4.6 21.8,-5.9 0.9,-0.2 1.8,-0.4 2.7,-0.5 0.9,-0.1 1.8,-0.3 2.7,-0.4 1.8,-0.3 3.6,-0.6 5.4,-0.8 3.6,-0.4 7.2,-0.8 10.7,-0.9 0.9,0 1.8,-0.1 2.7,-0.1 l 1.3,-0.1 h 1.3 c 1.8,0 3.5,0 5.2,0 0.4,0 0.9,0 1.3,0 l 1.3,0.1 c 0.9,0 1.7,0.1 2.6,0.1 0.9,0 1.7,0.1 2.6,0.1 0.8,0 1.7,0.1 2.5,0.2 13.5,1.2 26,3.9 37.1,7.7 11.1,3.8 20.7,8.5 28.8,13.4 1,0.6 2,1.2 3,1.8 1,0.6 1.9,1.2 2.8,1.8 1.8,1.2 3.6,2.5 5.2,3.6 1.6,1.2 3.2,2.4 4.6,3.6 0.7,0.6 1.5,1.1 2.1,1.7 0.7,0.6 1.3,1.1 2,1.7 1.3,1.1 2.5,2.1 3.6,3.1 1.1,1 2.1,2 3,2.9 0.9,0.9 1.8,1.7 2.6,2.5 0.8,0.8 1.4,1.5 2.1,2.2 2.4,2.6 3.7,4 3.7,4 0,0 -1.5,-1.2 -4.2,-3.5 -0.7,-0.6 -1.4,-1.2 -2.3,-1.9 -0.9,-0.7 -1.8,-1.4 -2.9,-2.2 -1,-0.8 -2.1,-1.6 -3.3,-2.5 -1.2,-0.8 -2.5,-1.7 -3.9,-2.7 -0.7,-0.5 -1.4,-1 -2.1,-1.4 -0.7,-0.5 -1.5,-0.9 -2.3,-1.4 -1.6,-1 -3.2,-2 -4.9,-3 -1.7,-1 -3.5,-2 -5.4,-3 -0.9,-0.5 -1.9,-1 -2.9,-1.5 -1,-0.5 -2,-1 -3,-1.5 -8.2,-4 -17.8,-7.7 -28.6,-10.6 -0.7,-0.2 -1.3,-0.4 -2,-0.5 -0.7,-0.2 -1.4,-0.3 -2.1,-0.5 -1.4,-0.3 -2.8,-0.7 -4.2,-1 -1.4,-0.3 -2.9,-0.5 -4.3,-0.8 -0.7,-0.1 -1.5,-0.3 -2.2,-0.4 -0.7,-0.1 -1.5,-0.2 -2.2,-0.3 -1.5,-0.2 -3,-0.4 -4.5,-0.6 -1.5,-0.2 -3,-0.3 -4.6,-0.5 -0.8,-0.1 -1.5,-0.1 -2.3,-0.2 l -1.2,-0.1 h -1.2 c -1.6,-0.1 -3.1,-0.1 -4.7,-0.2 -1.6,-0.1 -3.2,0 -4.8,0 -0.8,0 -1.6,0 -2.4,0 h -1.2 c -0.4,0 -0.8,0 -1.2,0.1 -1.6,0.1 -3.3,0.2 -4.9,0.2 l -1.2,0.1 -1.2,0.1 c -0.8,0.1 -1.6,0.2 -2.5,0.2 -3.3,0.2 -6.6,0.8 -10,1.2 -1.7,0.3 -3.3,0.6 -5,0.9 -0.8,0.2 -1.7,0.3 -2.5,0.5 -0.8,0.2 -1.7,0.4 -2.5,0.6 -6.7,1.5 -13.4,3.6 -20,6 -1.6,0.6 -3.3,1.3 -4.9,1.9 -1.6,0.7 -3.2,1.5 -4.9,2.2 -0.8,0.4 -1.6,0.7 -2.4,1.1 l -2.4,1.2 -2.4,1.2 -1.2,0.6 -1.2,0.7 c -1.6,0.9 -3.1,1.8 -4.7,2.7 -1.6,0.9 -3.1,1.9 -4.6,2.9 l -2.3,1.5 -2.2,1.6 -2.2,1.6 c -0.7,0.5 -1.5,1 -2.2,1.6 -1.4,1.1 -2.9,2.2 -4.3,3.4 -0.4,0.3 -0.7,0.6 -1.1,0.8 l -1,0.9 -2,1.7 -2,1.7 c -0.3,0.3 -0.7,0.6 -1,0.9 l -1,1 -4.1,3.9 -3.7,3.8 c -0.6,0.7 -1.3,1.3 -1.9,2 l -1.8,2.1 -1.8,2.1 -0.9,1 c -0.3,0.3 -0.6,0.7 -0.8,1.1 -1.1,1.4 -2.2,2.9 -3.4,4.3 -4.3,5.9 -8.3,11.9 -11.7,18.2 l -0.7,1.2 -0.6,1.2 -1.2,2.4 -1.2,2.4 c -0.4,0.8 -0.7,1.6 -1.1,2.4 -0.7,1.6 -1.5,3.2 -2.2,4.9 -0.6,1.7 -1.3,3.3 -1.9,4.9 -0.7,1.6 -1.2,3.3 -1.8,5 -0.5,1.7 -1.2,3.3 -1.6,5 -0.5,1.7 -1,3.3 -1.4,5 -0.4,1.7 -0.8,3.4 -1.2,5 -0.2,0.8 -0.4,1.7 -0.6,2.5 -0.2,0.8 -0.3,1.7 -0.5,2.5 -0.3,1.7 -0.7,3.3 -0.9,5 -0.4,3.3 -1,6.7 -1.2,10 -0.1,0.8 -0.2,1.6 -0.2,2.5 l -0.1,1.2 -0.1,1.2 c -0.1,1.6 -0.2,3.3 -0.2,4.9 0,0.4 0,0.8 -0.1,1.2 v 1.2 c 0,0.8 0,1.6 0,2.4 0,1.6 -0.1,3.2 0,4.8 0.1,1.6 0.1,3.2 0.2,4.7 v 1.2 l 0.1,1.2 c 0.1,0.8 0.1,1.5 0.2,2.3 0.2,1.5 0.2,3.1 0.5,4.6 0.2,1.5 0.4,3 0.6,4.5 0.1,0.7 0.2,1.5 0.3,2.2 0.1,0.7 0.3,1.5 0.4,2.2 0.3,1.4 0.5,2.9 0.8,4.3 0.3,1.4 0.6,2.8 1,4.2 0.2,0.7 0.3,1.4 0.5,2.1 0.2,0.7 0.3,1.4 0.5,2 2.9,10.8 6.6,20.4 10.6,28.6 0.5,1 1,2 1.5,3 0.5,1 0.9,2 1.5,2.9 1,1.9 2,3.7 3,5.4 1,1.7 2,3.3 3,4.9 0.5,0.8 0.9,1.5 1.4,2.3 0.5,0.7 1,1.4 1.4,2.1 0.9,1.4 1.8,2.7 2.7,3.9 0.9,1.2 1.7,2.3 2.5,3.3 0.8,1 1.5,2 2.2,2.9 0.7,0.9 1.3,1.6 1.9,2.3 2.4,2.7 3.6,4.1 3.6,4.1 z"
   class="st0" />
	<linearGradient
   y2="223.3015"
   x2="432.62079"
   y1="223.3015"
   x1="336.91519"
   gradientUnits="userSpaceOnUse"
   id="SVGID_2_">
		<stop
   id="stop308"
   style="stop-color:#36828B"
   offset="0" />
		<stop
   id="stop310"
   style="stop-color:#367E89"
   offset="0.2174" />
		<stop
   id="stop312"
   style="stop-color:#347582"
   offset="0.4395" />
		<stop
   id="stop314"
   style="stop-color:#316677"
   offset="0.6637" />
		<stop
   id="stop316"
   style="stop-color:#2C5267"
   offset="0.8881" />
		<stop
   id="stop318"
   style="stop-color:#2A485F"
   offset="0.9951" />
	</linearGradient>
	<path
   style="fill:url(#SVGID_2_)"
   id="path321"
   d="m 399.5,131.2 c 0,0 -0.6,0.8 -1.8,2.3 -1.2,1.5 -2.8,3.8 -5,6.6 -2.1,2.9 -4.6,6.4 -7.4,10.4 -2.8,4.1 -5.9,8.7 -9.1,13.8 -3.2,5.1 -6.6,10.7 -9.9,16.8 -3.3,6 -6.6,12.5 -9.5,19.4 -1.5,3.4 -2.9,6.9 -4.1,10.5 -1.3,3.6 -2.4,7.3 -3.4,11 -1.9,7.5 -3.2,15.2 -3.3,22.8 -0.1,3.8 0.2,7.6 0.8,11.4 l 0.5,2.8 c 0.2,0.9 0.4,1.8 0.6,2.7 l 0.4,1.3 0.2,0.7 v 0.2 0.1 c 0.1,0.2 0,-0.1 0,-0.1 l 0.1,0.4 c 0.3,1 0.6,1.9 1,2.8 l 0.5,1.4 c 0.1,0.2 0.2,0.5 0.2,0.7 l 0.3,0.6 c 0.4,0.8 0.7,1.7 1.1,2.5 l 0.5,1.3 0.6,1.2 c 0.4,0.8 0.8,1.6 1.2,2.5 0.2,0.4 0.4,0.8 0.7,1.2 l 0.7,1.2 c 0.5,0.8 0.9,1.6 1.4,2.3 0.5,0.7 1,1.5 1.6,2.2 l 0.8,1.1 c 0.3,0.4 0.6,0.7 0.8,1 4.5,5.5 9.8,10.2 15.4,13.6 0.7,0.4 1.4,0.9 2.1,1.3 0.7,0.4 1.4,0.8 2.1,1.2 1.4,0.8 2.9,1.5 4.3,2.1 0.7,0.4 1.4,0.7 2.2,0.9 0.7,0.3 1.4,0.6 2.1,0.9 1.4,0.5 2.9,1.1 4.3,1.5 5.6,1.9 11,3.1 15.8,3.9 4.8,0.8 9.1,1.3 12.6,1.5 3.5,0.2 6.3,0.3 8.2,0.3 1.9,0 2.9,0 2.9,0 0,0 -1,0.2 -2.9,0.5 -1.9,0.3 -4.7,0.7 -8.3,0.9 -3.6,0.2 -8,0.4 -13,0.1 -5,-0.3 -10.7,-0.9 -16.8,-2.3 -6.1,-1.4 -12.6,-3.7 -19.1,-7.2 -6.5,-3.4 -12.8,-8.3 -18.1,-14.4 -0.3,-0.4 -0.7,-0.7 -1,-1.1 l -0.9,-1.2 c -0.6,-0.8 -1.3,-1.6 -1.9,-2.4 -0.6,-0.8 -1.1,-1.7 -1.7,-2.6 l -0.9,-1.3 c -0.3,-0.4 -0.6,-0.9 -0.8,-1.3 -0.5,-0.9 -1,-1.8 -1.5,-2.7 l -0.8,-1.4 -0.7,-1.5 c -0.4,-1 -0.9,-2 -1.3,-3 L 342,272 c -0.1,-0.2 -0.2,-0.5 -0.3,-0.7 l -0.5,-1.4 c -0.3,-0.9 -0.7,-1.9 -1,-2.8 l -0.1,-0.4 -0.1,-0.2 v -0.1 l -0.1,-0.2 -0.2,-0.8 -0.5,-1.6 c -0.3,-1 -0.5,-2.1 -0.8,-3.1 -0.2,-1.1 -0.4,-2.1 -0.6,-3.2 -0.7,-4.3 -1,-8.6 -0.9,-12.9 0.1,-8.6 1.6,-17 3.9,-25 1.1,-4 2.5,-7.9 3.9,-11.6 1.5,-3.8 3.1,-7.4 4.8,-10.9 3.4,-7 7.1,-13.5 10.9,-19.5 3.8,-6 7.7,-11.4 11.4,-16.3 3.7,-4.9 7.4,-9.2 10.7,-12.9 3.3,-3.8 6.3,-6.9 8.8,-9.5 2.5,-2.6 4.5,-4.5 5.9,-5.8 1.5,-1.2 2.3,-1.9 2.3,-1.9 z"
   class="st1" />
	<linearGradient
   y2="200.6091"
   x2="469.70551"
   y1="200.6091"
   x1="384.70569"
   gradientUnits="userSpaceOnUse"
   id="SVGID_3_">
		<stop
   id="stop323"
   style="stop-color:#36828B"
   offset="0" />
		<stop
   id="stop325"
   style="stop-color:#347280"
   offset="6.233393e-02" />
		<stop
   id="stop327"
   style="stop-color:#306173"
   offset="0.1528" />
		<stop
   id="stop329"
   style="stop-color:#2D556A"
   offset="0.2583" />
		<stop
   id="stop331"
   style="stop-color:#2B4D63"
   offset="0.3867" />
		<stop
   id="stop333"
   style="stop-color:#2A4960"
   offset="0.5617" />
		<stop
   id="stop335"
   style="stop-color:#2A485F"
   offset="0.9951" />
	</linearGradient>
	<path
   style="fill:url(#SVGID_3_)"
   id="path338"
   d="m 388.8,87 c 0,0 0.7,0.7 1.9,2.1 1.2,1.4 3,3.4 5.3,6.1 2.2,2.7 4.9,5.9 7.9,9.7 1.5,1.9 3.1,3.9 4.7,6.1 1.7,2.1 3.4,4.4 5.1,6.8 1.8,2.4 3.6,4.9 5.4,7.5 1.9,2.6 3.8,5.3 5.7,8.1 3.9,5.6 7.8,11.6 11.7,18 1.9,3.2 3.9,6.4 5.8,9.7 1.9,3.3 3.8,6.7 5.7,10.2 1.9,3.4 3.7,7 5.4,10.6 1.8,3.6 3.4,7.2 5,10.9 1.6,3.7 3.1,7.4 4.5,11.2 1.3,3.8 2.6,7.7 3.6,11.6 1,3.9 1.8,7.9 2.3,12 l 0.2,1.5 0.1,1.5 c 0.1,1 0.1,2.1 0.2,3.1 v 0.4 0.4 0.7 1.4 c 0,0.9 0,1.8 0,2.8 -0.1,1.9 -0.1,3.9 -0.3,5.7 -0.1,0.9 -0.1,1.9 -0.2,2.8 -0.1,0.9 -0.2,1.8 -0.3,2.8 -0.4,3.6 -1,7.2 -1.6,10.6 -0.7,3.4 -1.4,6.7 -2.4,9.9 -0.4,1.6 -0.9,3.1 -1.4,4.6 -0.5,1.5 -1,3 -1.5,4.4 -1.1,2.8 -2.2,5.5 -3.3,8 -1.1,2.5 -2.3,4.8 -3.5,7 -1.2,2.2 -2.4,4.1 -3.5,5.9 -1.1,1.8 -2.2,3.4 -3.3,4.8 -2,2.8 -3.8,4.9 -5.1,6.3 -0.6,0.7 -1.1,1.2 -1.5,1.5 -0.3,0.3 -0.5,0.5 -0.5,0.5 0,0 0.5,-0.8 1.4,-2.4 0.9,-1.6 2.2,-4 3.6,-7.1 1.4,-3.1 3.1,-6.9 4.7,-11.4 0.8,-2.2 1.6,-4.6 2.4,-7.1 0.4,-1.3 0.8,-2.6 1.1,-3.9 0.4,-1.3 0.7,-2.7 1.1,-4.1 1.4,-5.6 2.5,-11.7 3.3,-18.3 0.3,-3.3 0.7,-6.6 0.8,-10.1 0,-0.9 0.1,-1.7 0.1,-2.6 0,-0.9 0,-1.7 0.1,-2.6 0.1,-1.8 0,-3.5 0,-5.2 0,-0.9 -0.1,-1.8 -0.1,-2.8 v -1.4 -0.7 -0.2 -0.1 c 0,0 0,-0.1 0,0 v -0.3 c -0.1,-0.8 -0.1,-1.7 -0.2,-2.6 l -0.1,-1.3 -0.2,-1.3 c -0.5,-3.5 -1.3,-7 -2.3,-10.6 -1,-3.6 -2.1,-7.2 -3.4,-10.7 -1.3,-3.6 -2.7,-7.2 -4.2,-10.7 -1.5,-3.6 -3.1,-7.1 -4.7,-10.6 -1.6,-3.5 -3.3,-7 -5,-10.4 -1.7,-3.4 -3.4,-6.8 -5.2,-10.2 -1.7,-3.3 -3.5,-6.6 -5.3,-9.8 -3.5,-6.4 -7,-12.6 -10.3,-18.5 -3.3,-5.9 -6.6,-11.4 -9.6,-16.4 -3,-5.1 -5.8,-9.7 -8.2,-13.8 -2.5,-4.1 -4.6,-7.7 -6.4,-10.7 -3.4,-5.9 -5.5,-9.3 -5.5,-9.3 z"
   class="st2" />
	<linearGradient
   y2="349.49301"
   x2="498.905"
   y1="349.49301"
   x1="339.94061"
   gradientUnits="userSpaceOnUse"
   id="SVGID_4_">
		<stop
   id="stop340"
   style="stop-color:#36828B"
   offset="0" />
		<stop
   id="stop342"
   style="stop-color:#367E89"
   offset="0.2174" />
		<stop
   id="stop344"
   style="stop-color:#347582"
   offset="0.4395" />
		<stop
   id="stop346"
   style="stop-color:#316677"
   offset="0.6637" />
		<stop
   id="stop348"
   style="stop-color:#2C5267"
   offset="0.8881" />
		<stop
   id="stop350"
   style="stop-color:#2A485F"
   offset="0.9951" />
	</linearGradient>
	<path
   style="fill:url(#SVGID_4_)"
   id="path353"
   d="m 346.2,337.7 c 0,0 2,-0.5 5.7,-1.5 3.7,-0.9 9.2,-2.3 16.3,-3.6 7,-1.4 15.7,-2.7 25.6,-3.7 5,-0.5 10.3,-0.9 15.9,-1.1 5.6,-0.2 11.5,-0.2 17.7,0 6.2,0.2 12.6,0.6 19.3,1.4 6.6,0.8 13.5,1.8 20.4,3.2 7,1.4 14.1,3.2 21.2,5.3 1.7,0.5 3.4,1 5.2,1.4 0.5,0.1 0.9,0.2 1.5,0.4 0.3,0.1 0.6,0.2 1,0.4 0.2,0.1 0.5,0.2 0.9,0.5 0.4,0.3 0.9,0.7 1.2,1.4 0.1,0.3 0.2,0.6 0.3,0.9 0.1,0.7 0,0.3 0.1,0.5 0,0 0,0.4 0,0.6 0,0.3 0,0.4 -0.1,0.6 -0.1,0.6 -0.3,1.1 -0.6,1.5 -0.4,0.8 -0.9,1.3 -1.3,1.8 -0.9,0.9 -1.7,1.6 -2.6,2.2 -0.9,0.6 -1.7,1.2 -2.6,1.7 -1.7,1.1 -3.5,2 -5.3,2.9 -7.1,3.5 -14.6,6.2 -22.3,8.6 -7.7,2.3 -15.6,4.1 -23.7,5.5 -8.1,1.4 -16.3,2.3 -24.6,2.6 -8.3,0.4 -16.7,0.1 -25,-0.9 -8.3,-1 -16.6,-2.7 -24.6,-5.3 -2,-0.6 -4,-1.4 -5.9,-2.1 -2,-0.8 -3.8,-1.5 -5.7,-2.4 -1.9,-0.8 -3.8,-1.7 -5.7,-2.7 -1,-0.5 -1.9,-1.1 -2.9,-1.7 -1,-0.6 -1.9,-1.3 -2.9,-2.2 -0.5,-0.5 -1,-1 -1.4,-1.6 -0.5,-0.6 -0.9,-1.4 -1.2,-2.4 -0.1,-0.5 -0.2,-1.1 -0.2,-1.6 0,-0.2 0,-0.2 0,-0.5 v -0.2 c 0,-0.3 0.1,-0.7 0.2,-0.9 0.3,-1 0.9,-1.8 1.5,-2.4 1.2,-1.2 2.3,-1.8 3.4,-2.4 1.1,-0.5 2.1,-0.9 3.2,-1.3 4.2,-1.3 8.2,-2 12.2,-2.6 4,-0.5 8,-0.9 11.9,-1.2 3.9,-0.3 7.8,-0.5 11.7,-0.6 7.7,-0.2 15.3,-0.2 22.7,0 7.4,0.2 14.7,0.5 21.7,1 3.5,0.2 7,0.5 10.4,0.8 3.4,0.3 6.8,0.8 10.1,1.3 3.3,0.6 6.5,1.2 9.7,2.1 0.8,0.2 1.6,0.5 2.5,0.8 0.2,0.1 0.4,0.2 0.7,0.3 0.1,0.1 0.3,0.2 0.5,0.3 0.1,0.1 0.2,0.2 0.3,0.3 0.1,0.2 0.3,0.3 0.5,0.8 0.2,0.9 0.1,0.3 0.1,0.6 0,0.2 0,0.6 0,0.7 -0.1,0.3 -0.2,0.6 -0.3,0.8 -0.3,0.4 -0.5,0.7 -0.8,0.9 -0.5,0.4 -0.9,0.6 -1.3,0.8 -0.4,0.2 -0.8,0.4 -1.2,0.5 -0.8,0.3 -1.6,0.5 -2.4,0.7 -3.1,0.8 -6.1,1.3 -9,1.7 -2.9,0.4 -5.8,0.7 -8.6,1 -5.6,0.5 -10.9,0.7 -15.9,0.8 -10,0.2 -18.7,-0.2 -25.9,-0.9 -7.1,-0.7 -12.7,-1.7 -16.4,-2.6 -1.9,-0.4 -3.3,-0.8 -4.3,-1.1 -1,-0.3 -1.4,-0.4 -1.4,-0.4 0,0 0.5,0.1 1.5,0.3 1,0.2 2.4,0.5 4.3,0.8 3.8,0.7 9.3,1.4 16.5,1.7 7.1,0.4 15.8,0.4 25.7,-0.2 5,-0.3 10.2,-0.7 15.7,-1.4 2.8,-0.3 5.6,-0.7 8.4,-1.3 2.8,-0.5 5.8,-1.1 8.6,-1.9 0.7,-0.2 1.4,-0.4 2,-0.7 0.3,-0.1 0.6,-0.3 0.9,-0.4 0.3,-0.1 0.5,-0.3 0.6,-0.4 0.1,0 0.1,-0.1 0,0 0,0 -0.1,0.1 -0.1,0.3 0,0 0,0.3 0,0.4 0,0.2 -0.1,-0.5 0.1,0.3 0.2,0.4 0.3,0.5 0.3,0.6 0.1,0.1 0.1,0.1 0.1,0.1 0,0 0,0 0,0 -0.1,0 -0.2,-0.1 -0.4,-0.2 -0.6,-0.2 -1.3,-0.4 -2.1,-0.6 -3,-0.8 -6.2,-1.3 -9.4,-1.8 -3.2,-0.5 -6.5,-0.8 -9.9,-1.1 -3.4,-0.2 -6.8,-0.4 -10.3,-0.5 -14,-0.4 -28.8,-0.5 -44,0.3 -7.6,0.4 -15.3,1 -22.9,2.1 -3.8,0.6 -7.6,1.3 -11,2.5 -0.8,0.3 -1.7,0.6 -2.4,1 -0.7,0.4 -1.3,0.8 -1.5,1.1 -0.1,0.1 -0.1,0.2 -0.1,0.1 0,0 0.1,-0.2 0,-0.2 v 0.2 c 0,-0.3 0,-0.1 0,-0.2 0,-0.1 0,-0.1 0,-0.1 0,-0.1 0.2,0.4 0.8,0.9 1.1,1 2.7,1.9 4.3,2.8 1.7,0.9 3.5,1.7 5.3,2.4 1.8,0.8 3.7,1.5 5.5,2.2 1.8,0.7 3.7,1.4 5.6,2 7.5,2.4 15.4,4 23.3,4.9 15.9,1.8 32.1,1.1 47.7,-1.5 7.8,-1.3 15.5,-3 22.9,-5.2 7.4,-2.1 14.7,-4.7 21.4,-7.9 1.7,-0.8 3.3,-1.6 4.8,-2.5 0.8,-0.5 1.5,-0.9 2.2,-1.4 0.7,-0.5 1.3,-1 1.8,-1.4 0.2,-0.2 0.4,-0.4 0.4,-0.5 0,0 0,0 -0.1,0.2 0,0.1 0,0.1 0,0.2 0,0.1 0,0.4 0,0.3 0,0.1 -0.1,-0.4 0,0.2 0,0.1 0.1,0.3 0.2,0.5 0.2,0.4 0.5,0.7 0.7,0.8 0.2,0.1 0.2,0.1 0.3,0.2 0,0 -0.1,0 -0.3,-0.1 -0.3,-0.1 -0.8,-0.2 -1.3,-0.3 -1.8,-0.5 -3.7,-1 -5.5,-1.6 -7,-2.3 -13.8,-4.2 -20.6,-5.7 -6.8,-1.5 -13.4,-2.8 -19.9,-3.7 -6.5,-0.9 -12.8,-1.6 -18.9,-2 -6.1,-0.4 -11.9,-0.6 -17.5,-0.6 -5.6,0 -10.8,0.1 -15.8,0.4 -9.9,0.5 -18.5,1.4 -25.6,2.4 -7.1,1 -12.6,1.9 -16.4,2.6 -3.4,0.5 -5.4,0.9 -5.4,0.9 z"
   class="st3" />
	<g
   id="g376">
		<linearGradient
   y2="346.17429"
   x2="562.1358"
   y1="346.17429"
   x1="308.13889"
   gradientUnits="userSpaceOnUse"
   id="SVGID_5_">
			<stop
   id="stop355"
   style="stop-color:#B2D9DD"
   offset="1.477833e-02" />
			<stop
   id="stop357"
   style="stop-color:#3086AF"
   offset="1" />
		</linearGradient>
		<path
   style="fill:url(#SVGID_5_)"
   id="path360"
   d="m 310.4,351.4 16.9,8.3 c 6.3,3.1 12.8,5.9 19.4,8.5 6.6,2.6 13.2,5 19.9,7.1 6.7,2.1 13.5,4 20.4,5.6 6.8,1.6 13.7,2.9 20.7,3.9 6.9,1 13.9,1.7 20.9,2 1.7,0.1 3.5,0.1 5.2,0.2 1.7,0 3.5,0.1 5.2,0 3.5,0 7,-0.1 10.5,-0.3 7,-0.4 13.9,-1.2 20.7,-2.5 6.9,-1.2 13.6,-2.9 20.2,-5 6.6,-2.1 13.1,-4.6 19.4,-7.6 3.2,-1.5 6.2,-3.1 9.3,-4.7 1.5,-0.9 3,-1.7 4.5,-2.6 l 2.3,-1.4 1.1,-0.7 1.1,-0.7 c 5.9,-3.8 11.6,-7.8 16.5,-12.5 2.5,-2.3 4.7,-4.8 6.5,-7.5 1.8,-2.7 3.1,-5.6 3.5,-8.5 0.4,-2.9 -0.2,-5.8 -1.8,-8.5 -1.6,-2.7 -3.9,-5 -6.6,-7.1 -2.7,-2.1 -5.6,-3.9 -8.7,-5.5 -3.1,-1.6 -6.3,-3.1 -9.6,-4.4 -3.3,-1.3 -6.6,-2.5 -10,-3.5 -3.4,-1.1 -6.8,-2.1 -10.2,-3 -6.9,-1.8 -13.8,-3.4 -20.9,-4.7 3.6,0.2 7.1,0.6 10.7,1.1 3.6,0.5 7.1,1 10.6,1.7 3.5,0.6 7.1,1.4 10.6,2.2 3.5,0.9 7,1.8 10.4,2.9 3.4,1.1 6.9,2.4 10.2,3.9 3.4,1.5 6.6,3.2 9.7,5.4 3.1,2.2 6,4.8 8.3,8.2 1.1,1.7 2,3.6 2.6,5.7 0.6,2 0.7,4.2 0.6,6.3 -0.1,1 -0.3,2.1 -0.5,3.1 -0.3,1 -0.5,2 -0.9,2.9 -0.7,1.9 -1.7,3.7 -2.7,5.3 -2.1,3.3 -4.5,6.2 -7.2,8.9 -2.6,2.7 -5.4,5.1 -8.3,7.4 -2.9,2.3 -5.8,4.5 -8.8,6.5 l -1.1,0.8 -1.2,0.8 -2.2,1.5 c -1.5,1 -3.1,1.9 -4.7,2.9 -3.2,1.8 -6.4,3.6 -9.7,5.2 -6.6,3.3 -13.4,6.1 -20.3,8.4 -7,2.3 -14.1,4.2 -21.3,5.5 -7.2,1.4 -14.5,2.2 -21.8,2.7 -7.3,0.5 -14.6,0.5 -21.9,0.1 -7.3,-0.4 -14.6,-1.1 -21.7,-2.3 -7.2,-1.1 -14.3,-2.6 -21.4,-4.3 -7,-1.8 -14,-3.8 -20.9,-6.2 -6.9,-2.4 -13.6,-4.9 -20.3,-7.8 -11.9,-5 -33.2,-23.7 -33.2,-23.7 z"
   class="st4" />
		<linearGradient
   y2="312.68829"
   x2="566.73383"
   y1="312.68829"
   x1="490.93469"
   gradientUnits="userSpaceOnUse"
   id="SVGID_6_">
			<stop
   id="stop362"
   style="stop-color:#B2D9DD"
   offset="1.477833e-02" />
			<stop
   id="stop364"
   style="stop-color:#3086AF"
   offset="1" />
		</linearGradient>
		<path
   style="fill:url(#SVGID_6_)"
   id="path367"
   d="m 491.4,278.2 c 0,0 0.5,0 1.5,-0.1 1,0 2.4,-0.1 4.2,0 3.6,0 8.7,0.3 14.9,1.1 3.1,0.4 6.4,0.9 9.9,1.6 3.5,0.7 7.2,1.6 10.9,2.7 1.9,0.6 3.8,1.2 5.7,1.9 1,0.3 1.9,0.7 2.9,1.1 1,0.4 1.9,0.8 2.9,1.2 1.9,0.9 3.8,1.8 5.7,2.9 1.9,1.1 3.7,2.3 5.5,3.6 1.8,1.4 3.5,2.9 5.1,4.7 1.6,1.7 3,3.8 4,6.1 0.5,1.1 1,2.3 1.2,3.6 0.2,0.6 0.3,1.2 0.4,1.9 l 0.1,0.9 c 0,0.3 0,0.6 0,0.9 0.1,2.5 -0.2,4.9 -1,7.1 -0.7,2.2 -1.7,4.1 -2.8,5.9 -0.3,0.4 -0.6,0.9 -0.8,1.3 -0.3,0.4 -0.6,0.8 -0.9,1.2 -0.6,0.8 -1.2,1.5 -1.8,2.2 -2.5,2.8 -5.1,5.1 -7.6,7 -0.6,0.5 -1.3,0.9 -1.9,1.4 -0.6,0.4 -1.2,0.9 -1.8,1.3 -1.2,0.8 -2.3,1.5 -3.4,2.2 -1.1,0.6 -2.1,1.3 -3.1,1.8 -1,0.5 -1.8,1 -2.6,1.4 -0.8,0.4 -1.5,0.8 -2.2,1.1 -0.6,0.3 -1.2,0.5 -1.6,0.7 -0.9,0.4 -1.4,0.6 -1.4,0.6 0,0 0.4,-0.4 1.1,-1 0.7,-0.7 1.7,-1.6 3,-2.8 0.6,-0.6 1.4,-1.3 2.1,-2 0.8,-0.7 1.6,-1.5 2.5,-2.4 1.7,-1.7 3.7,-3.7 5.7,-5.9 1,-1.1 2,-2.2 3,-3.5 0.2,-0.3 0.5,-0.6 0.7,-0.9 0.2,-0.3 0.5,-0.6 0.7,-1 0.5,-0.6 1,-1.3 1.4,-2 0.4,-0.7 0.9,-1.3 1.3,-2.1 0.2,-0.3 0.4,-0.7 0.6,-1.1 0.2,-0.4 0.3,-0.7 0.5,-1.1 0.4,-0.7 0.6,-1.5 0.9,-2.2 0.2,-0.4 0.2,-0.7 0.4,-1.1 0.1,-0.4 0.2,-0.7 0.3,-1.1 0.4,-1.5 0.4,-3 0.3,-4.4 -0.2,-1.4 -0.6,-2.8 -1.3,-4.1 -1.3,-2.7 -3.8,-5.2 -6.7,-7.4 -2.9,-2.2 -6.2,-4.1 -9.6,-5.8 -1.7,-0.8 -3.4,-1.6 -5.1,-2.4 -1.7,-0.8 -3.5,-1.5 -5.2,-2.2 -3.4,-1.4 -6.8,-2.6 -10.1,-3.7 -3.2,-1.1 -6.4,-2.1 -9.2,-3 -5.8,-1.8 -10.6,-3.3 -14.1,-4.3 -3.2,-1.2 -5.2,-1.8 -5.2,-1.8 z"
   class="st5" />
		<linearGradient
   y2="286.93521"
   x2="566.73383"
   y1="286.93521"
   x1="490.93469"
   gradientUnits="userSpaceOnUse"
   id="SVGID_7_">
			<stop
   id="stop369"
   style="stop-color:#B2D9DD"
   offset="1.477833e-02" />
			<stop
   id="stop371"
   style="stop-color:#3086AF"
   offset="1" />
		</linearGradient>
		<path
   style="fill:url(#SVGID_7_)"
   id="path374"
   d="m 491.5,252.5 c 0,0 0.1,0 0.4,-0.1 0.3,0 0.6,-0.1 1.1,-0.2 1,-0.1 2.4,-0.4 4.3,-0.5 1.8,-0.1 4.1,-0.3 6.6,-0.3 2.6,0 5.4,0 8.6,0.2 1.6,0.1 3.2,0.3 4.9,0.4 1.7,0.2 3.4,0.4 5.2,0.7 3.6,0.6 7.4,1.3 11.2,2.4 1.9,0.5 3.9,1.1 5.9,1.8 1,0.3 2,0.7 3,1.1 1,0.4 2,0.8 3,1.3 2,0.9 4,1.8 6,3 2,1.1 4,2.4 5.9,3.9 1.9,1.5 3.8,3.2 5.6,5.2 1.8,2 3.3,4.3 4.5,7 0.6,1.3 1.1,2.7 1.4,4.2 0.1,0.4 0.2,0.7 0.2,1.1 l 0.2,1.1 0.1,1.1 c 0,0.4 0,0.7 0,1.1 0.1,2.9 -0.4,5.8 -1.3,8.2 -0.2,0.6 -0.4,1.2 -0.7,1.8 -0.3,0.6 -0.5,1.2 -0.8,1.7 -0.6,1 -1.1,2.1 -1.8,3 -0.3,0.5 -0.6,0.9 -0.9,1.4 -0.3,0.4 -0.7,0.8 -1,1.3 -0.3,0.4 -0.6,0.8 -1,1.2 -0.3,0.4 -0.7,0.7 -1,1.1 -2.8,2.9 -5.6,5.1 -8.3,7 -0.7,0.5 -1.4,0.9 -2,1.3 -0.7,0.4 -1.3,0.8 -1.9,1.2 -0.6,0.4 -1.3,0.7 -1.9,1 -0.6,0.3 -1.2,0.7 -1.8,0.9 -1.2,0.6 -2.2,1.1 -3.3,1.6 -1,0.4 -2,0.8 -2.8,1.2 -0.4,0.2 -0.8,0.3 -1.2,0.5 -0.4,0.1 -0.8,0.3 -1.1,0.4 -0.7,0.2 -1.3,0.4 -1.7,0.6 -0.5,0.2 -0.8,0.3 -1.1,0.3 -0.2,0.1 -0.4,0.1 -0.4,0.1 l -0.5,-0.8 c 0,0 0.4,-0.3 1.2,-0.8 0.8,-0.6 1.9,-1.3 3.4,-2.4 0.7,-0.5 1.5,-1.1 2.4,-1.7 0.8,-0.7 1.8,-1.4 2.7,-2.1 1.9,-1.5 4,-3.3 6.3,-5.4 2.2,-2.1 4.5,-4.4 6.6,-7.1 0.5,-0.7 1.1,-1.4 1.5,-2.1 0.2,-0.4 0.5,-0.7 0.7,-1.1 0.2,-0.4 0.4,-0.8 0.7,-1.2 0.5,-0.8 0.8,-1.6 1.2,-2.4 0.2,-0.4 0.3,-0.8 0.5,-1.3 0.2,-0.4 0.3,-0.9 0.4,-1.3 1,-3.5 0.8,-7.4 -0.9,-10.9 -0.8,-1.7 -2,-3.3 -3.3,-4.7 -1.3,-1.4 -2.8,-2.8 -4.4,-4 -1.6,-1.2 -3.3,-2.3 -5,-3.3 -1.7,-1 -3.5,-1.9 -5.3,-2.8 -3.6,-1.7 -7.2,-3.1 -10.8,-4.4 -7.2,-2.5 -14,-4.3 -19.9,-5.6 -5.9,-1.3 -10.9,-2.3 -14.4,-2.9 -3.5,-0.6 -5.5,-0.8 -5.5,-0.8 z"
   class="st6" />
	</g>
	<linearGradient
   y2="262.66531"
   x2="446.48801"
   y1="262.66531"
   x1="383.4137"
   gradientUnits="userSpaceOnUse"
   id="SVGID_8_">
		<stop
   id="stop378"
   style="stop-color:#36828B"
   offset="0" />
		<stop
   id="stop380"
   style="stop-color:#367E89"
   offset="0.2174" />
		<stop
   id="stop382"
   style="stop-color:#347582"
   offset="0.4395" />
		<stop
   id="stop384"
   style="stop-color:#316677"
   offset="0.6637" />
		<stop
   id="stop386"
   style="stop-color:#2C5267"
   offset="0.8881" />
		<stop
   id="stop388"
   style="stop-color:#2A485F"
   offset="0.9951" />
	</linearGradient>
	<path
   style="fill:url(#SVGID_8_)"
   id="path391"
   d="m 440.5,219.5 c 0,0 0.2,0.5 0.6,1.4 0.3,0.9 0.9,2.3 1.4,4.1 0.6,1.8 1.2,3.9 1.8,6.4 0.3,1.3 0.6,2.6 1,4 0.3,1.4 0.6,2.9 0.9,4.5 0.6,3.1 1.1,6.5 1.5,10.2 0.4,3.6 0.7,7.5 0.7,11.6 0,2 0,4.1 -0.1,6.2 0,1 -0.1,2.1 -0.2,3.2 -0.1,1.1 -0.2,2.1 -0.3,3.2 -0.5,4.3 -1.4,8.8 -3,13.3 -0.8,2.2 -1.8,4.5 -3.1,6.6 -1.3,2.2 -2.9,4.3 -4.9,6.1 l -0.8,0.7 -0.8,0.6 c -0.6,0.4 -1.1,0.8 -1.7,1.2 -1.2,0.7 -2.5,1.3 -3.8,1.8 -0.7,0.2 -1.3,0.4 -2,0.6 -0.7,0.1 -1.3,0.3 -2,0.4 -1.3,0.2 -2.6,0.2 -3.9,0.2 h -0.9 c -0.3,0 -0.6,-0.1 -0.9,-0.1 -0.6,-0.1 -1.2,-0.1 -1.8,-0.2 -1.1,-0.3 -2.3,-0.5 -3.3,-0.8 -0.5,-0.2 -1,-0.3 -1.6,-0.5 -0.5,-0.2 -1,-0.4 -1.5,-0.6 -0.5,-0.2 -1,-0.4 -1.4,-0.6 -0.4,-0.2 -0.9,-0.5 -1.3,-0.7 -3.5,-1.8 -6.5,-3.9 -9,-5.9 -0.6,-0.5 -1.2,-1 -1.8,-1.5 -0.6,-0.5 -1.2,-1 -1.7,-1.5 -1.1,-1 -2.1,-2 -3,-2.9 -0.9,-0.9 -1.8,-1.8 -2.5,-2.6 -0.7,-0.9 -1.4,-1.6 -2,-2.3 -0.6,-0.7 -1.1,-1.3 -1.6,-1.9 -0.4,-0.6 -0.8,-1.1 -1.1,-1.5 -0.6,-0.8 -0.9,-1.2 -0.9,-1.2 l 0.5,-0.5 c 0,0 0.4,0.3 1.1,1 0.7,0.6 1.8,1.6 3.2,2.7 0.7,0.6 1.5,1.2 2.3,1.9 0.9,0.7 1.8,1.4 2.8,2.1 2,1.5 4.4,3.1 7,4.8 2.6,1.6 5.6,3.3 8.8,4.6 0.4,0.2 0.8,0.3 1.2,0.5 0.4,0.2 0.8,0.3 1.3,0.4 0.4,0.1 0.9,0.3 1.3,0.4 0.4,0.1 0.9,0.2 1.3,0.3 0.9,0.3 1.8,0.3 2.7,0.5 0.5,0.1 0.9,0.1 1.4,0.1 0.2,0 0.5,0 0.7,0 h 0.7 c 3.8,0.1 7.6,-1.4 10.4,-4.2 1.4,-1.4 2.6,-3 3.6,-4.7 1,-1.8 1.8,-3.6 2.5,-5.6 1.4,-3.8 2.2,-7.9 2.9,-11.9 0.6,-4 0.9,-8 1.1,-11.9 0.3,-7.7 0,-15 -0.4,-21.2 -0.4,-6.2 -0.9,-11.3 -1.4,-14.9 -0.4,-3.6 -0.8,-5.6 -0.8,-5.6 z"
   class="st7" />
	<linearGradient
   y2="252.81171"
   x2="443.6629"
   y1="252.81171"
   x1="380.58859"
   gradientUnits="userSpaceOnUse"
   id="SVGID_9_">
		<stop
   id="stop393"
   style="stop-color:#36828B"
   offset="0" />
		<stop
   id="stop395"
   style="stop-color:#367E89"
   offset="0.2174" />
		<stop
   id="stop397"
   style="stop-color:#347582"
   offset="0.4395" />
		<stop
   id="stop399"
   style="stop-color:#316677"
   offset="0.6637" />
		<stop
   id="stop401"
   style="stop-color:#2C5267"
   offset="0.8881" />
		<stop
   id="stop403"
   style="stop-color:#2A485F"
   offset="0.9951" />
	</linearGradient>
	<path
   style="fill:url(#SVGID_9_)"
   id="path406"
   d="m 437.6,209.7 c 0,0 0.2,0.5 0.6,1.4 0.3,0.9 0.9,2.3 1.4,4.1 0.6,1.8 1.2,3.9 1.8,6.4 0.3,1.3 0.6,2.6 1,4 0.3,1.4 0.6,2.9 0.9,4.5 0.6,3.1 1.1,6.5 1.5,10.2 0.4,3.6 0.7,7.5 0.7,11.6 0,2 0,4.1 -0.1,6.2 0,1 -0.1,2.1 -0.2,3.2 -0.1,1.1 -0.2,2.1 -0.3,3.2 -0.5,4.3 -1.4,8.8 -3,13.3 -0.8,2.2 -1.8,4.5 -3.1,6.6 -1.3,2.2 -2.9,4.3 -4.9,6.1 l -0.8,0.7 -0.8,0.6 c -0.6,0.4 -1.1,0.8 -1.7,1.2 -1.2,0.7 -2.5,1.3 -3.8,1.8 -0.7,0.2 -1.3,0.4 -2,0.6 -0.7,0.1 -1.3,0.3 -2,0.4 -1.3,0.2 -2.6,0.2 -3.9,0.2 H 418 c -0.3,0 -0.6,-0.1 -0.9,-0.1 -0.6,-0.1 -1.2,-0.1 -1.8,-0.2 -1.1,-0.3 -2.3,-0.5 -3.3,-0.8 -0.5,-0.2 -1,-0.3 -1.6,-0.5 -0.5,-0.2 -1,-0.4 -1.5,-0.6 -0.5,-0.2 -1,-0.4 -1.4,-0.6 -0.4,-0.2 -0.9,-0.5 -1.3,-0.7 -3.5,-1.8 -6.5,-3.9 -9,-5.9 -0.6,-0.5 -1.2,-1 -1.8,-1.5 -0.6,-0.5 -1.2,-1 -1.7,-1.5 -1.1,-1 -2.1,-2 -3,-2.9 -0.9,-0.9 -1.8,-1.8 -2.5,-2.6 -0.7,-0.9 -1.4,-1.6 -2,-2.3 -0.6,-0.7 -1.1,-1.3 -1.6,-1.9 -0.4,-0.6 -0.8,-1.1 -1.1,-1.5 -0.6,-0.8 -0.9,-1.2 -0.9,-1.2 l 0.5,-0.5 c 0,0 0.4,0.3 1.1,1 0.7,0.6 1.8,1.6 3.2,2.7 0.7,0.6 1.5,1.2 2.3,1.9 0.9,0.7 1.8,1.4 2.8,2.1 2,1.5 4.4,3.1 7,4.8 2.6,1.6 5.6,3.3 8.8,4.6 0.4,0.2 0.8,0.3 1.2,0.5 0.4,0.2 0.8,0.3 1.3,0.4 0.4,0.1 0.9,0.3 1.3,0.4 0.4,0.1 0.9,0.2 1.3,0.3 0.9,0.3 1.8,0.3 2.7,0.5 0.5,0.1 0.9,0.1 1.4,0.1 0.2,0 0.5,0 0.7,0 h 0.7 c 3.8,0.1 7.6,-1.4 10.4,-4.2 1.4,-1.4 2.6,-3 3.6,-4.7 1,-1.8 1.8,-3.6 2.5,-5.6 1.4,-3.8 2.2,-7.9 2.9,-11.9 0.6,-4 0.9,-8 1.1,-11.9 0.3,-7.7 0,-15 -0.4,-21.2 -0.4,-6.2 -0.9,-11.3 -1.4,-14.9 -0.4,-3.6 -0.8,-5.6 -0.8,-5.6 z"
   class="st8" />
	<linearGradient
   y2="211.23801"
   x2="362.04871"
   y1="219.0847"
   x1="391.40839"
   gradientUnits="userSpaceOnUse"
   id="SVGID_10_">
		<stop
   id="stop408"
   style="stop-color:#36828B"
   offset="0" />
		<stop
   id="stop410"
   style="stop-color:#367E89"
   offset="0.2174" />
		<stop
   id="stop412"
   style="stop-color:#347582"
   offset="0.4395" />
		<stop
   id="stop414"
   style="stop-color:#316677"
   offset="0.6637" />
		<stop
   id="stop416"
   style="stop-color:#2C5267"
   offset="0.8881" />
		<stop
   id="stop418"
   style="stop-color:#2A485F"
   offset="0.9951" />
	</linearGradient>
	<path
   style="fill:url(#SVGID_10_)"
   id="path421"
   d="m 394.5,155.9 c 0,0 -1.2,1.7 -3.2,4.7 -1,1.5 -2.1,3.3 -3.4,5.4 -0.7,1 -1.3,2.2 -2,3.4 -0.7,1.2 -1.4,2.5 -2.1,3.8 -0.7,1.3 -1.4,2.7 -2.1,4.2 -0.7,1.5 -1.5,2.9 -2.2,4.5 -0.7,1.6 -1.4,3.2 -2.1,4.9 -0.6,1.7 -1.4,3.4 -2,5.1 -1.3,3.5 -2.4,7.2 -3.5,10.9 -0.5,1.9 -0.9,3.8 -1.4,5.7 -0.4,1.9 -0.8,3.9 -1.2,5.8 -0.6,3.9 -1.2,7.8 -1.5,11.7 -0.4,3.8 -0.5,7.8 -0.6,11.5 0,3.7 0.1,7.4 0.3,10.8 0.3,3.4 0.6,6.7 1,9.7 0.4,3 0.9,5.7 1.3,8.2 0.5,2.4 0.9,4.6 1.3,6.3 0.8,3.5 1.3,5.5 1.3,5.5 0,0 -0.3,-0.4 -0.7,-1.3 -0.5,-0.9 -1.2,-2.1 -1.9,-3.7 -1.6,-3.3 -3.6,-8.1 -5.4,-14.1 -0.9,-3 -1.7,-6.3 -2.3,-9.9 -0.6,-3.6 -1.2,-7.3 -1.4,-11.3 -0.1,-2 -0.2,-4.1 -0.2,-6 0,-1 0,-1.9 0,-3.1 0.1,-1 0.1,-2.1 0.2,-3.1 0.1,-4.2 0.8,-8.4 1.4,-12.5 0.4,-2.1 0.9,-4.1 1.3,-6.2 0.5,-2 1.1,-4.1 1.7,-6.1 1.2,-4 2.7,-7.8 4.3,-11.4 0.8,-1.8 1.7,-3.6 2.5,-5.2 0.8,-1.7 1.8,-3.3 2.7,-4.9 0.9,-1.6 1.8,-3.1 2.8,-4.5 0.9,-1.4 1.9,-2.7 2.8,-4 0.9,-1.3 1.8,-2.5 2.8,-3.5 0.9,-1.1 1.8,-2.1 2.7,-3.1 1.7,-1.9 3.3,-3.4 4.6,-4.7 2.5,-2.3 4.2,-3.5 4.2,-3.5 z"
   class="st9" />
	<linearGradient
   y2="201.31419"
   x2="380.78961"
   y1="214.6138"
   x1="407.50491"
   gradientUnits="userSpaceOnUse"
   id="SVGID_11_">
		<stop
   id="stop423"
   style="stop-color:#36828B"
   offset="0" />
		<stop
   id="stop425"
   style="stop-color:#367E89"
   offset="0.2174" />
		<stop
   id="stop427"
   style="stop-color:#347582"
   offset="0.4395" />
		<stop
   id="stop429"
   style="stop-color:#316677"
   offset="0.6637" />
		<stop
   id="stop431"
   style="stop-color:#2C5267"
   offset="0.8881" />
		<stop
   id="stop433"
   style="stop-color:#2A485F"
   offset="0.9951" />
	</linearGradient>
	<path
   style="fill:url(#SVGID_11_)"
   id="path436"
   d="m 407.1,165.2 c 0,0 -0.8,1.3 -2.2,3.5 -0.7,1.1 -1.4,2.5 -2.3,4 -0.9,1.5 -1.8,3.3 -2.8,5.2 -1,1.9 -2,4 -3,6.3 -0.5,1.1 -1,2.3 -1.5,3.5 -0.5,1.2 -1,2.4 -1.4,3.6 -1,2.5 -1.8,5.1 -2.7,7.7 -0.8,2.6 -1.5,5.4 -2.2,8.1 -0.6,2.8 -1.2,5.5 -1.7,8.3 l -0.4,2 c -0.1,0.7 -0.2,1.4 -0.3,2.1 -0.2,1.4 -0.3,2.7 -0.5,4 -0.6,5.3 -0.9,10.3 -1,14.6 0,2.2 0,4.2 0,5.9 0,1.8 0.1,3.3 0.1,4.6 0.1,2.6 0.1,4.1 0.1,4.1 0,0 -0.7,-1.3 -1.6,-3.8 -0.9,-2.5 -2.1,-6 -2.9,-10.5 -0.4,-2.2 -0.8,-4.6 -1.1,-7.2 -0.2,-2.6 -0.4,-5.3 -0.3,-8.2 0,-1.4 0.1,-3 0.2,-4.4 0.1,-0.7 0.1,-1.4 0.2,-2.1 0.1,-0.8 0.2,-1.5 0.3,-2.3 0.2,-1.5 0.3,-3 0.7,-4.5 0.3,-1.5 0.6,-3 0.9,-4.5 0.8,-2.9 1.6,-5.9 2.7,-8.7 0.5,-1.4 1.1,-2.8 1.7,-4.1 0.6,-1.4 1.2,-2.7 1.8,-3.9 0.6,-1.3 1.3,-2.5 2,-3.7 0.7,-1.2 1.3,-2.3 2.1,-3.4 1.4,-2.2 2.9,-4.2 4.3,-5.9 2.8,-3.5 5.6,-6.1 7.6,-7.8 1.9,-1.7 3.2,-2.5 3.2,-2.5 z"
   class="st10" />
</g>
</svg>
