<svg xmlns="http://www.w3.org/2000/svg" height="420.6" width="344.4"><path d="M58.4 420.1h-7.8c-1.1 0-2-.4-2.8-1.2-.8-.8-1.2-1.7-1.2-2.8v-44.4H15.9v44.4c0 1.1-.4 2-1.2 2.8-.8.8-1.7 1.2-2.8 1.2H4c-1.1 0-2-.4-2.8-1.2-.8-.8-1.2-1.7-1.2-2.8v-52.3c0-1.1.4-2 1.1-2.8.7-.8 1.7-1.2 2.8-1.2h54.5c1.1 0 2 .4 2.8 1.2.8.8 1.2 1.7 1.2 2.8v52.3c0 1.1-.4 2-1.2 2.8-.8.8-1.7 1.2-2.8 1.2zm11.1-3.9l10.6-40c2.9-10.9 12.2-16.3 27.9-16.3h22.6c1 0 1.9.4 2.6 1.2.7.8 1 1.7 1 2.7v52.4c0 1.1-.4 2-1.2 2.8-.8.7-1.7 1.1-2.8 1.1h-7.9c-1.1 0-2.1-.4-2.8-1.1-.7-.7-1.1-1.7-1.1-2.8v-10.6H88.6l-2.8 10.6c-.3 1.1-.9 2.1-1.9 2.8-1 .7-2 1.1-3.1 1.1h-8.3c-1.1 0-1.9-.4-2.5-1.1-.7-.8-.8-1.7-.5-2.8zm25.8-36l-3.7 13.5h26.8v-21.9h-12c-2.7 0-5 .8-7.1 2.3-2 1.5-3.3 3.5-4 6.1zm54.8-20.3h32.1c16.9 0 25.4 7.8 25.4 23.4 0 15.6-8.5 23.4-25.4 23.4h-20.1v9.5c0 1.1-.4 2-1.2 2.8-.8.8-1.7 1.2-2.8 1.2h-7.9c-1.1 0-2-.4-2.8-1.2-.8-.8-1.2-1.7-1.2-2.8v-52.3c0-1.1.4-2 1.1-2.8.8-.8 1.7-1.2 2.8-1.2zm27.2 11.9H162v23.1h15.3c4.7 0 8.3-.8 10.7-2.4 2.4-1.6 3.7-4.6 3.7-9.2 0-4.5-1.2-7.6-3.7-9.2-2.4-1.6-6-2.3-10.7-2.3zm49.3 35.7h1.4c.7 0 1.9.1 3.4.4 1.5.3 2.8.4 3.6.4h.9c5.6 0 9.4-3.6 11.4-10.9h-3.6c-7.1 0-12.6-1.4-16.5-4.3-4-2.9-7.3-7.5-10.2-14l-6.6-15.1c-.5-1.1-.5-2 0-2.8.5-.8 1.2-1.2 2.3-1.2h8.9c2.7 0 4.6 1.3 5.6 3.8l4.8 11.7c1.4 3.4 3.2 5.9 5.4 7.6 2.2 1.7 5 2.5 8.6 2.5h5.2l7.6-21.7c.4-1.2 1.1-2.2 2.1-2.8 1-.7 2-1 3.2-1h8.5c1.1 0 1.9.4 2.4 1.1.5.7.6 1.6.3 2.7l-13.7 39.2c-1.9 5.5-4.8 9.7-8.6 12.7s-9.2 4.5-16.1 4.5h-10.2c-1.1 0-2-.4-2.8-1.2-.8-.8-1.2-1.7-1.2-2.8v-4.7c0-1.1.4-2 1.1-2.8.7-1 1.7-1.3 2.8-1.3zm60 5.5c-5.2-5-7.8-12.6-7.8-23s2.6-18 7.8-23c5.2-5 13-7.4 23.4-7.4h9.4c6.4 0 12 1.6 16.9 4.9 4.9 3.3 7.3 7.8 7.3 13.5 0 1.7-.5 2.9-1.5 3.6-1 .7-1.9 1.1-2.8 1.1h-5c-2.6 0-4.6-1.5-6-4.6-2.1-4.4-5.5-6.6-10.3-6.6h-7.5c-6.1 0-10.3 1.3-12.5 4-2.2 2.6-3.3 7.5-3.3 14.6s1.1 12 3.3 14.6c2.2 2.6 6.3 4 12.5 4h8.3c4.8 0 8.3-2.2 10.3-6.6 1.4-3.1 3.4-4.6 6-4.6h5c.5 0 1.1.1 1.6.3.6.2 1.2.7 1.8 1.5.6.8.9 1.7.9 2.9 0 5.7-2.4 10.3-7.3 13.5-4.9 3.3-10.5 4.9-16.9 4.9H310c-10.4-.2-18.2-2.6-23.4-7.6z"/><g transform="translate(-238.3 -71.8)"><linearGradient y2="206.63" x2="525.904" y1="206.63" x1="249.865" gradientUnits="userSpaceOnUse" id="a"><stop offset="0" stop-color="#e9a854"/><stop offset=".167" stop-color="#e8a453"/><stop offset=".36" stop-color="#e59a51"/><stop offset=".565" stop-color="#e08b4d"/><stop offset=".778" stop-color="#db7849"/><stop offset=".995" stop-color="#d76446"/></linearGradient><path d="M301.9 341.6s-1.4-1.3-4-3.7c-.6-.6-1.4-1.3-2.2-2.1-.8-.8-1.6-1.7-2.5-2.6-.9-.9-1.9-1.9-2.9-3s-2-2.3-3.1-3.6c-.6-.6-1.1-1.3-1.7-2-.6-.7-1.1-1.4-1.7-2.1-1.1-1.5-2.4-3-3.6-4.6-1.2-1.7-2.4-3.4-3.6-5.2-.6-.9-1.2-1.9-1.8-2.8l-1.8-3c-4.9-8.1-9.6-17.7-13.4-28.8-3.8-11.1-6.5-23.6-7.7-37.1-.1-.8-.2-1.7-.2-2.5s-.1-1.7-.1-2.6c0-.9-.1-1.7-.1-2.6l-.1-1.3v-7.8l.1-1.3c0-.9.1-1.8.1-2.7.1-3.6.5-7.1.9-10.7.2-1.8.5-3.6.8-5.4.1-.9.3-1.8.4-2.7.2-.9.4-1.8.5-2.7 1.3-7.3 3.4-14.6 5.9-21.8.7-1.8 1.3-3.6 2-5.4.7-1.8 1.5-3.6 2.2-5.3.4-.9.7-1.8 1.2-2.7l1.3-2.6 1.3-2.6.6-1.3.7-1.3c.9-1.7 1.9-3.4 2.8-5.1 1-1.7 2-3.4 3.1-5l1.6-2.5 1.7-2.4 1.7-2.4c.6-.8 1.1-1.6 1.7-2.4 1.2-1.6 2.4-3.1 3.6-4.7l.9-1.2 1-1.1 1.9-2.3 1.9-2.3c.6-.8 1.3-1.5 2-2.2l4.2-4.4 4.1-3.9 1-1c.3-.3.7-.7 1.1-1l2.3-2 2.3-2 1.2-1 1.2-.9c1.6-1.2 3.1-2.4 4.7-3.6.8-.6 1.6-1.2 2.4-1.7l2.4-1.7 2.4-1.7 2.5-1.6c1.7-1 3.3-2.1 5-3.1 1.7-.9 3.4-1.9 5.1-2.8 6.9-3.6 14-6.8 21.2-9.2 7.2-2.5 14.5-4.6 21.8-5.9.9-.2 1.8-.4 2.7-.5.9-.1 1.8-.3 2.7-.4 1.8-.3 3.6-.6 5.4-.8 3.6-.4 7.2-.8 10.7-.9.9 0 1.8-.1 2.7-.1l1.3-.1h7.8l1.3.1c.9 0 1.7.1 2.6.1.9 0 1.7.1 2.6.1.8 0 1.7.1 2.5.2 13.5 1.2 26 3.9 37.1 7.7 11.1 3.8 20.7 8.5 28.8 13.4l3 1.8c1 .6 1.9 1.2 2.8 1.8 1.8 1.2 3.6 2.5 5.2 3.6 1.6 1.2 3.2 2.4 4.6 3.6.7.6 1.5 1.1 2.1 1.7.7.6 1.3 1.1 2 1.7 1.3 1.1 2.5 2.1 3.6 3.1s2.1 2 3 2.9c.9.9 1.8 1.7 2.6 2.5s1.4 1.5 2.1 2.2c2.4 2.6 3.7 4 3.7 4s-1.5-1.2-4.2-3.5c-.7-.6-1.4-1.2-2.3-1.9-.9-.7-1.8-1.4-2.9-2.2-1-.8-2.1-1.6-3.3-2.5-1.2-.8-2.5-1.7-3.9-2.7-.7-.5-1.4-1-2.1-1.4-.7-.5-1.5-.9-2.3-1.4-1.6-1-3.2-2-4.9-3-1.7-1-3.5-2-5.4-3-.9-.5-1.9-1-2.9-1.5l-3-1.5c-8.2-4-17.8-7.7-28.6-10.6-.7-.2-1.3-.4-2-.5-.7-.2-1.4-.3-2.1-.5-1.4-.3-2.8-.7-4.2-1-1.4-.3-2.9-.5-4.3-.8-.7-.1-1.5-.3-2.2-.4-.7-.1-1.5-.2-2.2-.3l-4.5-.6c-1.5-.2-3-.3-4.6-.5-.8-.1-1.5-.1-2.3-.2l-1.2-.1h-1.2c-1.6-.1-3.1-.1-4.7-.2s-3.2 0-4.8 0h-3.6c-.4 0-.8 0-1.2.1-1.6.1-3.3.2-4.9.2l-1.2.1-1.2.1c-.8.1-1.6.2-2.5.2-3.3.2-6.6.8-10 1.2-1.7.3-3.3.6-5 .9-.8.2-1.7.3-2.5.5s-1.7.4-2.5.6c-6.7 1.5-13.4 3.6-20 6-1.6.6-3.3 1.3-4.9 1.9-1.6.7-3.2 1.5-4.9 2.2-.8.4-1.6.7-2.4 1.1l-2.4 1.2-2.4 1.2-1.2.6-1.2.7c-1.6.9-3.1 1.8-4.7 2.7-1.6.9-3.1 1.9-4.6 2.9l-2.3 1.5-2.2 1.6-2.2 1.6c-.7.5-1.5 1-2.2 1.6-1.4 1.1-2.9 2.2-4.3 3.4-.4.3-.7.6-1.1.8l-1 .9-2 1.7-2 1.7c-.3.3-.7.6-1 .9l-1 1-4.1 3.9-3.7 3.8c-.6.7-1.3 1.3-1.9 2l-1.8 2.1-1.8 2.1-.9 1c-.3.3-.6.7-.8 1.1-1.1 1.4-2.2 2.9-3.4 4.3-4.3 5.9-8.3 11.9-11.7 18.2l-.7 1.2-.6 1.2-1.2 2.4-1.2 2.4c-.4.8-.7 1.6-1.1 2.4-.7 1.6-1.5 3.2-2.2 4.9-.6 1.7-1.3 3.3-1.9 4.9-.7 1.6-1.2 3.3-1.8 5-.5 1.7-1.2 3.3-1.6 5-.5 1.7-1 3.3-1.4 5-.4 1.7-.8 3.4-1.2 5-.2.8-.4 1.7-.6 2.5-.2.8-.3 1.7-.5 2.5-.3 1.7-.7 3.3-.9 5-.4 3.3-1 6.7-1.2 10-.1.8-.2 1.6-.2 2.5l-.1 1.2-.1 1.2c-.1 1.6-.2 3.3-.2 4.9 0 .4 0 .8-.1 1.2v3.6c0 1.6-.1 3.2 0 4.8.1 1.6.1 3.2.2 4.7v1.2l.1 1.2c.1.8.1 1.5.2 2.3.2 1.5.2 3.1.5 4.6l.6 4.5c.1.7.2 1.5.3 2.2.1.7.3 1.5.4 2.2.3 1.4.5 2.9.8 4.3.3 1.4.6 2.8 1 4.2.2.7.3 1.4.5 2.1.2.7.3 1.4.5 2 2.9 10.8 6.6 20.4 10.6 28.6l1.5 3c.5 1 .9 2 1.5 2.9 1 1.9 2 3.7 3 5.4 1 1.7 2 3.3 3 4.9.5.8.9 1.5 1.4 2.3.5.7 1 1.4 1.4 2.1.9 1.4 1.8 2.7 2.7 3.9.9 1.2 1.7 2.3 2.5 3.3s1.5 2 2.2 2.9c.7.9 1.3 1.6 1.9 2.3 2.4 2.7 3.6 4.1 3.6 4.1z" fill="url(#a)"/><linearGradient y2="223.302" x2="432.621" y1="223.302" x1="336.915" gradientUnits="userSpaceOnUse" id="b"><stop offset="0" stop-color="#36828b"/><stop offset=".217" stop-color="#367e89"/><stop offset=".44" stop-color="#347582"/><stop offset=".664" stop-color="#316677"/><stop offset=".888" stop-color="#2c5267"/><stop offset=".995" stop-color="#2a485f"/></linearGradient><path d="M399.5 131.2s-.6.8-1.8 2.3c-1.2 1.5-2.8 3.8-5 6.6-2.1 2.9-4.6 6.4-7.4 10.4-2.8 4.1-5.9 8.7-9.1 13.8-3.2 5.1-6.6 10.7-9.9 16.8-3.3 6-6.6 12.5-9.5 19.4-1.5 3.4-2.9 6.9-4.1 10.5-1.3 3.6-2.4 7.3-3.4 11-1.9 7.5-3.2 15.2-3.3 22.8-.1 3.8.2 7.6.8 11.4l.5 2.8.6 2.7.4 1.3.2.7v.3c.1.2 0-.1 0-.1l.1.4c.3 1 .6 1.9 1 2.8l.5 1.4c.1.2.2.5.2.7l.3.6c.4.8.7 1.7 1.1 2.5l.5 1.3.6 1.2c.4.8.8 1.6 1.2 2.5.2.4.4.8.7 1.2l.7 1.2c.5.8.9 1.6 1.4 2.3.5.7 1 1.5 1.6 2.2l.8 1.1c.3.4.6.7.8 1 4.5 5.5 9.8 10.2 15.4 13.6.7.4 1.4.9 2.1 1.3l2.1 1.2c1.4.8 2.9 1.5 4.3 2.1.7.4 1.4.7 2.2.9l2.1.9c1.4.5 2.9 1.1 4.3 1.5 5.6 1.9 11 3.1 15.8 3.9 4.8.8 9.1 1.3 12.6 1.5 3.5.2 6.3.3 8.2.3h2.9s-1 .2-2.9.5-4.7.7-8.3.9c-3.6.2-8 .4-13 .1-5-.3-10.7-.9-16.8-2.3-6.1-1.4-12.6-3.7-19.1-7.2-6.5-3.4-12.8-8.3-18.1-14.4-.3-.4-.7-.7-1-1.1l-.9-1.2c-.6-.8-1.3-1.6-1.9-2.4-.6-.8-1.1-1.7-1.7-2.6l-.9-1.3c-.3-.4-.6-.9-.8-1.3l-1.5-2.7-.8-1.4-.7-1.5c-.4-1-.9-2-1.3-3l-.3-.6c-.1-.2-.2-.5-.3-.7l-.5-1.4c-.3-.9-.7-1.9-1-2.8l-.1-.4-.1-.2v-.1l-.1-.2-.2-.8-.5-1.6c-.3-1-.5-2.1-.8-3.1-.2-1.1-.4-2.1-.6-3.2-.7-4.3-1-8.6-.9-12.9.1-8.6 1.6-17 3.9-25 1.1-4 2.5-7.9 3.9-11.6 1.5-3.8 3.1-7.4 4.8-10.9 3.4-7 7.1-13.5 10.9-19.5 3.8-6 7.7-11.4 11.4-16.3s7.4-9.2 10.7-12.9c3.3-3.8 6.3-6.9 8.8-9.5 2.5-2.6 4.5-4.5 5.9-5.8 1.5-1.2 2.3-1.9 2.3-1.9z" fill="url(#b)"/><linearGradient y2="200.609" x2="469.706" y1="200.609" x1="384.706" gradientUnits="userSpaceOnUse" id="c"><stop offset="0" stop-color="#36828b"/><stop offset=".062" stop-color="#347280"/><stop offset=".153" stop-color="#306173"/><stop offset=".258" stop-color="#2d556a"/><stop offset=".387" stop-color="#2b4d63"/><stop offset=".562" stop-color="#2a4960"/><stop offset=".995" stop-color="#2a485f"/></linearGradient><path d="M388.8 87s.7.7 1.9 2.1c1.2 1.4 3 3.4 5.3 6.1 2.2 2.7 4.9 5.9 7.9 9.7 1.5 1.9 3.1 3.9 4.7 6.1 1.7 2.1 3.4 4.4 5.1 6.8 1.8 2.4 3.6 4.9 5.4 7.5 1.9 2.6 3.8 5.3 5.7 8.1 3.9 5.6 7.8 11.6 11.7 18 1.9 3.2 3.9 6.4 5.8 9.7 1.9 3.3 3.8 6.7 5.7 10.2 1.9 3.4 3.7 7 5.4 10.6 1.8 3.6 3.4 7.2 5 10.9s3.1 7.4 4.5 11.2c1.3 3.8 2.6 7.7 3.6 11.6 1 3.9 1.8 7.9 2.3 12l.2 1.5.1 1.5c.1 1 .1 2.1.2 3.1v5.7c-.1 1.9-.1 3.9-.3 5.7-.1.9-.1 1.9-.2 2.8-.1.9-.2 1.8-.3 2.8-.4 3.6-1 7.2-1.6 10.6-.7 3.4-1.4 6.7-2.4 9.9-.4 1.6-.9 3.1-1.4 4.6-.5 1.5-1 3-1.5 4.4-1.1 2.8-2.2 5.5-3.3 8-1.1 2.5-2.3 4.8-3.5 7-1.2 2.2-2.4 4.1-3.5 5.9-1.1 1.8-2.2 3.4-3.3 4.8-2 2.8-3.8 4.9-5.1 6.3-.6.7-1.1 1.2-1.5 1.5l-.5.5s.5-.8 1.4-2.4c.9-1.6 2.2-4 3.6-7.1 1.4-3.1 3.1-6.9 4.7-11.4.8-2.2 1.6-4.6 2.4-7.1.4-1.3.8-2.6 1.1-3.9.4-1.3.7-2.7 1.1-4.1 1.4-5.6 2.5-11.7 3.3-18.3.3-3.3.7-6.6.8-10.1 0-.9.1-1.7.1-2.6 0-.9 0-1.7.1-2.6.1-1.8 0-3.5 0-5.2 0-.9-.1-1.8-.1-2.8v-2.4s0-.1 0 0v-.3c-.1-.8-.1-1.7-.2-2.6l-.1-1.3-.2-1.3c-.5-3.5-1.3-7-2.3-10.6-1-3.6-2.1-7.2-3.4-10.7-1.3-3.6-2.7-7.2-4.2-10.7-1.5-3.6-3.1-7.1-4.7-10.6s-3.3-7-5-10.4c-1.7-3.4-3.4-6.8-5.2-10.2-1.7-3.3-3.5-6.6-5.3-9.8-3.5-6.4-7-12.6-10.3-18.5-3.3-5.9-6.6-11.4-9.6-16.4-3-5.1-5.8-9.7-8.2-13.8-2.5-4.1-4.6-7.7-6.4-10.7-3.4-5.9-5.5-9.3-5.5-9.3z" fill="url(#c)"/><linearGradient y2="349.493" x2="498.905" y1="349.493" x1="339.941" gradientUnits="userSpaceOnUse" id="d"><stop offset="0" stop-color="#36828b"/><stop offset=".217" stop-color="#367e89"/><stop offset=".44" stop-color="#347582"/><stop offset=".664" stop-color="#316677"/><stop offset=".888" stop-color="#2c5267"/><stop offset=".995" stop-color="#2a485f"/></linearGradient><path d="M346.2 337.7s2-.5 5.7-1.5c3.7-.9 9.2-2.3 16.3-3.6 7-1.4 15.7-2.7 25.6-3.7 5-.5 10.3-.9 15.9-1.1 5.6-.2 11.5-.2 17.7 0 6.2.2 12.6.6 19.3 1.4 6.6.8 13.5 1.8 20.4 3.2 7 1.4 14.1 3.2 21.2 5.3 1.7.5 3.4 1 5.2 1.4.5.1.9.2 1.5.4.3.1.6.2 1 .4.2.1.5.2.9.5s.9.7 1.2 1.4l.3.9c.1.7 0 .3.1.5v.6c0 .3 0 .4-.1.6-.1.6-.3 1.1-.6 1.5-.4.8-.9 1.3-1.3 1.8-.9.9-1.7 1.6-2.6 2.2-.9.6-1.7 1.2-2.6 1.7-1.7 1.1-3.5 2-5.3 2.9-7.1 3.5-14.6 6.2-22.3 8.6-7.7 2.3-15.6 4.1-23.7 5.5-8.1 1.4-16.3 2.3-24.6 2.6-8.3.4-16.7.1-25-.9s-16.6-2.7-24.6-5.3c-2-.6-4-1.4-5.9-2.1-2-.8-3.8-1.5-5.7-2.4-1.9-.8-3.8-1.7-5.7-2.7-1-.5-1.9-1.1-2.9-1.7-1-.6-1.9-1.3-2.9-2.2-.5-.5-1-1-1.4-1.6-.5-.6-.9-1.4-1.2-2.4-.1-.5-.2-1.1-.2-1.6v-.7c0-.3.1-.7.2-.9.3-1 .9-1.8 1.5-2.4 1.2-1.2 2.3-1.8 3.4-2.4 1.1-.5 2.1-.9 3.2-1.3 4.2-1.3 8.2-2 12.2-2.6 4-.5 8-.9 11.9-1.2 3.9-.3 7.8-.5 11.7-.6 7.7-.2 15.3-.2 22.7 0 7.4.2 14.7.5 21.7 1 3.5.2 7 .5 10.4.8 3.4.3 6.8.8 10.1 1.3 3.3.6 6.5 1.2 9.7 2.1.8.2 1.6.5 2.5.8.2.1.4.2.7.3.1.1.3.2.5.3l.3.3c.1.2.3.3.5.8.2.9.1.3.1.6v.7c-.1.3-.2.6-.3.8-.3.4-.5.7-.8.9-.5.4-.9.6-1.3.8-.4.2-.8.4-1.2.5-.8.3-1.6.5-2.4.7-3.1.8-6.1 1.3-9 1.7-2.9.4-5.8.7-8.6 1-5.6.5-10.9.7-15.9.8-10 .2-18.7-.2-25.9-.9-7.1-.7-12.7-1.7-16.4-2.6-1.9-.4-3.3-.8-4.3-1.1-1-.3-1.4-.4-1.4-.4l1.5.3c1 .2 2.4.5 4.3.8 3.8.7 9.3 1.4 16.5 1.7 7.1.4 15.8.4 25.7-.2 5-.3 10.2-.7 15.7-1.4 2.8-.3 5.6-.7 8.4-1.3 2.8-.5 5.8-1.1 8.6-1.9.7-.2 1.4-.4 2-.7.3-.1.6-.3.9-.4.3-.1.5-.3.6-.4.1 0 .1-.1 0 0 0 0-.1.1-.1.3v.4c0 .2-.1-.5.1.3.2.4.3.5.3.6l.1.1c-.1 0-.2-.1-.4-.2-.6-.2-1.3-.4-2.1-.6-3-.8-6.2-1.3-9.4-1.8s-6.5-.8-9.9-1.1c-3.4-.2-6.8-.4-10.3-.5-14-.4-28.8-.5-44 .3-7.6.4-15.3 1-22.9 2.1-3.8.6-7.6 1.3-11 2.5-.8.3-1.7.6-2.4 1s-1.3.8-1.5 1.1c-.1.1-.1.2-.1.1 0 0 .1-.2 0-.2v-.1c0-.1.2.4.8.9 1.1 1 2.7 1.9 4.3 2.8 1.7.9 3.5 1.7 5.3 2.4 1.8.8 3.7 1.5 5.5 2.2 1.8.7 3.7 1.4 5.6 2 7.5 2.4 15.4 4 23.3 4.9 15.9 1.8 32.1 1.1 47.7-1.5 7.8-1.3 15.5-3 22.9-5.2 7.4-2.1 14.7-4.7 21.4-7.9 1.7-.8 3.3-1.6 4.8-2.5.8-.5 1.5-.9 2.2-1.4.7-.5 1.3-1 1.8-1.4.2-.2.4-.4.4-.5l-.1.2v.5c0 .1-.1-.4 0 .2 0 .1.1.3.2.5.2.4.5.7.7.8.2.1.2.1.3.2 0 0-.1 0-.3-.1-.3-.1-.8-.2-1.3-.3-1.8-.5-3.7-1-5.5-1.6-7-2.3-13.8-4.2-20.6-5.7-6.8-1.5-13.4-2.8-19.9-3.7-6.5-.9-12.8-1.6-18.9-2-6.1-.4-11.9-.6-17.5-.6s-10.8.1-15.8.4c-9.9.5-18.5 1.4-25.6 2.4-7.1 1-12.6 1.9-16.4 2.6-3.4.5-5.4.9-5.4.9z" fill="url(#d)"/><linearGradient y2="346.174" x2="562.136" y1="346.174" x1="308.139" gradientUnits="userSpaceOnUse" id="e"><stop offset=".015" stop-color="#b2d9dd"/><stop offset="1" stop-color="#3086af"/></linearGradient><path d="M310.4 351.4l16.9 8.3c6.3 3.1 12.8 5.9 19.4 8.5 6.6 2.6 13.2 5 19.9 7.1 6.7 2.1 13.5 4 20.4 5.6 6.8 1.6 13.7 2.9 20.7 3.9 6.9 1 13.9 1.7 20.9 2 1.7.1 3.5.1 5.2.2 1.7 0 3.5.1 5.2 0 3.5 0 7-.1 10.5-.3 7-.4 13.9-1.2 20.7-2.5 6.9-1.2 13.6-2.9 20.2-5s13.1-4.6 19.4-7.6c3.2-1.5 6.2-3.1 9.3-4.7 1.5-.9 3-1.7 4.5-2.6l2.3-1.4 1.1-.7 1.1-.7c5.9-3.8 11.6-7.8 16.5-12.5 2.5-2.3 4.7-4.8 6.5-7.5 1.8-2.7 3.1-5.6 3.5-8.5.4-2.9-.2-5.8-1.8-8.5s-3.9-5-6.6-7.1c-2.7-2.1-5.6-3.9-8.7-5.5-3.1-1.6-6.3-3.1-9.6-4.4-3.3-1.3-6.6-2.5-10-3.5-3.4-1.1-6.8-2.1-10.2-3-6.9-1.8-13.8-3.4-20.9-4.7 3.6.2 7.1.6 10.7 1.1 3.6.5 7.1 1 10.6 1.7 3.5.6 7.1 1.4 10.6 2.2 3.5.9 7 1.8 10.4 2.9 3.4 1.1 6.9 2.4 10.2 3.9 3.4 1.5 6.6 3.2 9.7 5.4 3.1 2.2 6 4.8 8.3 8.2 1.1 1.7 2 3.6 2.6 5.7.6 2 .7 4.2.6 6.3-.1 1-.3 2.1-.5 3.1-.3 1-.5 2-.9 2.9-.7 1.9-1.7 3.7-2.7 5.3-2.1 3.3-4.5 6.2-7.2 8.9-2.6 2.7-5.4 5.1-8.3 7.4-2.9 2.3-5.8 4.5-8.8 6.5l-1.1.8-1.2.8-2.2 1.5c-1.5 1-3.1 1.9-4.7 2.9-3.2 1.8-6.4 3.6-9.7 5.2-6.6 3.3-13.4 6.1-20.3 8.4-7 2.3-14.1 4.2-21.3 5.5-7.2 1.4-14.5 2.2-21.8 2.7-7.3.5-14.6.5-21.9.1-7.3-.4-14.6-1.1-21.7-2.3-7.2-1.1-14.3-2.6-21.4-4.3-7-1.8-14-3.8-20.9-6.2-6.9-2.4-13.6-4.9-20.3-7.8-11.9-5-33.2-23.7-33.2-23.7z" fill="url(#e)"/><linearGradient y2="312.688" x2="566.734" y1="312.688" x1="490.935" gradientUnits="userSpaceOnUse" id="f"><stop offset=".015" stop-color="#b2d9dd"/><stop offset="1" stop-color="#3086af"/></linearGradient><path d="M491.4 278.2s.5 0 1.5-.1c1 0 2.4-.1 4.2 0 3.6 0 8.7.3 14.9 1.1 3.1.4 6.4.9 9.9 1.6 3.5.7 7.2 1.6 10.9 2.7 1.9.6 3.8 1.2 5.7 1.9 1 .3 1.9.7 2.9 1.1 1 .4 1.9.8 2.9 1.2 1.9.9 3.8 1.8 5.7 2.9 1.9 1.1 3.7 2.3 5.5 3.6 1.8 1.4 3.5 2.9 5.1 4.7 1.6 1.7 3 3.8 4 6.1.5 1.1 1 2.3 1.2 3.6.2.6.3 1.2.4 1.9l.1.9v.9c.1 2.5-.2 4.9-1 7.1-.7 2.2-1.7 4.1-2.8 5.9-.3.4-.6.9-.8 1.3l-.9 1.2c-.6.8-1.2 1.5-1.8 2.2-2.5 2.8-5.1 5.1-7.6 7-.6.5-1.3.9-1.9 1.4-.6.4-1.2.9-1.8 1.3-1.2.8-2.3 1.5-3.4 2.2-1.1.6-2.1 1.3-3.1 1.8s-1.8 1-2.6 1.4c-.8.4-1.5.8-2.2 1.1-.6.3-1.2.5-1.6.7-.9.4-1.4.6-1.4.6s.4-.4 1.1-1c.7-.7 1.7-1.6 3-2.8.6-.6 1.4-1.3 2.1-2 .8-.7 1.6-1.5 2.5-2.4 1.7-1.7 3.7-3.7 5.7-5.9 1-1.1 2-2.2 3-3.5.2-.3.5-.6.7-.9.2-.3.5-.6.7-1 .5-.6 1-1.3 1.4-2 .4-.7.9-1.3 1.3-2.1.2-.3.4-.7.6-1.1.2-.4.3-.7.5-1.1.4-.7.6-1.5.9-2.2.2-.4.2-.7.4-1.1.1-.4.2-.7.3-1.1.4-1.5.4-3 .3-4.4-.2-1.4-.6-2.8-1.3-4.1-1.3-2.7-3.8-5.2-6.7-7.4-2.9-2.2-6.2-4.1-9.6-5.8l-5.1-2.4c-1.7-.8-3.5-1.5-5.2-2.2-3.4-1.4-6.8-2.6-10.1-3.7-3.2-1.1-6.4-2.1-9.2-3-5.8-1.8-10.6-3.3-14.1-4.3-3.2-1.2-5.2-1.8-5.2-1.8z" fill="url(#f)"/><linearGradient y2="286.935" x2="566.734" y1="286.935" x1="490.935" gradientUnits="userSpaceOnUse" id="g"><stop offset=".015" stop-color="#b2d9dd"/><stop offset="1" stop-color="#3086af"/></linearGradient><path d="M491.5 252.5s.1 0 .4-.1c.3 0 .6-.1 1.1-.2 1-.1 2.4-.4 4.3-.5 1.8-.1 4.1-.3 6.6-.3 2.6 0 5.4 0 8.6.2 1.6.1 3.2.3 4.9.4 1.7.2 3.4.4 5.2.7 3.6.6 7.4 1.3 11.2 2.4 1.9.5 3.9 1.1 5.9 1.8 1 .3 2 .7 3 1.1 1 .4 2 .8 3 1.3 2 .9 4 1.8 6 3 2 1.1 4 2.4 5.9 3.9 1.9 1.5 3.8 3.2 5.6 5.2 1.8 2 3.3 4.3 4.5 7 .6 1.3 1.1 2.7 1.4 4.2.1.4.2.7.2 1.1l.2 1.1.1 1.1v1.1c.1 2.9-.4 5.8-1.3 8.2-.2.6-.4 1.2-.7 1.8-.3.6-.5 1.2-.8 1.7-.6 1-1.1 2.1-1.8 3-.3.5-.6.9-.9 1.4-.3.4-.7.8-1 1.3-.3.4-.6.8-1 1.2-.3.4-.7.7-1 1.1-2.8 2.9-5.6 5.1-8.3 7-.7.5-1.4.9-2 1.3-.7.4-1.3.8-1.9 1.2-.6.4-1.3.7-1.9 1-.6.3-1.2.7-1.8.9-1.2.6-2.2 1.1-3.3 1.6-1 .4-2 .8-2.8 1.2-.4.2-.8.3-1.2.5-.4.1-.8.3-1.1.4-.7.2-1.3.4-1.7.6-.5.2-.8.3-1.1.3-.2.1-.4.1-.4.1l-.5-.8s.4-.3 1.2-.8c.8-.6 1.9-1.3 3.4-2.4.7-.5 1.5-1.1 2.4-1.7.8-.7 1.8-1.4 2.7-2.1 1.9-1.5 4-3.3 6.3-5.4 2.2-2.1 4.5-4.4 6.6-7.1.5-.7 1.1-1.4 1.5-2.1.2-.4.5-.7.7-1.1.2-.4.4-.8.7-1.2.5-.8.8-1.6 1.2-2.4.2-.4.3-.8.5-1.3.2-.4.3-.9.4-1.3 1-3.5.8-7.4-.9-10.9-.8-1.7-2-3.3-3.3-4.7-1.3-1.4-2.8-2.8-4.4-4-1.6-1.2-3.3-2.3-5-3.3-1.7-1-3.5-1.9-5.3-2.8-3.6-1.7-7.2-3.1-10.8-4.4-7.2-2.5-14-4.3-19.9-5.6-5.9-1.3-10.9-2.3-14.4-2.9-3.5-.6-5.5-.8-5.5-.8z" fill="url(#g)"/><linearGradient y2="262.665" x2="446.488" y1="262.665" x1="383.414" gradientUnits="userSpaceOnUse" id="h"><stop offset="0" stop-color="#36828b"/><stop offset=".217" stop-color="#367e89"/><stop offset=".44" stop-color="#347582"/><stop offset=".664" stop-color="#316677"/><stop offset=".888" stop-color="#2c5267"/><stop offset=".995" stop-color="#2a485f"/></linearGradient><path d="M440.5 219.5s.2.5.6 1.4c.3.9.9 2.3 1.4 4.1.6 1.8 1.2 3.9 1.8 6.4.3 1.3.6 2.6 1 4 .3 1.4.6 2.9.9 4.5.6 3.1 1.1 6.5 1.5 10.2.4 3.6.7 7.5.7 11.6 0 2 0 4.1-.1 6.2 0 1-.1 2.1-.2 3.2s-.2 2.1-.3 3.2c-.5 4.3-1.4 8.8-3 13.3-.8 2.2-1.8 4.5-3.1 6.6-1.3 2.2-2.9 4.3-4.9 6.1l-.8.7-.8.6c-.6.4-1.1.8-1.7 1.2-1.2.7-2.5 1.3-3.8 1.8-.7.2-1.3.4-2 .6-.7.1-1.3.3-2 .4-1.3.2-2.6.2-3.9.2h-.9c-.3 0-.6-.1-.9-.1-.6-.1-1.2-.1-1.8-.2-1.1-.3-2.3-.5-3.3-.8-.5-.2-1-.3-1.6-.5l-1.5-.6c-.5-.2-1-.4-1.4-.6-.4-.2-.9-.5-1.3-.7-3.5-1.8-6.5-3.9-9-5.9l-1.8-1.5c-.6-.5-1.2-1-1.7-1.5-1.1-1-2.1-2-3-2.9-.9-.9-1.8-1.8-2.5-2.6-.7-.9-1.4-1.6-2-2.3-.6-.7-1.1-1.3-1.6-1.9-.4-.6-.8-1.1-1.1-1.5l-.9-1.2.5-.5s.4.3 1.1 1c.7.6 1.8 1.6 3.2 2.7.7.6 1.5 1.2 2.3 1.9.9.7 1.8 1.4 2.8 2.1 2 1.5 4.4 3.1 7 4.8 2.6 1.6 5.6 3.3 8.8 4.6.4.2.8.3 1.2.5.4.2.8.3 1.3.4.4.1.9.3 1.3.4.4.1.9.2 1.3.3.9.3 1.8.3 2.7.5.5.1.9.1 1.4.1h1.4c3.8.1 7.6-1.4 10.4-4.2 1.4-1.4 2.6-3 3.6-4.7 1-1.8 1.8-3.6 2.5-5.6 1.4-3.8 2.2-7.9 2.9-11.9.6-4 .9-8 1.1-11.9.3-7.7 0-15-.4-21.2-.4-6.2-.9-11.3-1.4-14.9-.4-3.6-.8-5.6-.8-5.6z" fill="url(#h)"/><linearGradient y2="252.812" x2="443.663" y1="252.812" x1="380.589" gradientUnits="userSpaceOnUse" id="i"><stop offset="0" stop-color="#36828b"/><stop offset=".217" stop-color="#367e89"/><stop offset=".44" stop-color="#347582"/><stop offset=".664" stop-color="#316677"/><stop offset=".888" stop-color="#2c5267"/><stop offset=".995" stop-color="#2a485f"/></linearGradient><path d="M437.6 209.7s.2.5.6 1.4c.3.9.9 2.3 1.4 4.1.6 1.8 1.2 3.9 1.8 6.4.3 1.3.6 2.6 1 4 .3 1.4.6 2.9.9 4.5.6 3.1 1.1 6.5 1.5 10.2.4 3.6.7 7.5.7 11.6 0 2 0 4.1-.1 6.2 0 1-.1 2.1-.2 3.2s-.2 2.1-.3 3.2c-.5 4.3-1.4 8.8-3 13.3-.8 2.2-1.8 4.5-3.1 6.6-1.3 2.2-2.9 4.3-4.9 6.1l-.8.7-.8.6c-.6.4-1.1.8-1.7 1.2-1.2.7-2.5 1.3-3.8 1.8-.7.2-1.3.4-2 .6-.7.1-1.3.3-2 .4-1.3.2-2.6.2-3.9.2h-.9c-.3 0-.6-.1-.9-.1-.6-.1-1.2-.1-1.8-.2-1.1-.3-2.3-.5-3.3-.8-.5-.2-1-.3-1.6-.5l-1.5-.6c-.5-.2-1-.4-1.4-.6-.4-.2-.9-.5-1.3-.7-3.5-1.8-6.5-3.9-9-5.9l-1.8-1.5c-.6-.5-1.2-1-1.7-1.5-1.1-1-2.1-2-3-2.9-.9-.9-1.8-1.8-2.5-2.6-.7-.9-1.4-1.6-2-2.3-.6-.7-1.1-1.3-1.6-1.9-.4-.6-.8-1.1-1.1-1.5l-.9-1.2.5-.5s.4.3 1.1 1c.7.6 1.8 1.6 3.2 2.7.7.6 1.5 1.2 2.3 1.9.9.7 1.8 1.4 2.8 2.1 2 1.5 4.4 3.1 7 4.8 2.6 1.6 5.6 3.3 8.8 4.6.4.2.8.3 1.2.5.4.2.8.3 1.3.4.4.1.9.3 1.3.4.4.1.9.2 1.3.3.9.3 1.8.3 2.7.5.5.1.9.1 1.4.1h1.4c3.8.1 7.6-1.4 10.4-4.2 1.4-1.4 2.6-3 3.6-4.7 1-1.8 1.8-3.6 2.5-5.6 1.4-3.8 2.2-7.9 2.9-11.9.6-4 .9-8 1.1-11.9.3-7.7 0-15-.4-21.2-.4-6.2-.9-11.3-1.4-14.9-.4-3.6-.8-5.6-.8-5.6z" fill="url(#i)"/><linearGradient y2="211.238" x2="362.049" y1="219.085" x1="391.408" gradientUnits="userSpaceOnUse" id="j"><stop offset="0" stop-color="#36828b"/><stop offset=".217" stop-color="#367e89"/><stop offset=".44" stop-color="#347582"/><stop offset=".664" stop-color="#316677"/><stop offset=".888" stop-color="#2c5267"/><stop offset=".995" stop-color="#2a485f"/></linearGradient><path d="M394.5 155.9s-1.2 1.7-3.2 4.7c-1 1.5-2.1 3.3-3.4 5.4-.7 1-1.3 2.2-2 3.4-.7 1.2-1.4 2.5-2.1 3.8-.7 1.3-1.4 2.7-2.1 4.2-.7 1.5-1.5 2.9-2.2 4.5-.7 1.6-1.4 3.2-2.1 4.9-.6 1.7-1.4 3.4-2 5.1-1.3 3.5-2.4 7.2-3.5 10.9-.5 1.9-.9 3.8-1.4 5.7-.4 1.9-.8 3.9-1.2 5.8-.6 3.9-1.2 7.8-1.5 11.7-.4 3.8-.5 7.8-.6 11.5 0 3.7.1 7.4.3 10.8.3 3.4.6 6.7 1 9.7.4 3 .9 5.7 1.3 8.2.5 2.4.9 4.6 1.3 6.3.8 3.5 1.3 5.5 1.3 5.5s-.3-.4-.7-1.3c-.5-.9-1.2-2.1-1.9-3.7-1.6-3.3-3.6-8.1-5.4-14.1-.9-3-1.7-6.3-2.3-9.9-.6-3.6-1.2-7.3-1.4-11.3-.1-2-.2-4.1-.2-6v-3.1c.1-1 .1-2.1.2-3.1.1-4.2.8-8.4 1.4-12.5.4-2.1.9-4.1 1.3-6.2.5-2 1.1-4.1 1.7-6.1 1.2-4 2.7-7.8 4.3-11.4.8-1.8 1.7-3.6 2.5-5.2.8-1.7 1.8-3.3 2.7-4.9.9-1.6 1.8-3.1 2.8-4.5.9-1.4 1.9-2.7 2.8-4 .9-1.3 1.8-2.5 2.8-3.5.9-1.1 1.8-2.1 2.7-3.1 1.7-1.9 3.3-3.4 4.6-4.7 2.5-2.3 4.2-3.5 4.2-3.5z" fill="url(#j)"/><linearGradient y2="201.314" x2="380.79" y1="214.614" x1="407.505" gradientUnits="userSpaceOnUse" id="k"><stop offset="0" stop-color="#36828b"/><stop offset=".217" stop-color="#367e89"/><stop offset=".44" stop-color="#347582"/><stop offset=".664" stop-color="#316677"/><stop offset=".888" stop-color="#2c5267"/><stop offset=".995" stop-color="#2a485f"/></linearGradient><path d="M407.1 165.2s-.8 1.3-2.2 3.5c-.7 1.1-1.4 2.5-2.3 4-.9 1.5-1.8 3.3-2.8 5.2-1 1.9-2 4-3 6.3-.5 1.1-1 2.3-1.5 3.5-.5 1.2-1 2.4-1.4 3.6-1 2.5-1.8 5.1-2.7 7.7-.8 2.6-1.5 5.4-2.2 8.1-.6 2.8-1.2 5.5-1.7 8.3l-.4 2-.3 2.1c-.2 1.4-.3 2.7-.5 4-.6 5.3-.9 10.3-1 14.6v5.9c0 1.8.1 3.3.1 4.6.1 2.6.1 4.1.1 4.1s-.7-1.3-1.6-3.8c-.9-2.5-2.1-6-2.9-10.5-.4-2.2-.8-4.6-1.1-7.2-.2-2.6-.4-5.3-.3-8.2 0-1.4.1-3 .2-4.4.1-.7.1-1.4.2-2.1.1-.8.2-1.5.3-2.3.2-1.5.3-3 .7-4.5l.9-4.5c.8-2.9 1.6-5.9 2.7-8.7.5-1.4 1.1-2.8 1.7-4.1.6-1.4 1.2-2.7 1.8-3.9.6-1.3 1.3-2.5 2-3.7.7-1.2 1.3-2.3 2.1-3.4 1.4-2.2 2.9-4.2 4.3-5.9 2.8-3.5 5.6-6.1 7.6-7.8 1.9-1.7 3.2-2.5 3.2-2.5z" fill="url(#k)"/></g></svg>