<svg width="30" height="30" fill="none" xmlns="http://www.w3.org/2000/svg"><path d="M29.99 4.951a.524.524 0 00-.06-.193c-.008-.014-.009-.03-.018-.044-.01-.014-.022-.019-.031-.03a.506.506 0 00-.338-.176c-.015 0-.028-.009-.044-.009H.5a.458.458 0 00-.045.009.516.516 0 00-.186.054.498.498 0 00-.15.123c-.009.011-.022.018-.03.03-.009.013-.011.03-.02.044a.48.48 0 00-.06.193c0 .016-.009.031-.009.05v19.999a.5.5 0 00.5.5h29a.5.5 0 00.5-.5v-20c0-.017-.008-.032-.01-.05zm-2.096.55L15 14.393 2.106 5.502h25.788zm1.106 19H1V5.954l13.716 9.459a.5.5 0 00.568 0L29 5.952V24.5z" fill="#000"/></svg>