<svg width="18" height="18" viewBox="0 0 18 18" fill="none" xmlns="http://www.w3.org/2000/svg">
<path d="M16.4995 7.75003H10.2497V1.50001C10.2497 0.809659 9.69006 0.250031 8.99971 0.250031C8.30936 0.250031 7.74973 0.809659 7.74973 1.50001V7.75003H1.50193C0.811582 7.75003 0.251953 8.30966 0.251953 9.00001C0.251953 9.69036 0.811582 10.25 1.50193 10.25H7.74967V16.5C7.74967 17.1904 8.3093 17.75 8.99965 17.75C9.69 17.75 10.2496 17.1904 10.2496 16.5V10.25H16.4994C17.1897 10.25 17.7493 9.69036 17.7493 9.00001C17.7493 8.30966 17.1898 7.75003 16.4995 7.75003Z" fill="black"/>
</svg>
