<svg width="30" height="22" viewBox="0 0 30 22" fill="none" xmlns="http://www.w3.org/2000/svg">
<path d="M29.9905 0.951001C29.9871 0.917063 29.9804 0.883625 29.9705 0.851C29.9605 0.818688 29.9471 0.7875 29.9305 0.758C29.9225 0.744 29.921 0.727501 29.9115 0.714001C29.902 0.700501 29.89 0.695 29.8805 0.6835C29.8582 0.657188 29.8332 0.63325 29.806 0.612C29.7823 0.593 29.7569 0.57625 29.73 0.562C29.7021 0.547625 29.6728 0.536063 29.6425 0.527501C29.6098 0.517813 29.5764 0.511126 29.5425 0.507501C29.5275 0.507501 29.5145 0.499001 29.499 0.499001H0.5C0.484875 0.501251 0.469813 0.50425 0.455 0.508C0.422438 0.51125 0.39025 0.517813 0.359 0.527501C0.328 0.536313 0.297812 0.548063 0.269 0.5625C0.242687 0.576875 0.217812 0.593626 0.1945 0.612501C0.167 0.633751 0.141875 0.657876 0.1195 0.684501C0.11 0.696001 0.097 0.702501 0.0885 0.715001C0.08 0.727501 0.0775 0.745 0.0695 0.759C0.0529375 0.7885 0.0395 0.819688 0.0295 0.852001C0.0195625 0.884626 0.012875 0.918063 0.0095 0.952C0.0095 0.9685 0 0.983 0 1.002V21.001C0 21.2771 0.223875 21.501 0.5 21.501H29.5C29.7761 21.501 30 21.2771 30 21.001V1.001C30 0.984 29.992 0.969501 29.9905 0.951001ZM27.894 1.501L15 10.3935L2.106 1.501H27.894ZM29 20.501H1V1.9535L14.716 11.4125C14.8869 11.5305 15.1131 11.5305 15.284 11.4125L29 1.9535V20.501Z" fill="black"/>
</svg>
