<svg width="20" height="30" viewBox="0 0 20 30" fill="none" xmlns="http://www.w3.org/2000/svg">
<path d="M17.0725 3.07741C15.1837 1.09301 12.6721 0 10.001 0C7.32937 0 4.81836 1.09301 2.92949 3.07741C-0.566114 6.74927 -1.00052 13.658 1.98871 17.8437L10.001 30L18.0013 17.8607C21.0025 13.658 20.5681 6.74927 17.0725 3.07741ZM17.1555 17.2203L10.001 28.0748L2.8351 17.2033C0.123829 13.4054 0.512345 7.16621 3.66741 3.85211C5.35915 2.0748 7.60838 1.09575 10.001 1.09575C12.3936 1.09575 14.6429 2.0748 16.3351 3.85211C19.4902 7.16621 19.8787 13.4054 17.1555 17.2203Z" fill="black"/>
</svg>
