<svg width="59" height="59" viewBox="0 0 59 59" fill="none" xmlns="http://www.w3.org/2000/svg">
<g clip-path="url(#clip0)">
<path d="M39.9271 41.929C39.4031 42.453 38.9521 43.029 38.5621 43.638L21.2821 33.149C21.7391 32.005 21.9981 30.761 21.9981 29.456C21.9981 28.151 21.7391 26.907 21.2831 25.763L38.5671 15.354C40.3421 18.142 43.4541 20 46.9981 20C52.5121 20 56.9981 15.514 56.9981 10C56.9981 4.486 52.5121 0 46.9981 0C41.4841 0 36.9981 4.486 36.9981 10C36.9981 11.256 37.2411 12.454 37.6651 13.562L20.3581 23.985C18.5701 21.261 15.4921 19.456 11.9971 19.456C6.48307 19.456 1.99707 23.942 1.99707 29.456C1.99707 34.97 6.48307 39.456 11.9971 39.456C15.4921 39.456 18.5691 37.651 20.3571 34.927L37.6611 45.43C37.2311 46.556 36.9971 47.759 36.9971 49C36.9971 51.671 38.0371 54.183 39.9261 56.071C41.8751 58.02 44.4361 58.995 46.9971 58.995C49.5581 58.995 52.1191 58.02 54.0681 56.071C55.9571 54.182 56.9971 51.671 56.9971 49C56.9971 46.329 55.9571 43.817 54.0681 41.929C50.1691 38.029 43.8261 38.029 39.9271 41.929ZM46.9981 2C51.4091 2 54.9981 5.589 54.9981 10C54.9981 14.411 51.4091 18 46.9981 18C42.5871 18 38.9981 14.411 38.9981 10C38.9981 5.589 42.5861 2 46.9981 2ZM11.9981 37.456C7.58707 37.456 3.99807 33.867 3.99807 29.456C3.99807 25.045 7.58707 21.456 11.9981 21.456C16.4091 21.456 19.9981 25.045 19.9981 29.456C19.9981 33.867 16.4091 37.456 11.9981 37.456ZM52.6541 54.657C49.5351 57.776 44.4601 57.776 41.3411 54.657C39.8301 53.146 38.9981 51.136 38.9981 49C38.9981 46.864 39.8301 44.854 41.3411 43.343C42.9011 41.783 44.9491 41.004 46.9981 41.004C49.0471 41.004 51.0951 41.783 52.6551 43.343C54.1661 44.854 54.9981 46.864 54.9981 49C54.9981 51.136 54.1661 53.146 52.6541 54.657Z" fill="black"/>
</g>
<defs>
<clipPath id="clip0">
<rect width="58.995" height="58.995" fill="white"/>
</clipPath>
</defs>
</svg>
